<?xml version="1.0" encoding="UTF-8"?>
<svg id="Layer_2" data-name="Layer 2" xmlns="http://www.w3.org/2000/svg" viewBox="0 0 177.41 177.41">
  <defs>
    <style>
      .cls-1, .cls-2, .cls-3, .cls-4 {
        fill-rule: evenodd;
      }

      .cls-1, .cls-2, .cls-3, .cls-4, .cls-5, .cls-6, .cls-7, .cls-8 {
        stroke-width: 0px;
      }

      .cls-1, .cls-5 {
        fill: #16124b;
      }

      .cls-2 {
        fill: #1a1351;
      }

      .cls-3, .cls-8 {
        fill: #d5ae62;
      }

      .cls-4 {
        fill: #fff;
      }

      .cls-6 {
        fill: #231f20;
      }

      .cls-7 {
        fill: #d7ad6a;
      }
    </style>
  </defs>
  <g id="Layer_1-2" data-name="Layer 1">
    <g>
      <path class="cls-3" d="m117.99,5.08c1.54.75,2.41,1.96,1.82,3.96l-17.9,45.02c-5.22,9.59-21.03,9.45-26.16.02L57.69,9.35c-.78-1.85.19-3.24,2.5-4.28,19.45-6.62,38.34-6.91,57.8,0"/>
      <path class="cls-4" d="m60.7,13.66c18.9-6.96,37.13-7.37,56.04-.19l-16.56,40.56c-4.54,8.09-18.48,7.94-22.94-.01L60.7,13.66Z"/>
      <path class="cls-2" d="m168.93,51.09c.54,1.62.29,3.09-1.56,4.07l-44.68,18.73c-10.5,2.98-21.47-8.4-18.33-18.67l19.31-44.21c.77-1.85,2.44-2.13,4.8-1.21,18.34,9.26,31.77,22.55,40.45,41.29"/>
      <path class="cls-4" d="m122.71,16.17c18.2,8.63,31.25,21.36,39.35,39.89l-40.56,16.56c-8.96,2.42-18.61-7.64-16.05-16.39l17.25-40.06Z"/>
      <path class="cls-3" d="m171.88,119.27c-.77,1.52-1.99,2.38-3.99,1.76l-44.74-18.59c-9.51-5.37-9.13-21.17.38-26.16l45.01-17.37c1.86-.75,3.23.24,4.24,2.56,6.32,19.55,6.32,38.44-.9,57.8"/>
      <path class="cls-4" d="m164.18,61.85c6.67,19.01,6.8,37.24-.67,56.03l-40.3-17.18c-8.02-4.66-7.66-18.6.36-22.94l40.61-15.91Z"/>
      <path class="cls-2" d="m126.56,168.82c-1.62.54-3.09.3-4.08-1.54l-18.86-44.63c-3.01-10.5,8.34-21.5,18.62-18.38l44.26,19.18c1.85.77,2.14,2.44,1.22,4.8-9.2,18.37-22.45,31.84-41.17,40.57"/>
      <path class="cls-4" d="m161.35,122.49c-8.58,18.23-21.27,31.32-39.78,39.47l-16.68-40.51c-2.44-8.95,7.58-18.63,16.35-16.1l40.11,17.14Z"/>
      <path class="cls-3" d="m58.65,172.06c-1.53-.76-2.39-1.98-1.78-3.98l18.32-44.85c5.31-9.54,21.12-9.26,26.16.22l17.64,44.9c.76,1.85-.22,3.23-2.54,4.25-19.51,6.44-38.41,6.55-57.8-.55"/>
      <path class="cls-4" d="m116.02,164.02c-18.97,6.78-37.2,7.02-56.04-.34l16.94-40.4c4.62-8.05,18.55-7.77,22.94.23l16.16,40.51Z"/>
      <path class="cls-2" d="m8.77,126.93c-.55-1.62-.31-3.09,1.53-4.08l44.54-19.06c10.48-3.06,21.53,8.24,18.47,18.53l-18.98,44.35c-.76,1.86-2.43,2.15-4.79,1.24-18.41-9.12-31.94-22.31-40.76-40.99"/>
      <path class="cls-4" d="m55.26,161.5c-18.27-8.49-31.41-21.13-39.65-39.6l40.43-16.86c8.94-2.49,18.66,7.5,16.17,16.27l-16.95,40.19Z"/>
      <path class="cls-3" d="m4.99,59.69c.74-1.54,1.95-2.42,3.95-1.83l45.08,17.76c9.61,5.19,9.52,21,.1,26.16l-44.68,18.2c-1.84.79-3.24-.18-4.28-2.49-6.68-19.43-7.03-38.32-.17-57.8"/>
      <path class="cls-4" d="m13.75,116.95c-7.02-18.88-7.48-37.11-.36-56.04l40.61,16.44c8.1,4.52,8,18.45.06,22.94l-40.31,16.66Z"/>
      <path class="cls-2" d="m50.18,8.92c1.61-.56,3.09-.32,4.09,1.51l19.23,44.47c3.1,10.47-8.16,21.56-18.46,18.54L10.62,54.63c-1.86-.75-2.16-2.42-1.26-4.79C18.4,31.4,31.54,17.81,50.18,8.92"/>
      <path class="cls-4" d="m15.79,55.54c8.42-18.3,21.01-31.5,39.44-39.81l17.02,40.37c2.52,8.93-7.42,18.69-16.21,16.23L15.79,55.54Z"/>
      <path class="cls-6" d="m67.57,83.74v4.22h.64c.57,0,1-.16,1.29-.47.35-.37.52-.97.52-1.79,0-.68-.15-1.18-.46-1.5-.29-.3-.71-.46-1.26-.46h-.73Zm-1.12-.43h2.56c.75,0,1.32.25,1.73.74.35.43.53.99.53,1.66,0,.83-.26,1.49-.79,1.98-.5.47-1.14.71-1.94.71h-2.09v-5.09Z"/>
      <path class="cls-6" d="m72.31,88.43v-5.13c.08,0,.19,0,.33.02.13.01.21.02.23.02.08,0,.15,0,.21,0,.21-.02.33-.03.35-.03v5.13c-.08,0-.15,0-.21,0-.21-.02-.33-.03-.35-.03-.08,0-.19,0-.33.02-.13.01-.21.02-.23.02"/>
      <path class="cls-6" d="m77.47,86.81c.21-.41.4-.78.56-1.1.2-.4.4-.79.59-1.17.27-.55.47-.96.59-1.24.07.01.13.02.18.03.05,0,.1.01.13.01s.09,0,.16-.02c.07-.01.12-.02.16-.02.07.63.14,1.26.22,1.89.11.99.18,1.55.2,1.69.06.46.14.98.24,1.55-.07,0-.19,0-.34-.02-.15-.01-.24-.02-.28-.02-.08,0-.2,0-.34.02-.14.01-.23.02-.27.02,0-.47-.04-1.03-.11-1.66-.07-.64-.14-1.24-.21-1.82-.19.38-.38.77-.56,1.15-.19.38-.37.76-.56,1.14-.12.26-.3.65-.54,1.16-.08,0-.14-.02-.18-.02-.02,0-.05,0-.1.02-.17-.36-.34-.72-.51-1.07-.21-.44-.4-.82-.55-1.13-.19-.39-.39-.78-.58-1.17-.07.56-.13.97-.16,1.23-.05.41-.09.8-.12,1.16-.03.36-.04.7-.04,1.01-.08-.01-.15-.02-.21-.03-.06,0-.11-.01-.15-.01-.07,0-.14,0-.19.01-.05,0-.1.01-.16.02.09-.49.18-1.02.26-1.58.05-.31.13-.88.24-1.69.11-.81.2-1.43.26-1.86.07.01.13.02.18.03.05,0,.09.01.13.01.07,0,.13,0,.18-.02.05-.01.1-.02.13-.02.12.27.31.66.55,1.17.19.39.38.78.58,1.17.19.39.39.79.59,1.17"/>
      <path class="cls-6" d="m81.35,83.3h2.85c0,.05-.02.11-.03.17,0,.06-.01.11-.01.15,0,.03,0,.09.01.16,0,.07.02.12.02.16-.25-.03-.52-.06-.79-.08-.27-.02-.58-.03-.94-.03v1.61h.78c.19,0,.35,0,.45-.01.11,0,.26-.03.47-.06,0,.05-.02.11-.03.17,0,.06-.01.11-.01.15,0,.03,0,.09.01.16.01.07.02.12.02.16-.12-.02-.27-.03-.44-.05-.18-.01-.34-.02-.47-.02h-.78v1.9c.35,0,.67,0,.94-.03.27-.02.53-.04.79-.08,0,.05-.02.11-.03.17,0,.06-.01.11-.01.15,0,.03,0,.09.01.16,0,.07.02.12.02.16h-2.85v-5.09Z"/>
      <path class="cls-6" d="m85.13,88.42v-5.11h.74c.33.36.69.74,1.07,1.15.21.22.58.62,1.1,1.17.52.56.87.95,1.07,1.17v-3.5l.3.02.3-.02v5.13h-.64c-.42-.48-.85-.95-1.26-1.42-.44-.49-.86-.94-1.26-1.36l-.82-.85v3.63l-.3-.04-.3.02Z"/>
      <path class="cls-6" d="m93.34,84.27h-.11c-.07-.2-.18-.36-.33-.48-.14-.11-.32-.17-.53-.17-.28,0-.49.07-.62.2-.13.13-.2.31-.2.53,0,.27.19.51.58.72.71.39,1.07.59,1.1.61.39.31.59.71.59,1.2s-.18.87-.55,1.18c-.37.31-.85.46-1.43.46-.22,0-.43-.03-.64-.08-.21-.05-.4-.13-.56-.24.06-.21.1-.38.13-.5.03-.13.06-.27.08-.44h.14c.05.26.17.46.36.6.18.14.41.21.67.21.25,0,.46-.07.62-.2.17-.13.25-.33.25-.57,0-.32-.19-.58-.58-.79-.36-.19-.72-.38-1.07-.57-.39-.29-.58-.7-.58-1.2,0-.45.14-.82.43-1.11.31-.31.75-.46,1.29-.46.25,0,.48.04.71.11.22.07.38.16.47.25-.05.14-.1.26-.13.36-.05.17-.09.3-.11.38"/>
      <path class="cls-6" d="m94.74,88.43v-5.13c.08,0,.19,0,.33.02.13.01.21.02.23.02.08,0,.15,0,.21,0,.21-.02.33-.03.35-.03v5.13c-.08,0-.15,0-.21,0-.21-.02-.33-.03-.35-.03-.08,0-.19,0-.33.02-.13.01-.21.02-.23.02"/>
      <path class="cls-6" d="m99.71,83.62c-.53,0-.94.2-1.22.6-.29.42-.44,1.04-.44,1.86,0,.55.12,1,.36,1.37.28.42.68.63,1.2.63s.96-.24,1.26-.72c.27-.44.4-.99.4-1.66,0-.55-.12-1.02-.36-1.4-.28-.45-.69-.67-1.21-.67m2.81,2.21c0,.76-.26,1.39-.79,1.9-.55.53-1.27.8-2.16.8-.84,0-1.51-.23-2.02-.7-.5-.47-.75-1.12-.75-1.96,0-.77.26-1.41.77-1.9.54-.52,1.26-.78,2.18-.78.97,0,1.69.3,2.18.9.39.48.58,1.07.58,1.76Z"/>
      <path class="cls-6" d="m103.41,88.42v-5.11h.74c.33.36.69.74,1.07,1.15.21.22.58.62,1.1,1.17.52.56.87.95,1.07,1.17v-3.5l.3.02.3-.02v5.13h-.64c-.42-.48-.85-.95-1.26-1.42-.44-.49-.86-.94-1.26-1.36l-.82-.85v3.63l-.3-.04-.3.02Z"/>
      <path class="cls-6" d="m111.62,84.27h-.11c-.07-.2-.18-.36-.33-.48-.14-.11-.32-.17-.53-.17-.28,0-.49.07-.62.2-.13.13-.2.31-.2.53,0,.27.19.51.58.72.71.39,1.07.59,1.1.61.39.31.59.71.59,1.2s-.18.87-.55,1.18c-.37.31-.85.46-1.43.46-.22,0-.43-.03-.64-.08-.21-.05-.4-.13-.56-.24.06-.21.1-.38.13-.5.03-.13.06-.27.08-.44h.14c.06.26.17.46.36.6.18.14.41.21.67.21.25,0,.46-.07.62-.2.17-.13.25-.33.25-.57,0-.32-.19-.58-.58-.79-.36-.19-.72-.38-1.07-.57-.39-.29-.58-.7-.58-1.2,0-.45.14-.82.43-1.11.31-.31.75-.46,1.29-.46.25,0,.48.04.71.11.22.07.38.16.47.25-.05.14-.1.26-.13.36-.05.17-.09.3-.11.38"/>
      <path class="cls-6" d="m68.46,97.1c-.41,0-.78-.06-1.12-.19-.34-.12-.63-.31-.88-.54-.24-.23-.43-.51-.56-.84-.13-.33-.19-.69-.19-1.08s.07-.77.21-1.1c.14-.33.34-.62.59-.85.25-.23.55-.41.88-.53.33-.12.69-.18,1.09-.18.36,0,.71.05,1.05.15.34.1.64.26.91.46.27.21.48.48.64.8.16.33.24.7.24,1.14,0,.54-.12,1.02-.36,1.44-.24.42-.58.74-1.01.97-.43.23-.93.34-1.47.34m2.11-2.7c0-.24-.01-.44-.04-.62-.02-.18-.07-.35-.14-.53-.07-.17-.17-.34-.29-.49-.12-.15-.27-.29-.43-.39-.17-.11-.35-.19-.54-.25-.19-.06-.39-.08-.58-.08-.32,0-.62.06-.88.18-.26.12-.48.29-.67.51-.18.22-.32.49-.42.8-.09.31-.14.65-.14,1.02s.05.69.16.98c.1.29.25.53.44.73.19.2.41.35.66.45.25.1.51.15.79.15.36,0,.67-.08.94-.23.27-.15.49-.36.66-.6.17-.25.3-.52.38-.8.08-.29.12-.56.12-.82Z"/>
      <path class="cls-6" d="m72.29,97.01v-5.11h2.65c0,.05,0,.1-.01.14,0,.04,0,.07,0,.09,0,.02,0,.05,0,.09,0,.04,0,.08.01.13-.18-.04-.41-.06-.67-.08l-.75-.02h-.58v1.87h1.16s.11,0,.2,0c.09,0,.16-.01.22-.02.06,0,.14-.01.24-.02,0,.04,0,.08-.01.11,0,.03,0,.06,0,.08,0,.02,0,.04,0,.08,0,.04,0,.08.01.13-.1,0-.18,0-.24-.01-.06,0-.14-.01-.22-.01-.09,0-.15,0-.2,0h-1.16v2.56c-.05,0-.1,0-.13-.01-.03,0-.06,0-.09,0-.02,0-.06,0-.11,0-.04,0-.09,0-.15,0-.06,0-.12.01-.18.02"/>
      <path class="cls-6" d="m78.87,96.02l-1.34-4.13c.08,0,.15,0,.2.02.06,0,.11,0,.15,0,.03,0,.08,0,.13,0,.06,0,.13,0,.21-.02.02.07.1.33.22.79l.44,1.52.63,1.98h.07c.14-.41.31-.89.49-1.43.19-.54.38-1.11.58-1.7.2-.6.33-.98.37-1.16.04,0,.08,0,.12.02.04,0,.07,0,.09,0s.05,0,.09,0c.03,0,.08,0,.12-.02.03.12.1.33.19.62.09.29.19.58.3.88.1.3.26.76.46,1.36.2.6.36,1.08.47,1.43h.07c.11-.27.21-.56.3-.85l.88-2.82.18-.61c.05,0,.1,0,.15.02.04,0,.08,0,.11,0,.02,0,.06,0,.1,0,.05,0,.1,0,.16-.02-.15.34-.27.66-.37.96l-1.43,4.16s-.07,0-.1-.01c-.03,0-.05,0-.07,0-.02,0-.04,0-.08,0-.02,0-.06,0-.11,0-.05,0-.09.01-.14.02-.03-.1-.09-.28-.17-.55-.09-.27-.18-.55-.28-.86-.1-.3-.27-.84-.52-1.61-.25-.77-.38-1.16-.38-1.18h-.06l-1.45,4.2s-.07,0-.1-.01c-.03,0-.05,0-.07,0-.02,0-.04,0-.08,0-.04,0-.07,0-.09,0-.02,0-.04,0-.07,0-.03,0-.06,0-.1.01-.04-.15-.09-.32-.15-.51-.06-.19-.11-.35-.15-.48"/>
      <path class="cls-6" d="m86.24,92.25v1.87h1.16s.11,0,.2,0c.09,0,.16-.01.22-.02.06,0,.14-.01.24-.02,0,.04,0,.08-.01.11,0,.03,0,.06,0,.08,0,.02,0,.04,0,.08,0,.04,0,.08.01.13-.1,0-.18,0-.24-.01-.06,0-.14-.01-.22-.01-.09,0-.15,0-.2,0h-1.16v2.18c.3,0,.76,0,1.35-.03.2,0,.43-.03.69-.07,0,.02,0,.05-.01.08,0,.03,0,.06,0,.08,0,.02,0,.04,0,.07,0,.03,0,.07,0,.11,0,.04.01.08.02.11h-2.7v-5.09h2.65c0,.05,0,.1-.01.14,0,.04,0,.07,0,.09,0,.02,0,.05,0,.09,0,.04,0,.08.01.13-.18-.04-.41-.06-.67-.08l-.75-.02h-.58Z"/>
      <path class="cls-6" d="m89.98,91.89v4.74c.3,0,.76,0,1.35-.03.08,0,.19-.01.33-.03.14-.02.27-.03.39-.05,0,.05-.01.1-.01.14,0,.04,0,.07,0,.09,0,.02,0,.05,0,.09,0,.04,0,.08.01.13h-2.72v-5.09c.07,0,.14,0,.19.02.05,0,.1,0,.14,0,.03,0,.08,0,.14,0,.05,0,.12,0,.19-.02"/>
      <path class="cls-6" d="m93.72,91.89v4.74c.3,0,.76,0,1.35-.03.08,0,.19-.01.33-.03.14-.02.27-.03.39-.05,0,.05-.01.1-.02.14,0,.04,0,.07,0,.09,0,.02,0,.05,0,.09,0,.04,0,.08.02.13h-2.72v-5.09c.07,0,.14,0,.19.02.05,0,.1,0,.14,0,.03,0,.08,0,.14,0,.05,0,.12,0,.19-.02"/>
      <path class="cls-6" d="m101.22,91.89v5.11h-.23c-.1-.13-.23-.28-.39-.46l-3.23-3.58h-.08v4.03s-.07,0-.11-.02c-.04,0-.07,0-.1,0-.03,0-.06,0-.07,0-.02,0-.04,0-.06,0-.02,0-.05,0-.08.01v-5.11h.29l3.55,3.85h.08v-3.85s.08,0,.12.02c.03,0,.06,0,.09,0,.02,0,.05,0,.09,0,.03,0,.07,0,.12-.02"/>
      <path class="cls-6" d="m103.28,92.25v1.87h1.16s.11,0,.2,0c.09,0,.16-.01.22-.02.06,0,.14-.01.24-.02,0,.04,0,.08-.01.11,0,.03,0,.06,0,.08,0,.02,0,.04,0,.08,0,.04,0,.08.01.13-.1,0-.18,0-.24-.01-.06,0-.14-.01-.22-.01-.09,0-.15,0-.2,0h-1.16v2.18c.3,0,.76,0,1.35-.03.2,0,.43-.03.69-.07,0,.02,0,.05-.01.08,0,.03,0,.06,0,.08,0,.02,0,.04,0,.07,0,.03,0,.07,0,.11,0,.04.01.08.02.11h-2.7v-5.09h2.65c0,.05,0,.1-.01.14,0,.04,0,.07,0,.09,0,.02,0,.05,0,.09,0,.04,0,.08.01.13-.18-.04-.41-.06-.67-.08l-.75-.02h-.58Z"/>
      <path class="cls-6" d="m106.17,96h.08c.16.26.34.46.52.58.19.13.42.19.69.19.2,0,.38-.05.53-.15.16-.1.28-.23.37-.4.09-.17.13-.35.13-.54,0-.31-.09-.53-.29-.68-.19-.14-.48-.29-.87-.44-.39-.15-.68-.32-.89-.51-.2-.18-.3-.47-.3-.84,0-.46.16-.81.47-1.06.31-.25.71-.37,1.19-.37.19,0,.39.03.58.09.19.06.36.15.48.27-.04.09-.11.29-.2.61h-.07c-.08-.2-.2-.36-.36-.48-.16-.12-.35-.17-.57-.17-.17,0-.33.04-.47.11-.14.07-.26.18-.34.31-.08.13-.13.28-.13.46,0,.3.09.53.28.67.19.14.48.29.88.45.4.16.7.32.9.5.2.18.3.44.3.8,0,.26-.05.5-.14.71-.09.21-.23.39-.4.54-.17.15-.37.26-.59.34-.22.08-.46.11-.72.11-.2,0-.42-.04-.67-.12-.25-.08-.43-.18-.55-.32.06-.16.11-.38.14-.66"/>
      <path class="cls-6" d="m109.91,96h.08c.16.26.34.46.52.58.19.13.42.19.69.19.2,0,.38-.05.53-.15.16-.1.28-.23.37-.4.09-.17.13-.35.13-.54,0-.31-.09-.53-.29-.68-.19-.14-.48-.29-.87-.44-.39-.15-.68-.32-.89-.51-.2-.18-.3-.47-.3-.84,0-.46.16-.81.47-1.06.31-.25.71-.37,1.19-.37.19,0,.39.03.58.09.19.06.36.15.48.27-.04.09-.11.29-.2.61h-.07c-.08-.2-.2-.36-.36-.48-.16-.12-.35-.17-.57-.17-.17,0-.33.04-.47.11-.14.07-.26.18-.34.31-.08.13-.13.28-.13.46,0,.3.09.53.28.67.19.14.48.29.88.45.4.16.7.32.9.5.2.18.3.44.3.8,0,.26-.05.5-.14.71-.09.21-.23.39-.4.54-.17.15-.37.26-.59.34-.22.08-.46.11-.72.11-.2,0-.42-.04-.67-.12-.25-.08-.43-.18-.55-.32.06-.16.11-.38.14-.66"/>
      <path class="cls-5" d="m72.32,13.91l2.13-.46s0,.09,0,.13c0,.05,0,.08.02.11,0,.03.02.07.04.11.02.05.03.09.04.12-.2.01-.4.04-.6.07-.21.03-.44.08-.71.13l.26,1.2.58-.13c.15-.03.26-.06.34-.08.08-.02.19-.06.34-.12,0,.04,0,.09,0,.13,0,.05,0,.08.02.11,0,.03.02.06.04.11.02.05.03.09.04.12-.09,0-.21.02-.34.04-.13.02-.25.04-.36.06l-.58.13.31,1.42c.27-.06.5-.11.7-.17.2-.06.39-.12.58-.19,0,.04,0,.09,0,.13,0,.05,0,.08.02.11,0,.03.02.07.04.12.02.05.03.09.04.12l-2.13.46-.83-3.81Z"/>
      <path class="cls-5" d="m77.86,15.55c.12-.33.23-.63.32-.89.12-.32.23-.64.34-.95.15-.44.26-.78.33-1,.05,0,.1,0,.14,0,.04,0,.07,0,.1,0,.03,0,.07-.01.12-.03.05-.02.09-.03.12-.04.11.47.23.95.34,1.42.18.74.28,1.16.31,1.27.09.35.2.73.33,1.15-.06,0-.14.01-.26.02-.11,0-.19,0-.22.01-.07,0-.15.02-.26.04-.11.02-.17.04-.2.04-.04-.36-.12-.78-.24-1.25-.12-.48-.23-.93-.33-1.36-.11.31-.22.62-.32.92-.11.31-.21.61-.32.92-.07.21-.17.52-.3.93-.06,0-.11,0-.14,0-.02,0-.04,0-.08.02-.16-.26-.32-.51-.49-.76-.2-.31-.38-.58-.53-.81-.18-.28-.37-.55-.55-.83,0,.44,0,.75,0,.95,0,.32,0,.62.02.89.01.27.03.53.06.77h-.16s-.08,0-.11,0c-.06,0-.1.02-.14.03-.04.01-.08.02-.12.03.02-.38.04-.79.05-1.22,0-.24.02-.68.03-1.31,0-.63.02-1.11.02-1.44.05,0,.1,0,.14,0,.04,0,.07,0,.1,0,.05,0,.1-.02.14-.03.04-.01.07-.02.1-.03.12.2.3.48.53.83.18.28.36.56.55.84.18.28.37.56.56.84"/>
      <path class="cls-5" d="m82.68,12.61c-.41.03-.71.21-.89.53-.2.34-.28.82-.23,1.44.03.42.15.76.36,1.02.24.31.56.44.96.41.42-.03.72-.24.92-.63.18-.35.25-.78.21-1.29-.03-.42-.15-.77-.36-1.04-.24-.32-.57-.47-.97-.44m2.28,1.52c.05.58-.12,1.08-.49,1.5-.39.44-.92.69-1.6.74-.64.05-1.17-.09-1.58-.42-.41-.33-.64-.81-.69-1.45-.05-.59.11-1.09.47-1.5.38-.43.92-.67,1.61-.73.74-.06,1.31.13,1.72.55.33.34.51.78.55,1.31Z"/>
      <path class="cls-5" d="m87.19,12.54l.12,3.52c-.06,0-.12,0-.16,0-.17-.01-.26-.01-.27-.01-.06,0-.15,0-.25.02-.1.01-.16.02-.18.02l-.12-3.52c-.2,0-.38.02-.53.04-.15.02-.33.04-.53.08,0-.05.01-.1.01-.14,0-.04,0-.08,0-.11,0-.05,0-.1-.02-.14,0-.04-.02-.07-.02-.1l2.95-.1c0,.05-.01.1-.02.14,0,.04,0,.07,0,.1,0,.06,0,.1.02.14,0,.04.02.07.02.1-.28-.02-.45-.04-.51-.04-.17,0-.35-.01-.52,0"/>
      <path class="cls-5" d="m88.87,16.03l.11-3.92c.06,0,.15,0,.25.02.1.01.16.02.18.02.07,0,.12,0,.16,0,.16,0,.25-.01.27-.01l-.11,3.92c-.06,0-.12,0-.16-.01-.16-.02-.25-.03-.27-.03-.06,0-.15,0-.25,0-.1,0-.16,0-.18,0"/>
      <path class="cls-5" d="m92.93,12.51c-.41-.03-.73.1-.97.39-.25.3-.4.77-.44,1.39-.03.42.04.77.2,1.06.19.34.49.52.89.55.42.03.75-.13,1.01-.48.23-.32.36-.74.4-1.25.03-.42-.04-.78-.2-1.09-.19-.36-.49-.55-.89-.58m2.03,1.84c-.04.58-.28,1.05-.7,1.4-.45.38-1.01.54-1.69.49-.64-.05-1.14-.26-1.5-.65-.36-.39-.51-.9-.47-1.54.04-.59.27-1.06.69-1.41.44-.37,1.01-.53,1.71-.48.74.05,1.28.32,1.62.8.27.39.39.85.35,1.38Z"/>
      <path class="cls-5" d="m95.5,16.34l.45-3.89.56.07c.22.3.46.62.71.97.14.19.39.52.73.99.34.47.58.8.71.99l.3-2.66.22.04h.23s-.45,3.91-.45,3.91l-.48-.06c-.28-.39-.56-.79-.84-1.19-.29-.41-.57-.79-.84-1.15l-.55-.72-.32,2.77-.22-.05h-.23Z"/>
      <path class="cls-5" d="m100.9,15.55l1.03.18-.27-1.4-.76,1.22Zm1.1.55l-1.31-.23c-.18.32-.31.56-.39.71-.08.15-.15.28-.21.4l-.26-.08-.28-.02,2.3-3.63.21.05.22.02.88,4.19c-.07-.01-.16-.03-.27-.06-.12-.03-.18-.05-.21-.05-.07-.01-.16-.02-.28-.03-.12-.01-.19-.02-.21-.02-.04-.28-.06-.49-.09-.64-.03-.23-.07-.43-.11-.61Z"/>
      <path class="cls-5" d="m105.37,13.95l-.75,3.4c.24.05.44.09.62.12.17.03.4.06.68.09-.02.04-.03.08-.05.12-.02.04-.03.08-.03.11,0,.03-.01.07-.02.12,0,.05,0,.1-.01.13l-2.12-.47.84-3.81c.06.01.14.04.24.07.1.03.15.05.17.05.06.01.12.02.16.03.16.02.25.03.27.04"/>
      <path class="cls-7" d="m128.31,23.48c-.35-.21-.69-.24-1.04-.09-.36.16-.7.51-1.02,1.05-.22.36-.32.71-.3,1.04.02.39.2.69.54.89.36.21.73.22,1.11.02.35-.18.66-.49.92-.94.22-.36.32-.72.32-1.06,0-.41-.19-.71-.53-.92m.97,2.56c-.3.5-.72.81-1.26.94-.57.13-1.15.02-1.73-.33-.55-.33-.9-.75-1.05-1.26-.14-.51-.05-1.04.28-1.59.3-.51.72-.82,1.26-.95.56-.13,1.14-.02,1.74.34.63.38.99.86,1.08,1.45.07.47-.04.93-.31,1.39Z"/>
      <path class="cls-7" d="m131.68,29.21l.04.07-.38.34c-.18-.02-.37-.07-.55-.14-.18-.07-.36-.17-.53-.28-.52-.35-.85-.77-.99-1.28-.15-.53-.06-1.03.26-1.51.39-.59.88-.93,1.47-1,.53-.07,1.08.09,1.63.45.17.11.32.24.47.4.14.15.26.31.35.48-.06.05-.13.12-.21.2-.08.08-.16.15-.23.22l-.07-.04c0-.19-.05-.37-.14-.55-.09-.18-.21-.31-.36-.42-.37-.25-.76-.28-1.16-.1-.35.15-.65.43-.92.82-.28.42-.4.82-.37,1.2.03.38.22.7.59.94.15.1.32.17.52.2.2.04.39.04.57,0"/>
      <path class="cls-7" d="m134.79,31.62l.04.07-.4.3c-.18-.04-.36-.1-.53-.2-.18-.09-.34-.2-.5-.33-.49-.39-.78-.85-.87-1.37-.1-.54.04-1.03.4-1.48.45-.55.97-.84,1.55-.86.54-.02,1.07.18,1.58.6.16.13.3.27.43.44.13.17.23.34.3.51-.06.05-.14.11-.22.17-.09.07-.17.13-.25.2l-.06-.05c.01-.19-.01-.37-.09-.56-.07-.18-.18-.33-.32-.45-.34-.28-.73-.35-1.15-.21-.36.12-.69.36-.99.73-.32.39-.47.78-.48,1.16,0,.38.16.71.5.99.14.11.31.2.5.25.19.06.38.08.56.06"/>
      <path class="cls-7" d="m136.08,31.44l1.55-1.75s.11.1.18.18c.07.08.11.12.12.13.05.04.09.08.12.1.13.1.21.15.22.16l-1.08,1.22-.17.19c-.1.11-.19.22-.28.32-.09.11-.18.22-.25.35-.07.13-.13.23-.16.32-.03.09-.04.2-.03.34.02.24.13.44.32.62.2.18.39.28.58.31.18.02.4-.03.64-.15.11-.05.23-.15.38-.29.14-.14.3-.32.49-.52l1.15-1.3.16.17.19.14-1.35,1.52c-.28.31-.5.53-.67.64-.27.18-.56.24-.88.2-.18-.02-.35-.07-.53-.16-.17-.09-.33-.2-.48-.33-.3-.26-.5-.54-.62-.82-.14-.34-.13-.68.02-1,.05-.1.1-.2.17-.3.07-.1.15-.2.22-.29"/>
      <path class="cls-7" d="m141.41,33.51l-1.1,1.13c.06.06.11.1.14.13.04.03.09.06.16.1.16.09.32.11.49.06.14-.04.28-.13.42-.26.15-.16.25-.32.27-.5.03-.17-.01-.31-.12-.42l-.25-.25Zm-1.32,1.36l-1.2,1.23s-.08-.08-.11-.12c-.11-.13-.16-.2-.17-.21-.05-.05-.11-.1-.19-.16-.08-.06-.13-.1-.14-.11l2.75-2.81,1.01.98c.58.57.65,1.09.2,1.55-.33.34-.69.47-1.06.37-.3-.08-.66-.32-1.08-.72Z"/>
      <path class="cls-7" d="m141.96,37.05l.7.78.65-1.27-1.35.49Zm.53,1.11l-.89-.99c-.34.14-.59.25-.75.32-.16.07-.3.13-.41.19l-.16-.22-.21-.18,4.06-1.45.13.17.16.15-1.89,3.85c-.05-.05-.1-.12-.18-.22-.07-.1-.11-.15-.13-.17-.05-.05-.11-.12-.2-.2-.09-.08-.14-.13-.15-.15.15-.24.25-.43.33-.55.12-.2.21-.38.29-.55Z"/>
      <path class="cls-7" d="m146.51,39.05l-2.73,2.23c-.04-.05-.07-.09-.1-.13-.09-.14-.14-.21-.15-.22-.04-.05-.1-.11-.17-.19-.07-.07-.11-.12-.12-.13l2.73-2.23c-.13-.16-.24-.29-.35-.4-.1-.11-.23-.24-.38-.38.05-.03.09-.05.12-.07.03-.02.06-.04.09-.06.04-.03.07-.07.1-.1.03-.03.05-.06.07-.08l1.87,2.29s-.09.05-.12.07c-.04.02-.06.04-.08.06-.05.04-.08.07-.11.1-.03.03-.05.06-.07.08-.15-.24-.24-.38-.27-.43-.1-.14-.2-.28-.31-.42"/>
      <path class="cls-7" d="m144.8,42.52l3.05-2.49c.04.05.09.12.15.21.06.09.09.14.1.15.04.05.08.09.11.12.12.12.18.18.19.19l-3.05,2.49c-.04-.05-.07-.09-.1-.13-.09-.14-.14-.21-.15-.22-.04-.05-.1-.11-.17-.19-.07-.07-.11-.12-.12-.13"/>
      <path class="cls-7" d="m150.11,43.34c-.24-.33-.55-.49-.92-.48-.39,0-.84.2-1.35.58-.34.25-.56.53-.68.84-.13.36-.08.71.16,1.03.25.33.59.48,1.02.45.39-.03.8-.2,1.21-.51.34-.25.57-.54.7-.86.15-.38.1-.73-.14-1.05m-.09,2.74c-.47.34-.98.47-1.53.38-.58-.09-1.07-.42-1.48-.97-.38-.52-.54-1.04-.48-1.56.06-.52.35-.97.87-1.36.48-.35.98-.48,1.53-.39.57.09,1.06.42,1.47.98.44.59.59,1.18.44,1.75-.12.46-.39.85-.82,1.16Z"/>
      <path class="cls-7" d="m148.8,47.79l3.26-2.17.31.47c-.09.36-.18.75-.28,1.17-.05.23-.15.63-.28,1.2-.14.57-.24.96-.29,1.18l2.23-1.48.11.2.14.18-3.27,2.17-.27-.41c.12-.47.24-.94.37-1.41.13-.49.24-.95.33-1.38l.2-.88-2.32,1.54-.1-.2-.14-.18Z"/>
      <path class="cls-7" d="m152.84,51.35l.54.9.88-1.12-1.42.22Zm.3,1.19l-.68-1.15c-.36.07-.62.13-.79.16-.17.04-.31.07-.44.1l-.12-.24-.16-.22,4.26-.63.1.2.13.18-2.6,3.41c-.04-.06-.08-.14-.13-.25-.05-.11-.09-.17-.1-.19-.04-.06-.09-.14-.16-.23-.07-.1-.11-.16-.12-.17.19-.21.33-.37.43-.48.15-.18.28-.34.39-.48Z"/>
      <path class="cls-7" d="m156.88,53.77l-3.08,1.64c.12.22.22.4.31.55.09.15.22.34.38.58-.04.01-.08.03-.13.04-.04.02-.08.03-.11.05-.02.01-.06.03-.1.07-.04.03-.08.06-.1.07l-1.02-1.91,3.44-1.83c.03.06.07.13.11.23.04.09.06.15.07.16.03.06.06.1.08.14.09.14.14.21.15.23"/>
      <path class="cls-5" d="m159.23,71.25l3.81-.96c.02.06.03.15.05.25.02.1.03.16.03.18.02.06.03.11.05.15.06.16.09.24.09.26l-3.81.96c-.02-.06-.03-.12-.03-.16-.02-.16-.04-.25-.04-.27-.02-.06-.04-.14-.08-.24-.03-.1-.05-.15-.06-.17"/>
      <path class="cls-5" d="m159.71,73.07l3.84-.78.11.56c-.22.3-.45.63-.7.98-.14.2-.37.53-.71,1-.34.47-.58.8-.72.98l2.63-.53.03.23.06.22-3.85.78-.09-.48c.29-.39.58-.78.87-1.16.3-.4.58-.79.83-1.15l.52-.74-2.73.55-.02-.23-.06-.22Z"/>
      <path class="cls-5" d="m164.2,78.49l-3.49.49c0-.06-.02-.12-.02-.16,0-.16-.01-.25-.02-.27,0-.06-.03-.15-.05-.25-.02-.1-.04-.16-.04-.17l3.49-.49c-.03-.2-.06-.37-.09-.52-.03-.15-.08-.32-.14-.52.05,0,.1,0,.14,0,.04,0,.08,0,.11,0,.05,0,.1-.02.14-.03.04-.01.07-.02.1-.03l.41,2.92c-.05,0-.1,0-.14,0-.04,0-.07,0-.1,0-.06,0-.1.02-.14.03-.04.01-.07.02-.1.03,0-.28-.01-.45-.01-.51,0-.17-.03-.35-.05-.52"/>
      <path class="cls-5" d="m164.77,79.76l.21,2.17s-.09,0-.13,0c-.05,0-.09,0-.12,0-.03,0-.07.01-.12.02-.05.01-.09.02-.12.03,0-.2,0-.4,0-.61,0-.21-.02-.45-.05-.72l-1.23.12.06.59c.01.15.03.26.04.34.01.08.04.2.08.35-.04,0-.09,0-.13,0-.05,0-.08,0-.11,0-.03,0-.07.01-.12.02-.05.01-.09.02-.12.03,0-.09,0-.21,0-.34,0-.14,0-.26-.02-.36l-.06-.59-1.44.14c.03.27.05.51.09.71.03.21.07.41.12.6-.04,0-.09,0-.13,0-.05,0-.09,0-.12,0-.03,0-.07.01-.12.02-.05.01-.09.02-.12.03l-.21-2.17,3.88-.37Z"/>
      <path class="cls-5" d="m165.14,83.66l-3.48.18c.01.24.03.45.05.62.02.17.05.4.1.68-.04,0-.09,0-.13-.01-.05,0-.08,0-.11,0-.03,0-.07,0-.12.02-.05,0-.09.02-.13.02l-.11-2.17,3.89-.2c0,.06,0,.15,0,.25,0,.1,0,.16,0,.18,0,.06,0,.12.01.16.02.16.04.25.04.27"/>
      <path class="cls-5" d="m165.3,86.68l-3.49.03c0,.24,0,.45.02.63.01.17.04.4.07.68-.04,0-.09-.01-.13-.02-.05,0-.08,0-.11,0-.03,0-.07,0-.12.01-.05,0-.1.01-.13.02l-.02-2.17,3.9-.03c0,.06,0,.15-.01.25,0,.1-.01.16-.01.18,0,.07,0,.12,0,.16.02.16.03.25.03.27"/>
      <path class="cls-5" d="m165.33,88.68l.02,2.18s-.09-.01-.13-.02c-.05,0-.08,0-.11,0-.03,0-.07,0-.12.01-.05,0-.1.01-.13.02.03-.2.04-.4.06-.6.01-.21.02-.45.02-.72h-1.23s0,.61,0,.61c0,.15,0,.26.01.35,0,.08.02.2.05.36-.04,0-.09-.01-.13-.02-.05,0-.08,0-.11,0-.03,0-.07,0-.12.01-.05,0-.1.01-.13.02.01-.09.02-.21.03-.34.01-.14.01-.26.01-.36v-.6s-1.46.01-1.46.01c0,.27.01.51.02.72.02.21.04.41.07.6-.04,0-.09-.01-.13-.02-.05,0-.08,0-.11,0-.03,0-.07,0-.12.01-.05,0-.1.01-.13.02l-.02-2.18,3.9-.03Z"/>
      <path class="cls-5" d="m161.84,94.65l-.04.07-.48-.15c-.07-.17-.13-.35-.16-.55-.03-.2-.04-.4-.03-.6.03-.62.23-1.13.6-1.51.38-.39.86-.57,1.44-.54.71.04,1.25.29,1.61.76.33.43.48.97.44,1.63-.01.2-.05.4-.1.61-.06.2-.14.38-.24.55-.08-.02-.17-.05-.27-.08-.11-.03-.21-.06-.31-.08v-.08c.17-.1.3-.23.41-.4.11-.17.16-.34.17-.52.02-.44-.15-.79-.51-1.05-.31-.22-.7-.35-1.17-.37-.5-.03-.91.07-1.23.29-.32.22-.48.55-.51.98-.01.18.02.36.09.55.07.19.16.35.28.49"/>
      <path class="cls-5" d="m164.44,97.31l-3.5-.34c0-.06.01-.12.02-.16.03-.16.05-.25.05-.27,0-.07,0-.15.01-.25,0-.1,0-.16,0-.18l3.5.34c.02-.2.03-.38.03-.53,0-.15,0-.33,0-.54.05.01.1.02.14.03.04,0,.07.02.1.02.05,0,.1,0,.14,0,.04,0,.07,0,.1,0l-.28,2.93c-.05-.01-.1-.02-.14-.03-.04,0-.07-.02-.1-.02-.06,0-.11,0-.15,0-.04,0-.07,0-.1,0,.06-.27.1-.44.1-.49.03-.17.06-.34.07-.52"/>
      <path class="cls-5" d="m162.34,98.38l2.31.32c0,.06-.03.15-.05.25-.02.1-.04.16-.04.17,0,.06-.02.12-.02.16,0,.16-.01.25-.02.27l-1.61-.22-.25-.04c-.14-.02-.29-.04-.43-.06-.14-.02-.28-.02-.43-.02-.15,0-.26.02-.36.05-.09.02-.19.08-.3.16-.19.15-.3.36-.33.61-.04.27-.02.49.07.65.08.16.24.32.48.45.1.06.25.11.45.15.2.04.43.08.71.12l1.72.24-.05.22v.23s-2.03-.28-2.03-.28c-.42-.06-.71-.13-.9-.21-.29-.13-.51-.33-.66-.62-.09-.16-.14-.33-.16-.52-.02-.19-.02-.39.01-.59.05-.39.17-.72.34-.97.21-.31.49-.48.84-.54.11-.02.22-.02.35-.02.12,0,.25.01.36.03"/>
      <path class="cls-5" d="m161.42,103.51l-.19,1.03,1.4-.26-1.22-.77Zm-.56,1.09l.24-1.31c-.32-.18-.55-.32-.7-.4-.15-.08-.28-.15-.4-.21l.08-.26.02-.28,3.62,2.33-.06.21-.02.22-4.2.85c.01-.07.03-.16.06-.27.03-.11.05-.18.05-.21.01-.07.03-.16.04-.28.01-.12.02-.19.02-.21.28-.03.49-.06.64-.08.23-.03.43-.07.61-.1Z"/>
      <path class="cls-5" d="m162.83,108.03l-3.38-.84c-.06.24-.1.44-.13.61-.03.17-.06.4-.1.68-.04-.02-.08-.03-.12-.05-.04-.02-.08-.03-.11-.04-.03,0-.07-.01-.12-.02-.05,0-.09-.01-.13-.01l.52-2.1,3.78.94c-.02.06-.04.14-.08.24-.03.1-.05.15-.06.17-.02.06-.03.12-.03.16-.03.16-.04.25-.04.27"/>
      <path class="cls-7" d="m156.7,124.07l-1.06,1.91s-.07-.05-.1-.08c-.04-.03-.07-.05-.1-.06-.02-.01-.06-.03-.11-.05-.05-.02-.09-.04-.12-.05.12-.16.23-.32.35-.5.11-.17.24-.38.37-.62l-1.08-.6-.29.52c-.07.13-.13.23-.16.31-.03.07-.08.18-.14.33-.03-.03-.07-.05-.11-.08-.04-.03-.07-.05-.1-.06-.02-.01-.06-.03-.11-.05-.05-.02-.09-.03-.12-.05.06-.07.12-.17.2-.28.08-.11.14-.22.19-.31l.29-.52-1.27-.71c-.13.24-.24.45-.33.64-.09.19-.17.37-.24.56-.03-.03-.07-.05-.1-.08-.04-.03-.07-.05-.1-.06-.02-.01-.06-.03-.11-.05-.05-.02-.09-.03-.12-.05l1.06-1.91,3.41,1.9Z"/>
      <path class="cls-7" d="m151.93,124.74l3.33,2.06-.3.48c-.37.07-.76.15-1.18.23-.23.05-.63.13-1.2.24-.57.11-.97.18-1.19.22l2.28,1.41-.13.19-.11.2-3.34-2.07.26-.41c.47-.09.95-.17,1.43-.25.49-.09.96-.18,1.39-.27l.88-.19-2.36-1.46.14-.18.11-.2Z"/>
      <path class="cls-7" d="m148.61,129.88s.07-.07.09-.1c.03-.03.05-.06.06-.08.03-.05.06-.09.07-.13.02-.04.03-.07.04-.09.41.11.87.23,1.37.35.5.12.95.23,1.36.32.29.06.75.16,1.37.3-.04.06-.1.14-.18.23-.08.09-.12.15-.13.17-.04.06-.09.14-.15.25-.06.1-.1.17-.11.19-.39-.13-.87-.26-1.44-.4-.49-.12-.98-.25-1.47-.37.24.38.43.66.56.85.19.28.38.56.57.83.17.24.37.51.6.81l-.17.21-.13.23c-.25-.4-.5-.8-.76-1.2-.26-.4-.51-.79-.76-1.17-.27-.4-.54-.79-.81-1.17"/>
      <path class="cls-7" d="m147.49,131.49l3.13,2.38c-.04.05-.09.12-.17.19-.07.07-.11.12-.12.13-.04.05-.07.1-.09.13-.09.14-.13.22-.14.23l-3.13-2.38c.04-.05.07-.09.1-.12.11-.12.17-.19.18-.2.04-.05.09-.12.14-.21.05-.09.09-.14.1-.15"/>
      <path class="cls-7" d="m148.75,135.85l-1.22-.93s-.04.04-.05.06c-.01.02-.03.04-.04.06-.3.39-.23.76.21,1.09.07.06.15.11.24.15.16.08.31.09.45.02.09-.05.2-.15.31-.31l.1-.13Zm-2.36-2.88l3.13,2.38-.74.97c-.16.21-.28.36-.36.45-.08.09-.18.16-.29.22-.34.16-.66.12-.95-.1-.22-.16-.35-.37-.39-.6-.05-.24,0-.48.11-.73-.3-.04-.69-.08-1.18-.11-.33-.02-.57-.04-.72-.05l-.42-.04c.04-.06.11-.13.19-.23.08-.09.13-.15.15-.17.04-.06.1-.14.17-.24.07-.1.11-.17.12-.19l1.37.19.73.09.02-.03-1.46-1.11c.04-.05.07-.09.1-.12.11-.12.17-.19.18-.2.04-.05.09-.12.14-.21.06-.09.09-.14.1-.15Z"/>
      <path class="cls-7" d="m145.64,139.61c.27-.31.36-.64.27-1-.09-.38-.38-.78-.85-1.19-.32-.28-.64-.43-.97-.48-.38-.05-.71.08-.97.38-.27.31-.35.68-.22,1.09.12.38.37.73.76,1.07.32.28.65.44.99.49.4.06.73-.06,1-.36m-2.69.52c-.44-.38-.67-.85-.7-1.41-.03-.58.18-1.13.62-1.65.42-.49.9-.76,1.42-.81.52-.05,1.03.13,1.51.55.45.39.68.85.71,1.4.03.57-.18,1.12-.64,1.65-.49.56-1.02.83-1.61.81-.47-.02-.91-.2-1.31-.55Z"/>
      <path class="cls-7" d="m141,139.27l2.69,2.84-.41.39c-.37-.03-.77-.05-1.2-.08-.24-.01-.65-.04-1.23-.08-.58-.04-.98-.07-1.21-.09l1.84,1.95-.18.15-.16.17-2.7-2.85.36-.33c.48.04.96.08,1.44.12.5.04.97.07,1.41.1l.9.05-1.91-2.02.19-.14.16-.17Z"/>
      <path class="cls-7" d="m136.99,144.67c.08.34.16.65.22.92.08.33.16.66.24.98.12.45.21.79.28,1.02-.05.03-.09.05-.12.07-.04.02-.06.04-.08.06-.02.02-.05.05-.08.09-.03.04-.06.08-.08.1-.36-.33-.71-.67-1.07-.99-.56-.52-.88-.81-.96-.88-.27-.24-.57-.5-.91-.78.04-.04.11-.09.2-.16.09-.07.15-.11.17-.13.05-.04.11-.1.19-.18.08-.08.12-.13.15-.14.24.28.53.58.89.91.36.33.7.65,1.03.95-.08-.32-.16-.63-.24-.95-.08-.31-.16-.63-.25-.94-.06-.21-.14-.53-.26-.94.05-.03.09-.06.11-.08.01,0,.03-.03.05-.06.28.12.55.25.83.37.34.15.64.28.88.38.31.13.61.26.92.39-.24-.36-.41-.63-.52-.79-.18-.27-.35-.51-.51-.73-.16-.22-.32-.42-.48-.61.05-.03.1-.06.13-.09.04-.02.07-.05.09-.07.04-.04.08-.07.1-.1.03-.03.05-.06.08-.09.19.33.4.68.64,1.05.13.21.36.58.7,1.1.34.53.6.93.78,1.21-.05.03-.09.05-.12.07-.03.02-.06.04-.08.06-.04.04-.07.07-.1.1-.02.03-.04.06-.06.08-.21-.1-.51-.23-.9-.4-.3-.13-.61-.26-.92-.4-.31-.13-.62-.26-.93-.39"/>
      <path class="cls-7" d="m136.3,148.7l-1.72,1.33s-.04-.08-.06-.12c-.02-.04-.05-.07-.06-.1-.02-.02-.04-.05-.08-.09-.04-.04-.07-.07-.09-.09.17-.1.34-.21.51-.32.17-.12.36-.26.58-.43l-.75-.97-.47.36c-.12.09-.21.16-.27.22-.06.05-.15.14-.26.25-.02-.04-.04-.08-.06-.12-.02-.04-.04-.07-.06-.1-.02-.02-.04-.05-.08-.09-.04-.04-.07-.07-.09-.09.08-.05.18-.11.29-.18.11-.07.21-.14.3-.21l.47-.36-.89-1.15c-.21.17-.4.32-.55.46-.16.14-.3.28-.44.42-.02-.04-.04-.08-.07-.12-.02-.04-.05-.07-.06-.1-.02-.02-.04-.05-.08-.09-.04-.04-.07-.07-.09-.09l1.72-1.33,2.39,3.08Z"/>
      <path class="cls-7" d="m131.62,147.38l2.25,3.2-.46.33c-.36-.08-.75-.16-1.17-.25-.23-.05-.63-.13-1.2-.25-.57-.12-.96-.21-1.18-.27l1.54,2.19-.2.12-.18.14-2.25-3.21.4-.28c.47.11.94.22,1.41.33.49.11.95.21,1.38.3l.89.18-1.59-2.27.2-.11.18-.14Z"/>
      <path class="cls-7" d="m128.47,153.71l-1.88-2.98c.05-.03.1-.06.14-.08.15-.08.23-.12.24-.13.06-.03.12-.08.21-.15.08-.06.13-.1.14-.11l1.88,2.98c.17-.11.32-.21.44-.3.12-.09.26-.2.42-.34.02.05.04.09.06.13.02.04.03.07.05.09.03.04.06.08.09.11.03.03.05.06.07.08l-2.49,1.57s-.04-.09-.06-.13c-.02-.04-.03-.07-.05-.09-.03-.05-.06-.09-.09-.12-.03-.03-.05-.06-.07-.08.26-.12.41-.19.46-.22.15-.08.31-.17.45-.26"/>
      <path class="cls-7" d="m125.73,153.05l-.91.51,1.1.91-.19-1.42Zm-1.19.27l1.16-.66c-.06-.36-.11-.63-.14-.8-.03-.17-.06-.32-.09-.44l.25-.11.23-.16.53,4.27-.2.09-.18.12-3.35-2.68c.06-.03.14-.08.25-.13.11-.05.17-.08.19-.09.06-.03.14-.08.24-.15.1-.07.16-.1.18-.12.21.19.36.34.47.44.17.16.33.29.47.4Z"/>
      <path class="cls-7" d="m123.26,157.09l-1.57-3.12c-.22.11-.4.21-.55.3-.15.09-.34.21-.58.37-.01-.04-.03-.08-.04-.13-.02-.04-.03-.08-.04-.11-.01-.02-.03-.06-.06-.1-.03-.04-.05-.08-.07-.1l1.93-.98,1.76,3.48c-.06.03-.14.06-.23.1-.1.04-.15.06-.16.07-.06.03-.1.06-.14.08-.14.09-.21.14-.23.14"/>
      <path class="cls-5" d="m100.8,162.27l-.32-1.87c.06-.01.12-.02.16-.02.16-.01.25-.02.27-.02.06-.01.15-.03.25-.06.1-.03.16-.04.17-.04l.67,3.87-2.15.37s0-.09,0-.13c0-.05,0-.08-.01-.11,0-.03-.02-.06-.03-.12-.02-.05-.03-.09-.04-.12.26-.02.47-.03.63-.05.17-.02.39-.05.68-.1l-.21-1.21-.6.1c-.13.02-.23.04-.29.06-.06.02-.19.05-.38.11,0-.04,0-.09,0-.13,0-.05,0-.08-.01-.11,0-.03-.01-.07-.03-.12-.02-.05-.03-.09-.04-.12.12,0,.24-.02.36-.03.12,0,.23-.02.33-.04l.59-.1Z"/>
      <path class="cls-5" d="m98.41,160.74l.51,3.89c-.06,0-.15.01-.25.02-.1,0-.16,0-.18,0-.06,0-.12.02-.16.03-.16.04-.25.05-.26.06l-.51-3.89c.06,0,.12-.01.16-.02.17,0,.25,0,.27-.01.06,0,.15-.02.25-.05.1-.02.16-.04.17-.04"/>
      <path class="cls-5" d="m96.57,160.99l.33,3.9-.56.05c-.28-.25-.57-.53-.89-.81-.18-.16-.48-.43-.91-.82-.43-.39-.73-.67-.89-.83l.23,2.67h-.23s-.23.04-.23.04l-.33-3.91.48-.04c.35.33.71.66,1.06,1,.37.34.72.66,1.05.96l.68.6-.24-2.78h.23s.23-.03.23-.03Z"/>
      <path class="cls-5" d="m91.47,162.89l-1.05.03.55,1.32.5-1.34Zm-1.19-.32l1.33-.03c.11-.35.2-.61.25-.77.05-.17.09-.31.12-.43l.27.02.27-.04-1.53,4.02h-.22s-.22.01-.22.01l-1.7-3.93c.07,0,.16,0,.28,0,.12,0,.19,0,.21,0,.07,0,.16,0,.28-.02.12-.01.19-.02.21-.02.09.27.16.47.21.61.08.22.15.41.23.58Z"/>
      <path class="cls-5" d="m88.3,161.39l-.07,3.92h-.57c-.25-.29-.52-.59-.8-.91-.16-.17-.44-.48-.82-.91-.39-.43-.65-.74-.8-.91l-.05,2.68-.23-.02-.23.02.07-3.93h.49c.32.38.64.74.95,1.11.33.38.64.73.94,1.06l.61.66.05-2.78.23.03h.23Z"/>
      <path class="cls-5" d="m80.8,161.77l-.07-.04.16-.48c.17-.07.35-.12.55-.15.2-.03.4-.04.6-.02.62.04,1.12.24,1.5.61.39.38.57.86.53,1.44-.04.71-.3,1.24-.77,1.6-.43.32-.98.47-1.64.43-.2-.01-.4-.05-.6-.11-.2-.06-.38-.14-.54-.24.02-.07.05-.17.08-.27.03-.11.06-.21.08-.31h.08c.1.17.23.3.39.41.16.11.34.17.52.18.44.03.79-.14,1.06-.5.23-.31.35-.7.38-1.17.03-.5-.06-.91-.28-1.23-.22-.32-.54-.49-.98-.51-.18-.01-.36.02-.55.08-.19.07-.35.16-.5.28"/>
      <path class="cls-5" d="m80.03,160.86l-.48,3.9c-.06,0-.15-.02-.25-.04-.1-.02-.16-.03-.17-.04-.06,0-.12-.01-.16-.01-.16,0-.25-.01-.27-.01l.48-3.9c.06,0,.12.02.16.03.16.04.25.05.26.05.06,0,.15.01.25.02.1,0,.16,0,.18,0"/>
      <path class="cls-5" d="m77.24,162.04l-1.03-.17.28,1.41.75-1.23Zm-1.11-.54l1.32.22c.18-.32.31-.56.39-.71.08-.15.15-.29.2-.4l.26.07.28.02-2.28,3.65-.21-.06-.22-.02-.92-4.19c.07.01.16.03.27.06.12.03.18.05.21.05.07.01.16.02.28.03.12,0,.19.02.21.02.04.28.07.49.09.64.03.23.07.43.11.61Z"/>
      <path class="cls-5" d="m72.74,163.63l.73-3.41c-.24-.05-.44-.09-.62-.12-.17-.03-.4-.05-.68-.08.02-.04.03-.08.05-.12.01-.04.03-.08.03-.11,0-.03.01-.07.01-.12,0-.05,0-.1,0-.13l2.12.46-.82,3.81c-.06-.01-.14-.04-.24-.07-.1-.03-.16-.05-.17-.05-.06-.01-.12-.02-.16-.03-.16-.02-.25-.03-.27-.03"/>
      <path class="cls-7" d="m38.29,145.39l.07.06c-.06.16-.07.3-.05.44.03.14.1.26.22.36.16.14.32.2.46.19.14-.01.27-.08.38-.21.13-.16.14-.39.02-.71-.22-.58-.33-.88-.34-.9-.08-.38,0-.71.25-.99.24-.28.54-.41.91-.41.37,0,.72.15,1.06.44.13.11.24.23.33.36.09.13.16.27.21.42-.14.09-.25.17-.33.23-.08.06-.17.13-.27.21l-.08-.07c.09-.18.13-.35.09-.53-.04-.17-.13-.33-.29-.46-.14-.12-.3-.19-.46-.19-.16,0-.31.06-.43.21-.16.18-.18.43-.06.75.11.29.23.58.34.86.08.37,0,.69-.26.99-.23.26-.49.41-.8.43-.34.02-.66-.1-.98-.37-.15-.12-.26-.26-.36-.42-.09-.15-.14-.28-.15-.38.1-.06.19-.11.25-.14.11-.07.2-.13.25-.17"/>
      <path class="cls-7" d="m35.69,143.64c.3.28.63.38.99.31.38-.08.79-.35,1.22-.8.29-.3.46-.62.52-.95.07-.38-.05-.71-.34-.99-.3-.29-.66-.37-1.08-.26-.38.1-.75.34-1.1.71-.29.31-.47.63-.53.97-.08.4.03.74.32,1.01m-.41-2.71c.4-.42.88-.64,1.44-.65.59,0,1.13.22,1.62.69.47.44.72.93.75,1.45.03.52-.17,1.02-.61,1.49-.41.43-.88.65-1.43.66-.57,0-1.12-.23-1.62-.71-.54-.51-.79-1.06-.75-1.65.04-.47.24-.9.6-1.29Z"/>
      <path class="cls-7" d="m33.65,137.18l-.02-.08.45-.23c.17.07.33.16.49.28.16.12.3.26.44.41.41.47.62.97.62,1.5,0,.55-.22,1.01-.65,1.39-.54.47-1.1.66-1.68.58-.53-.08-1.02-.37-1.45-.87-.13-.15-.25-.32-.35-.51-.1-.18-.17-.37-.21-.56.07-.04.15-.08.25-.13.1-.05.19-.1.28-.16l.05.06c-.05.18-.05.37-.01.57.04.19.12.36.24.5.29.33.66.47,1.1.4.38-.06.74-.24,1.1-.55.38-.33.61-.69.68-1.06.07-.38-.03-.73-.32-1.06-.12-.13-.27-.25-.45-.33-.18-.09-.36-.14-.55-.16"/>
      <path class="cls-7" d="m33.63,136.08l-2.96,2.58s-.09-.12-.15-.2c-.06-.08-.09-.13-.11-.14-.04-.05-.08-.09-.11-.12-.12-.11-.19-.17-.2-.19l2.96-2.58s.08.09.1.12c.1.13.15.21.16.22.04.05.1.11.18.18.07.07.12.11.13.12"/>
      <path class="cls-7" d="m30.77,135.07l-.64-.81-.73,1.22,1.38-.41Zm-.45-1.14l.83,1.05c.35-.12.6-.21.76-.27.16-.06.3-.11.42-.16l.14.23.19.2-4.14,1.18-.12-.18-.15-.16,2.13-3.72c.04.05.1.13.16.23.07.1.11.16.12.18.04.05.1.12.19.21.08.09.13.14.14.16-.16.23-.28.41-.36.53-.13.19-.24.37-.33.53Z"/>
      <path class="cls-7" d="m26.37,133.27l2.83-2.03c-.14-.2-.27-.37-.38-.5-.11-.14-.26-.31-.45-.52.04-.02.08-.04.12-.06.04-.02.07-.04.1-.06.02-.02.05-.04.09-.08.04-.04.07-.07.09-.09l1.26,1.77-3.17,2.27c-.04-.05-.08-.12-.14-.21-.05-.09-.08-.14-.09-.15-.04-.05-.07-.09-.1-.13-.11-.13-.16-.19-.17-.21"/>
      <path class="cls-5" d="m13.86,103.6l1.55-.26c-.01-.08-.03-.15-.04-.19-.01-.05-.03-.1-.06-.18-.08-.16-.2-.28-.36-.34-.14-.05-.3-.06-.49-.03-.22.04-.39.12-.51.24-.12.12-.17.26-.15.41l.06.35Zm1.86-.32l1.7-.29c.01.06.02.12.02.16.01.16.02.25.02.27.01.06.03.15.06.25.03.1.04.16.04.17l-3.87.66-.24-1.39c-.14-.8.11-1.26.75-1.37.47-.08.83.03,1.07.32.2.24.35.65.45,1.22Z"/>
      <path class="cls-5" d="m16.94,100.65l-3.9.48c0-.06-.01-.15-.01-.25,0-.1,0-.16,0-.18,0-.07-.02-.12-.03-.16-.04-.16-.06-.25-.06-.26l1.54-.19c-.02-.13-.03-.3-.05-.51-.02-.21-.03-.33-.03-.36-.02-.13-.03-.24-.05-.32-.06-.33-.09-.51-.09-.54l-1.54.19c0-.06-.01-.15-.01-.25,0-.1,0-.16,0-.18,0-.06-.02-.12-.03-.16-.04-.16-.06-.25-.06-.26l3.9-.48c0,.07.01.12.01.16,0,.17,0,.25.01.27,0,.07.02.15.04.25.02.1.03.16.04.17l-1.91.24c.02.13.03.24.03.32.02.33.04.51.04.55.02.13.04.3.08.51.04.21.05.33.06.36l1.91-.24c0,.06.01.12.01.16,0,.17,0,.26.01.27,0,.06.02.15.04.25.02.1.03.16.04.17"/>
      <path class="cls-5" d="m16.34,95.38l-1.65.13c-.19.13-.46.31-.8.53-.83.53-1.29.82-1.37.87,0-.07,0-.17,0-.29,0-.12,0-.2,0-.22,0-.07-.02-.17-.04-.29-.02-.12-.03-.2-.03-.22l.98-.56c.19-.11.33-.19.41-.24.13-.08.21-.14.25-.17-.13-.09-.4-.21-.8-.37-.19-.07-.51-.19-.97-.35v-.28s-.04-.27-.04-.27c.22.11.47.22.75.35.25.12.49.24.74.36.22.1.47.21.75.32l1.77-.14c0,.06,0,.12,0,.16,0,.17,0,.26,0,.27,0,.07.02.15.03.25.02.1.03.16.03.18"/>
      <path class="cls-5" d="m12.89,91.02v.09c-.15.06-.27.15-.35.26-.08.11-.12.25-.12.41,0,.21.06.37.17.47.1.1.24.15.41.14.2,0,.39-.16.54-.46.28-.55.43-.84.44-.86.23-.31.53-.47.9-.48.37-.01.67.12.92.39.25.27.38.63.39,1.08,0,.17,0,.33-.04.49-.04.16-.09.31-.17.44-.16-.04-.29-.07-.39-.09-.1-.02-.21-.04-.34-.05v-.11c.19-.05.34-.15.45-.29.1-.14.15-.32.15-.52,0-.19-.06-.35-.17-.47-.11-.12-.26-.18-.45-.18-.24,0-.44.16-.59.46-.14.28-.27.56-.41.83-.22.31-.52.46-.9.48-.35.01-.63-.09-.86-.31-.24-.23-.37-.56-.39-.98,0-.19.02-.37.07-.54.05-.17.11-.29.18-.37.11.04.2.07.28.09.13.03.23.06.29.08"/>
      <path class="cls-5" d="m16.01,89.88l-3.92.13c0-.06,0-.15,0-.25,0-.1,0-.16,0-.18,0-.06,0-.12-.01-.16-.02-.16-.03-.25-.03-.27l3.92-.13c0,.07,0,.12,0,.16-.01.17-.02.26-.01.27,0,.06,0,.15.02.25.01.1.02.16.02.18"/>
      <path class="cls-5" d="m15.41,84.94l.04-.07.49.14c.08.17.13.35.17.54.03.19.05.39.04.6-.02.63-.21,1.13-.57,1.52-.37.4-.84.59-1.42.57-.71-.02-1.25-.26-1.62-.72-.34-.42-.5-.96-.48-1.62,0-.2.04-.4.09-.61.05-.2.13-.39.23-.55.08.02.17.05.27.07.11.03.21.05.31.08v.08c-.16.1-.29.24-.39.41-.1.17-.16.34-.16.53-.01.44.16.79.53,1.04.31.22.71.33,1.18.34.5.02.91-.09,1.22-.32.31-.23.47-.56.48-.99,0-.18-.03-.36-.1-.55-.07-.19-.17-.35-.29-.49"/>
      <path class="cls-5" d="m14.68,83.37l.08-1.04-1.37.4,1.29.64Zm.44-1.15l-.1,1.33c.34.15.58.26.74.32.16.07.3.12.42.17l-.05.27v.28s-3.84-1.93-3.84-1.93l.03-.22v-.22s4.09-1.29,4.09-1.29c0,.07-.02.16-.03.28-.02.12-.03.19-.03.21,0,.07,0,.16,0,.28,0,.12,0,.19,0,.21-.28.06-.48.11-.62.15-.23.06-.42.11-.6.17Z"/>
      <path class="cls-5" d="m12.74,79.07l3.47.41c.03-.24.05-.45.06-.62,0-.17.01-.4.02-.69.04.01.08.02.13.03.04.01.08.02.11.02.03,0,.07,0,.12,0,.05,0,.1,0,.13,0l-.26,2.16-3.87-.46c0-.06.02-.15.05-.25.02-.1.03-.16.04-.17,0-.06.01-.12.01-.16,0-.17,0-.26,0-.27"/>
      <path class="cls-7" d="m26.64,45.07l-.05.07c-.16-.04-.31-.03-.44.01-.13.04-.24.13-.33.27-.12.18-.16.34-.13.48.03.14.11.26.26.35.17.11.41.09.71-.07.54-.29.83-.44.85-.45.36-.12.7-.08,1.01.12.31.2.48.48.52.85.04.37-.06.74-.3,1.11-.09.14-.2.26-.32.38-.12.11-.25.2-.39.26-.11-.13-.2-.22-.26-.3-.07-.07-.15-.15-.25-.24l.06-.09c.19.07.37.08.53.02.17-.06.31-.17.42-.34.11-.16.15-.32.13-.48-.02-.16-.1-.3-.26-.4-.2-.13-.45-.12-.75.04-.27.15-.54.3-.81.45-.35.13-.69.08-1.01-.13-.29-.19-.46-.44-.52-.74-.06-.33.02-.67.25-1.02.11-.16.23-.29.37-.4.14-.11.26-.18.36-.2.07.1.13.17.18.23.09.1.15.18.2.23"/>
      <path class="cls-7" d="m27.44,43.27l1.27.92c.05-.07.09-.12.11-.16.02-.04.05-.09.08-.17.06-.17.06-.33,0-.49-.06-.14-.17-.26-.32-.37-.18-.13-.35-.19-.53-.19-.17,0-.31.06-.39.18l-.21.29Zm1.53,1.1l1.4,1.01c-.04.05-.07.09-.1.13-.11.12-.17.19-.18.2-.04.05-.08.12-.13.21-.05.09-.08.14-.09.15l-3.18-2.29.82-1.14c.48-.66.98-.81,1.5-.43.39.28.56.61.52.99-.03.31-.22.7-.56,1.17Z"/>
      <path class="cls-7" d="m31.89,43.44l-3.08-2.43c.04-.05.1-.11.17-.19.07-.08.11-.12.12-.13.04-.05.07-.09.1-.13.09-.14.14-.21.15-.22l3.08,2.43c-.04.05-.07.09-.1.12-.11.12-.18.18-.18.2-.04.05-.09.12-.14.21-.06.09-.09.14-.1.15"/>
      <path class="cls-7" d="m30.87,38.96l1.14,1.02s.04-.03.05-.05c.02-.02.03-.04.05-.06.33-.37.3-.74-.11-1.11-.07-.06-.15-.12-.23-.17-.16-.09-.31-.11-.45-.05-.1.04-.21.14-.34.29l-.11.12Zm2.13,3.05l-2.93-2.62.81-.91c.18-.2.31-.34.4-.42.09-.08.19-.15.31-.19.35-.13.67-.07.94.17.2.18.32.39.34.63.03.24-.03.48-.17.72.29.06.68.13,1.17.21.32.05.56.09.71.11l.41.07c-.05.05-.12.12-.21.21-.09.09-.14.14-.16.16-.05.05-.11.13-.19.23-.08.1-.12.16-.14.17l-1.35-.29-.72-.15-.03.03,1.37,1.23s-.08.09-.11.11c-.12.11-.19.17-.2.18-.04.05-.09.11-.16.2-.06.08-.1.13-.11.14Z"/>
      <path class="cls-7" d="m35.36,39.32l-2.81-2.75s.11-.1.19-.17c.08-.07.12-.11.13-.12.05-.05.08-.09.11-.12.1-.13.16-.2.17-.21l2.81,2.75s-.08.08-.12.11c-.13.11-.19.16-.21.17-.05.05-.1.11-.16.19-.06.08-.1.13-.11.14"/>
      <path class="cls-7" d="m35.24,34.42l2.52,2.46s-.08.08-.12.11c-.13.11-.2.16-.21.17-.04.05-.1.11-.16.19-.06.08-.1.13-.11.14l-2.52-2.46c-.14.14-.26.27-.36.39-.1.12-.21.26-.33.42-.03-.04-.06-.08-.09-.11-.02-.03-.05-.06-.07-.08-.04-.04-.07-.07-.11-.09-.03-.02-.06-.04-.08-.06l2.05-2.1s.06.08.09.11c.02.03.05.06.07.08.04.04.08.07.11.09.03.02.06.04.08.06-.22.18-.35.28-.39.32-.13.11-.26.23-.38.36"/>
      <path class="cls-7" d="m37.54,34.86l-1.59-1.71s.11-.1.19-.16c.08-.06.13-.1.14-.11.05-.04.09-.08.11-.11.11-.12.17-.19.18-.2l1.11,1.19.17.19c.1.11.2.21.3.31.1.1.21.2.32.28.12.09.22.15.31.19.09.04.2.06.34.06.24,0,.46-.09.65-.27.2-.19.32-.37.36-.55.04-.18.01-.4-.09-.66-.04-.11-.13-.25-.26-.4-.13-.16-.29-.33-.47-.53l-1.18-1.27.18-.14.15-.17,1.39,1.49c.29.31.48.55.57.73.15.28.19.58.12.9-.03.18-.1.35-.21.51-.1.16-.23.31-.38.45-.29.27-.58.45-.87.54-.36.11-.69.07-.99-.11-.09-.05-.19-.12-.28-.2-.1-.08-.18-.16-.27-.25"/>
      <path class="cls-7" d="m41.46,31.42l.8-.68-1.25-.68.46,1.35Zm1.12-.49l-1.02.87c.13.34.23.6.3.76.06.16.12.3.18.42l-.22.15-.19.2-1.34-4.09.18-.13.15-.16,3.8,1.99c-.05.05-.13.1-.22.17-.1.07-.15.11-.17.13-.05.05-.12.11-.2.19-.08.08-.13.13-.15.15-.24-.15-.42-.27-.55-.34-.2-.12-.38-.22-.54-.31Z"/>
      <path class="cls-7" d="m43.21,27.08l2.14,2.76c.19-.15.35-.28.48-.4.13-.12.3-.27.5-.47.02.04.04.08.06.12.02.04.04.07.06.1.02.02.04.05.08.09.04.04.07.07.09.09l-1.71,1.33-2.39-3.08c.05-.04.12-.09.21-.14.09-.05.14-.09.15-.1.05-.04.09-.07.12-.1.12-.11.19-.17.2-.18"/>
      <path class="cls-1" d="m58.05,90.84c1.56-6.43-3.08-11.72-7.91-12.79-9.52-2.11-16.82,8.11-11.17,16.54,4.83,7.22,16.83,5.56,19.08-3.75m-13.44-2.64c-1.41,0-2.8.4-3.19-.74-.37-1.08-.1-2.39.4-3.15,1.77-2.73,3.57-.95,5.22-.27,2.34-3.12,7.03.82,5.07,3.09-.49-.57-.56-6.07-5.16-2.22-.98-.52-2.62-2.38-4.26-.67-.45.47-.91,1.64-.68,2.61.24.99,1.12.72,2.24.59.77-1.98.33-2.31,1.29-2.71.55.91.62,2.4.76,3.56.44-.88.02-.56.88-.79,1.37,0,5.91-.31,6.77.3-.28.42.11.18-.5.37l-6.29.05c-.08.92-.05,2.46-.68,3.16-.43-.32-.08.08-.34-.41-.14-.25-.11-.24-.18-.53l-.57-3.44c-.05.05-.09.13-.12.17-.03.04-.08.12-.12.17l-.55.87Zm2.11,5.74c-1.03-.72-3.53-2.8-3.64-3.92,1.17-.14,1.37,1.24,3.65,3.11,1.12-.46,2.62-2.16,3.36-3.14.69-.92.26-.95,1.22-.92-.01,1.5-3.24,4.48-4.59,4.88Z"/>
      <path class="cls-1" d="m140.18,91.07c1.4-6.26-3.3-11.58-8.21-12.55-6.51-1.29-11.67,3.07-12.69,8.2-1.29,6.47,3.11,11.62,8.21,12.67,6.68,1.36,11.52-3.12,12.69-8.32m-10.19-9.32s.08-.07.1-.17c.01-.1.07-.1.11-.16l.22,1.2c-.02.37-.07.68-.12.97-.08-.08-.93.07-.31-1.85Zm-3.87,3.11c-.44-.18-.63-.37-1.01-.66-.68-.52-.62-.23-.72-1.05.82.12,1.81.76,1.73,1.7Zm7.23.18c.24-.9.04-.57.7-1.13.4-.33.45-.41,1-.52-.06.92-.8,1.35-1.71,1.65Zm-4.41.42c2.61-.91,4.97,1.38,4.4,4.1-.3,1.45-.75.69-.97,2.45-.04.28-.11.77-.14,1.02-.23,2.06.2.1-.61,2.29-.29.78.11.48-.48.92-.46.34-1.41.4-2.05.18-.65-.23-1.01-1.15-1.37-2.18-.23-.65-.1-.35-.18-1-.06-.48-.09-1.53-.19-1.83,0,0-3.09-4.31,1.58-5.94Z"/>
      <path class="cls-3" d="m48.89,118.74c.62,5.58,5.51,9.94,11.87,9.35,5.37-.49,9.91-5.6,9.33-11.65-.55-5.7-5.41-10.14-11.91-9.49-5.39.54-9.98,5.65-9.3,11.79m8.3-1.95c-3.79.7-3.4-4.91.6-3.33-.26,1.49-.43.46-.69,1.61-.2.88.14.8.08,1.72Zm4.14-2.87l-.12.14s.16-.09.12-.14Zm-.68.22c.74-.54.74-.99,1.77-.99,2.5-.01,2.96,4.05-.69,3.69-.05-.96.14-.69.13-1.41,0-.37.05-.34-.13-.68-.27-.51-.05-.22-.48-.46.91,4.15-2.68,3.12-3.25,2.55-1.82-1.83,1.27-4.46,2.65-2.69Zm.98,3.34c1.29-.49,2.54.13,3.16.78.57.6,1.35,2.1.95,3.16l-2.28.08c-.28-.95-.28-1.55-.74-2.34-.53-.91-.95-.87-1.09-1.67Zm-6.71,4.02l-1.68-.04c-.02-.11-.04-.27-.05-.23,0,.03-.04-.14-.04-.19-.14-1.62-.07,1.1-.03-.38,0-.18.15-.76.21-.92.68-1.84,1.85-2.57,4.03-2.41-.18,1.04-.84,1.17-1.27,2.1-.54,1.18-.06,2.06-1.16,2.06Zm8.02.37l-6.81.03c-.05-5.4,6.73-5.88,6.81-.03Z"/>
      <path class="cls-3" d="m115.83,107.37c-13.8,2.33-10.79,23.18,3.57,21,5.21-.79,9.64-5.99,8.6-12.39-.83-5.09-5.91-9.66-12.17-8.61m4.88,9.45l-.61.33.48.95,1.32,1.75c-.12.04-.56.12-.68.17-.76.32-.17-.13-.68.4l2.28,2.31c-1.21.95-2.84.07-4.1-.06l-.1,2.37h-2.28s-.04-2.3-.04-2.3c-1.61-.05-1.89.81-4.07.13.23-.89,1.83-1.98,2.49-2.81l-1.58-.19c.48-.93,1.52-1.98,2.17-2.88-.19-.02-.41-.01-.6-.06l-.7-.3c.35-.75,1.13-1.66,1.59-2.34-.14-.06-.42-.16-.43-.17-.35-.17-.32-.16-.49-.3.5-.84,1.92-2.62,2.85-3.08.6.37,1.13.92,1.57,1.52.42.56.93,1.03,1.26,1.56-.05.04-.13.08-.17.1-.03.02-.12.07-.16.1-.05.03-.23.15-.27.18-.65.47-.03-.38-.27.26.26.35.55.74.93,1.19,1.09,1.31.39,1.13.3,1.17Z"/>
      <path class="cls-3" d="m58.13,48.97c-13.71,2.23-10.77,23.07,3.58,21.01,5.31-.76,9.58-5.92,8.64-12.4-.73-5.04-6.07-9.61-12.22-8.61m2.9,7.88c4.04,1.35.14,2.34,3.65,5.7.5.48,1.25,1.33.53,2.2-.6.71-.26.28-1.15.49l-.57.17s-.11.06-.15.09l-.45.37c-2.7-1.21-6.64,1.08-8.65-1.25-.46-1.12,1.69-2.59,2.21-3.92.95-2.46-.81-3,2.29-3.79,0,0-1.82-4.06,1.32-3.84,2.47.18,1.23,2.42.97,3.78Z"/>
      <path class="cls-1" d="m85.93,119.39c-6.27,1.56-9.24,7.56-7.84,13.01,1.25,4.87,6.44,9.33,12.92,7.67,4.94-1.27,9.33-6.43,7.76-12.9-1.2-4.95-6.35-9.4-12.85-7.78m4,3.92c.74,2.71-1.57,3.2-2.49,2.06-1.05-1.3.28-3.23,2.49-2.06Zm-7.43,7.77c1-.81.68-.02,1.53-1.28.9-1.32.36-.43.58-1.93.29-1.93,1.19-.28,2.42-.15.67.08,4.47-.78,6.24,2.4.72,1.3.7.69,1.09.81-.02,1.42-.14.62-.73,1.66-1.48,2.59.48.37-1.85,2.61-.53.51-.41,1.54-1.92,1.42-.97-.08-1.56-1.06-2.58-.72-1.06.91-.61.86-2.46.5-.14-1.33.49-2.35-2.14-2.78l-.17-2.54Z"/>
      <path class="cls-3" d="m115.48,49.52c-5.04,1.29-9.49,5.99-8,12.68,1.12,5,6.33,9.58,12.9,8.04,9.01-2.12,11.08-14.01,3.72-19.03-2.31-1.58-5.32-2.53-8.62-1.69m-.05,7.68c.17-1.62.17-2.47,1.18-2.65.8-.15,2.63,0,3.26.2.21.51.4,1.83.46,2.46,4.2,0,3.25.83,3.08,1.93-.08.55.05.3.14.81.07.36.06.52.07.88.11,4.93.7,4.39-5.86,4.39-6.97,0-5.51.39-5.63-5.78,1.61.6,5.39,4.89,10.57.49.47-.4.2-.07.45-.5-2.39.54-1.96,2.3-6.06,2.03-1.96-.13-4.96-2.43-5-2.95.43-1.62,1.55-1.29,3.33-1.29Z"/>
      <path class="cls-1" d="m86.43,37.34c-5.04,1.27-9.47,6.29-7.84,12.96,1.19,4.84,6.57,9.3,12.9,7.72,4.94-1.23,9.32-6.41,7.79-12.96-1.14-4.86-6.46-9.33-12.85-7.72m-3.3,11.06c.23-.45.87-1.35.98-1.76.26-1.01-1.09-3.72,2.04-5.25,2.62-1.28,6.24-.64,7.72,1.12,2.76,3.28-1.15,6.8-1.36,7.38-.58,1.64,2.22,5.43-5.28,4.65-.52-4.11-.59-.79-2.54-2.17-.43-.75-.09-.29-.24-1.12-.51-2.76-.98-1.93-1.33-2.85Z"/>
      <path class="cls-4" d="m115.43,57.19c-1.78,0-2.9-.32-3.33,1.29.04.52,3.04,2.83,5,2.95,4.1.27,3.67-1.49,6.06-2.03-.26.43.02.1-.45.5-5.18,4.4-8.96.11-10.57-.49.12,6.17-1.34,5.78,5.63,5.78,6.56,0,5.97.54,5.86-4.39,0-.37,0-.52-.07-.88-.09-.51-.22-.25-.14-.81.17-1.09,1.12-1.93-3.08-1.93-.06-.63-.26-1.94-.46-2.46-.64-.19-2.47-.34-3.26-.2-1.01.19-1.01,1.03-1.18,2.65m3.83-1.56c.16.69-.02.73-.09,1.56-2.95,0-2.4.14-2.69-.72-.12-.36-.2-.73.18-.98.39-.26,1.89-.29,2.61.14Z"/>
      <path class="cls-4" d="m83.13,48.4c.35.92.82.09,1.33,2.85.15.84-.19.38.24,1.12,1.95,1.38,2.02-1.94,2.54,2.17,7.49.78,4.69-3.01,5.28-4.65.2-.57,4.11-4.1,1.36-7.38-1.48-1.76-5.1-2.4-7.72-1.12-3.13,1.53-1.78,4.24-2.04,5.25-.1.4-.75,1.31-.98,1.76m5.03-6.56c2.29-.5,4.11.44,5.01,1.84,1.27,1.95-.16,4.96-2.24,3.91-.79-.4-.86-1.29-2.29-1.49-1.19-.16-2.42.11-3.16-.62-1.05-1.03-.42-2.98,2.67-3.65Z"/>
      <path class="cls-1" d="m82.94,131.47l.17,1.48c.89.27,1.95.93,2.22,1.81l.22,1.23c1.79.31-.04-.71,2.43-.61,2.26.1.73.77,2.59.64.24-.3.08-.61.66-1.13.51-.46,2.19-1.32,1.86-3.68-.22-1.61-2.47-3.39-4.65-3.03l-1.9.25c-.59-.62-.31-.67-1.44-.89.09,2.08.38,1.25-.57,2.55-1.1,1.51-.39.47-1.6,1.38m4.46-2.64c.57-.48,1.7-.39,2.39,0-.41.31-.39.2-1.35.15-.62-.03-.54.1-1.04-.15Z"/>
      <path class="cls-3" d="m64.94,64.53c.16-1.85-1.67-2-2.19-3.8-.2-.7-.15-2.32-.37-2.69-.27-.43-1.43-.74-1.8-.96-.09-1,1.61-3.55-.74-3.53-2.14.02-.57,2.37-.64,3.65-.75.32-1.62.3-1.88,1.09-.23.71,0,1.62-.3,2.5-.56,1.65-2.13,2.2-2.32,3.62,1.61,1.41,3.68.53,6.56.64l3.68-.52Zm-8.88-.85c.54-1.03,1.08-.69,1.61-1.51.58-.9.16-1.75.77-2.44,1.21,1.32,1.21,3.5-2.38,3.95Zm5.96-1.89c.45.5.09-.58.37.7l.23.25c.48.26.76.38,1.12.67-.57.4-1.4-.06-2.33-.19-.42-1.07-1.46-2.67.12-3.54l.49,2.1Z"/>
      <path class="cls-3" d="m120.56,118.84c-.67-.58-1.3-1.31-1.56-2.13.44-.25.34-.08.66-.2.04-.02.12-.05.16-.06l.49-.27c-.69-.73-1.08-1.27-1.61-2.11.51-.81.43.02.59-.58.02-.08.1-.08.15-.12-.78-.87-.82-1.38-1.9-2.11-.67.38-1.11,1.2-1.84,1.89.12.77.35.37.64.92-.55.74-1,1.44-1.61,2.07.43.45.03.12.67.39.03.01.53.12.65.16-.48,1.25-1.45,1.5-2.04,2.87.76,0,1.04-.15,1.57.13-.7,1.14-1.98,1.77-2.64,2.96,1.82.17,2.59-.4,4.6-.4,2.01,0,2.76.55,4.6.4-.59-1.06-2.15-1.76-2.68-2.96.57-.28.78-.12,1.62-.2l-.51-.64Z"/>
      <path class="cls-1" d="m131.77,92.68c.22-1.79-.5-.86.57-2.26.55-.72.68-1.37.46-2.37-.72-3.23-6.05-3-5.89.91.05,1.22.47,1.28.87,1.95.49.83.06.84.23,1.92,1.61.89,2.25.95,3.75-.14"/>
      <path class="cls-4" d="m44.61,88.21l.55-.87c.03-.05.09-.13.12-.17.03-.04.07-.12.12-.17l.57,3.44c.07.29.05.27.18.53.26.49-.09.09.34.41.63-.7.6-2.24.68-3.16l6.29-.05c.61-.19.23.05.5-.37-.85-.6-5.39-.3-6.77-.3-.86.23-.44-.09-.88.79-.15-1.16-.22-2.66-.76-3.56-.96.4-.52.73-1.29,2.71-1.12.12-2.01.39-2.24-.59-.23-.96.23-2.14.68-2.61,1.64-1.7,3.28.15,4.26.67,4.6-3.85,4.67,1.65,5.16,2.22,1.96-2.27-2.73-6.21-5.07-3.09-1.65-.68-3.45-2.46-5.22.27-.49.76-.76,2.07-.4,3.15.39,1.14,1.78.74,3.19.74"/>
      <path class="cls-1" d="m88.16,41.84c-3.09.67-3.72,2.62-2.67,3.65.74.73,1.97.45,3.16.62,1.42.2,1.5,1.09,2.29,1.49,2.08,1.05,3.5-1.96,2.24-3.91-.91-1.4-2.72-2.34-5.01-1.84m1.84.8c.37.42.58.59.46,1.46-.11.11-.37.35-.46.45-2.11.25-2.14-2.15,0-1.92Zm-2.28,2.01c-1.99,2.19-3.25-2.18-.32-1.31.26.4.36.63.32,1.31Zm3.27,2.11c-.46-.83-.47-1.01-.03-1.88,1.52-.21,2.09.65,1.37,1.86l-1.34.02Z"/>
      <path class="cls-4" d="m119,116.71l1.71.12c.09-.04.79.15-.3-1.17-.38-.45-.66-.84-.93-1.19.24-.64-.37.21.27-.26.04-.03.22-.15.27-.18.04-.03.12-.08.16-.1.04-.02.12-.06.17-.1-.33-.54-.83-1-1.26-1.56-.44-.59-.97-1.15-1.57-1.52-.94.46-2.36,2.24-2.85,3.08.17.14.14.13.49.3,0,0,.29.1.43.17-.46.69-1.24,1.59-1.59,2.34l.7.3c.19.05.41.05.6.06-.65.9-1.69,1.95-2.17,2.88l1.58.19c-.65.84-2.25,1.92-2.49,2.81,2.18.68,2.47-.18,4.07-.13l.04,2.29h2.28s.1-2.36.1-2.36c1.26.12,2.9,1,4.1.06l-2.28-2.31c.51-.53-.08-.08.68-.4.12-.05.55-.13.68-.17l-1.32-1.75-.38-.37s-.09-.09-.12-.12l-.41-.29c.02.06.05.08.06.17l.83,1.36.51.64c-.84.08-1.05-.08-1.62.2.53,1.2,2.09,1.89,2.68,2.96-1.84.16-2.59-.39-4.6-.4-2.01,0-2.78.56-4.6.4.66-1.19,1.94-1.82,2.64-2.96-.53-.28-.82-.13-1.57-.13.58-1.37,1.55-1.63,2.04-2.87-.12-.05-.62-.15-.65-.16-.64-.26-.24.06-.67-.39.61-.63,1.06-1.33,1.61-2.07-.29-.55-.53-.15-.64-.92.73-.69,1.17-1.51,1.84-1.89,1.08.73,1.12,1.24,1.9,2.11-.04.05-.12.04-.15.12-.15.6-.07-.23-.59.58.53.84.92,1.39,1.61,2.11l-.49.27s-.12.05-.16.06c-.32.12-.22-.04-.66.2m-2.29,5.97h1.58v1.93s-1.58,0-1.58,0v-1.93Z"/>
      <path class="cls-4" d="m62.94,121.87c-.08-5.86-6.85-5.38-6.81.03l6.81-.03Z"/>
      <path class="cls-4" d="m60.65,114.14c-1.38-1.77-4.48.86-2.65,2.69.57.57,4.16,1.6,3.25-2.55.43.24.21-.04.48.46.18.34.13.31.13.68,0,.72-.18.44-.13,1.41,3.65.35,3.19-3.71.69-3.69-1.03,0-1.03.45-1.77.99m.57-.08l.12-.14s-.1.12-.12.14Z"/>
      <path class="cls-4" d="m61.03,56.85c.26-1.36,1.49-3.6-.97-3.78-3.13-.22-1.32,3.83-1.32,3.84-3.1.79-1.34,1.34-2.29,3.79-.52,1.33-2.66,2.8-2.21,3.92,2.01,2.32,5.95.04,8.65,1.25l.45-.37s.1-.07.15-.09l.57-.17c.89-.21.55.23,1.15-.49.72-.87-.03-1.72-.53-2.2-3.51-3.37.4-4.35-3.65-5.7m-.46.24c.37.22,1.54.52,1.8.96.22.36.17,1.99.37,2.69.52,1.8,2.35,1.95,2.19,3.8l-3.68.52c-2.88-.1-4.94.77-6.56-.64.19-1.41,1.76-1.97,2.32-3.62.3-.88.07-1.79.3-2.5.26-.79,1.13-.78,1.88-1.09.06-1.27-1.51-3.63.64-3.65,2.35-.02.65,2.52.74,3.53Z"/>
      <path class="cls-4" d="m128.94,85.46c-4.67,1.63-1.59,5.94-1.58,5.94.1.31.13,1.35.19,1.83.08.65-.05.35.18,1,.36,1.03.72,1.95,1.37,2.18.63.22,1.59.16,2.05-.18.59-.44.19-.13.48-.92.82-2.19.38-.23.61-2.29.03-.25.1-.74.14-1.02.23-1.76.67-1,.97-2.45.57-2.72-1.78-5.02-4.4-4.1m2.83,7.22c-1.5,1.09-2.13,1.03-3.75.14-.18-1.08.26-1.09-.23-1.92-.4-.67-.82-.73-.87-1.95-.17-3.91,5.17-4.14,5.89-.91.22,1.01.09,1.65-.46,2.37-1.08,1.4-.35.47-.57,2.26Zm-3.67.99c1.66.59,1.95.54,3.56.02-.21.9-.67,1.15-1.69,1.16-1.37.02-1.59-.27-1.86-1.19Zm.69,1.94c.06-.04.13-.22.14-.16.02.07.14-.07.2-.11l1.86.1c-.58.51-1.01,1-2.21.18Z"/>
      <path class="cls-4" d="m82.5,131.08l.17,2.54c2.63.43,2.01,1.44,2.14,2.78,1.85.36,1.4.41,2.46-.5,1.02-.33,1.61.65,2.58.72,1.51.12,1.39-.91,1.92-1.42,2.33-2.24.37-.02,1.85-2.61.59-1.04.71-.24.73-1.66-.39-.12-.37.49-1.09-.81-1.76-3.18-5.56-2.32-6.24-2.4-1.23-.14-2.13-1.79-2.42.15-.23,1.5.31.61-.58,1.93-.85,1.26-.53.47-1.53,1.28m2.05-.99c.95-1.3.66-.47.57-2.55,1.12.22.85.27,1.44.89l1.9-.25c2.17-.36,4.42,1.43,4.65,3.03.33,2.36-1.35,3.22-1.86,3.68-.58.52-.42.83-.66,1.13-1.86.13-.33-.54-2.59-.64-2.47-.11-.64.91-2.43.61l-.22-1.23c-.27-.89-1.33-1.54-2.22-1.81l-.17-1.48c1.22-.9.5.13,1.6-1.38Z"/>
      <path class="cls-4" d="m54.92,121.5c1.1,0,.62-.88,1.16-2.06.43-.93,1.09-1.06,1.27-2.1-2.17-.17-3.34.57-4.03,2.41-.06.16-.2.74-.21.92-.04,1.49-.11-1.24.03.38,0,.04.04.22.04.19,0-.03.03.13.05.23l1.68.04Z"/>
      <path class="cls-4" d="m61.63,117.48c.14.8.56.76,1.09,1.67.46.79.46,1.38.74,2.34l2.28-.08c.4-1.05-.38-2.56-.95-3.16-.62-.65-1.87-1.26-3.16-.78"/>
      <path class="cls-4" d="m57.2,116.8c.06-.92-.28-.84-.08-1.72.26-1.15.42-.12.69-1.61-4.01-1.58-4.39,4.03-.6,3.33"/>
      <path class="cls-4" d="m46.72,93.94c1.35-.39,4.58-3.38,4.59-4.88-.96-.03-.53,0-1.22.92-.74.98-2.23,2.68-3.36,3.14-2.28-1.86-2.48-3.25-3.65-3.11.11,1.13,2.61,3.21,3.64,3.92"/>
      <path class="cls-3" d="m119.17,57.19c.07-.82.25-.86.09-1.56-.72-.44-2.22-.41-2.61-.14-.37.25-.3.62-.18.98.29.86-.25.72,2.69.72"/>
      <path class="cls-4" d="m56.06,63.69c3.58-.45,3.58-2.63,2.38-3.95-.61.69-.19,1.54-.77,2.44-.53.82-1.07.49-1.61,1.51"/>
      <path class="cls-4" d="m62.03,61.8l-.49-2.1c-1.58.87-.55,2.47-.12,3.54.93.12,1.76.58,2.33.19-.36-.29-.64-.41-1.12-.67l-.23-.25c-.15.12-.35.25-.44.37-.45-.48-1.14-1.1-.7-1.93.15.24.23.39.35.76.34,1.05.09.23.19.93.21-.27.41.26.23-.83"/>
      <path class="cls-4" d="m87.73,44.65c.05-.67-.06-.9-.32-1.31-2.93-.88-1.68,3.49.32,1.31"/>
      <path class="cls-1" d="m87.66,123.52c-.39,1.71.09,2.31,1.83,1.86.86-1.93-.76-2.68-1.83-1.86m.98,1.73c-.4-.36-.38-.34-.4-.8-.02-.51.06-.61.27-.97.44.36.48.37.52.82.06.68.01.58-.39.95Z"/>
      <path class="cls-4" d="m90.01,44.55c.09-.1.35-.35.46-.45.11-.87-.09-1.04-.46-1.46-2.13-.23-2.1,2.17,0,1.92"/>
      <path class="cls-4" d="m91,46.76l1.34-.02c.72-1.21.15-2.07-1.37-1.86-.44.87-.43,1.05.03,1.88"/>
      <rect class="cls-8" x="116.71" y="122.67" width="1.58" height="1.93"/>
      <path class="cls-4" d="m89.93,123.31c-2.21-1.16-3.54.76-2.49,2.06.92,1.14,3.23.64,2.49-2.06m-2.27.21c1.07-.82,2.69-.07,1.83,1.86-1.74.45-2.22-.15-1.83-1.86Z"/>
      <path class="cls-1" d="m128.1,93.66c.27.92.5,1.2,1.86,1.19,1.02-.01,1.48-.27,1.69-1.16-1.61.52-1.9.56-3.56-.02"/>
      <path class="cls-4" d="m126.12,84.86c.07-.94-.91-1.59-1.73-1.7.11.82.05.53.72,1.05.38.29.57.48,1.01.66"/>
      <path class="cls-4" d="m133.35,85.04c.91-.3,1.64-.72,1.71-1.65-.55.11-.6.19-1,.52-.66.55-.47.23-.7,1.13"/>
      <path class="cls-4" d="m88.64,125.25c.4-.37.45-.27.39-.95-.04-.45-.08-.46-.52-.82-.22.36-.29.46-.27.97.02.47,0,.44.4.8"/>
      <path class="cls-1" d="m128.79,95.6c1.2.83,1.62.33,2.21-.18l-1.86-.1c-.06.05-.19.18-.2.11-.02-.06-.09.12-.14.16"/>
      <path class="cls-4" d="m130.29,83.6c.04-.29.1-.61.12-.97l-.22-1.2c-.04.05-.1.06-.11.16-.01.1-.08.12-.1.17-.62,1.92.23,1.78.31,1.85"/>
      <path class="cls-4" d="m87.4,128.83c.5.24.42.11,1.04.15.96.05.94.16,1.35-.15-.69-.39-1.82-.48-2.39,0"/>
    </g>
  </g>
</svg>