<?xml version="1.0" encoding="UTF-8"?>
<svg id="Layer_2" data-name="Layer 2" xmlns="http://www.w3.org/2000/svg" viewBox="0 0 20.94 29.39">
  <defs>
    <style>
      .cls-1 {
        fill: #000002;
        fill-rule: evenodd;
      }
    </style>
  </defs>
  <g id="Layer_1-2" data-name="Layer 1">
    <g>
      <path class="cls-1" d="m14.2,4.42c0,.44.24.52.57.52.25,0,3.07-2.92,3.52-3.37.58-.58.66-.57,1.23,0,.8.8.44.8-1.23,2.47l-5.28,5.28c-1.56,1.56-1.61,1.01,1.09,3.7l2.64,2.64c1.23,1.23,1.21.78-1.64,3.62-.32.32-3.04,2.95-3.14,3.19-.16.38.14.56.35.78l2.53,2.53c.67.67,1.19.96,1.19,1.56,0,.23-.72.92-.98.92-.42,0-1.18-.92-1.62-1.36l-.75-.75c-.19-.19-.53-.65-.85-.65-1.21,0,.2,2.99-1.03,2.99-1.36,0-1.21.04-1.21-1.49,0-.64.13-1.49-.52-1.49-.34,0-1.31,1.11-1.59,1.39l-.75.75c-.22.22-.47.62-.88.62-.07,0-.98-.4-.98-1.15,0-.26,2.75-2.89,3.11-3.26,1.38-1.38,1.36-1.03-.2-2.58-.36-.36-.54-.7-1.02-.7-.17,0-.4.29-.4.46,0,.28.47.67.65.85.23.23.54.59.79.76-.16.24-2.69,2.71-3.11,3.14-.55.55-.79.77-.79,1.56,0,.58.4.89.7,1.19.33.33.62.7,1.25.7,1.44,0,2.67-2.64,2.76-1.79.04.35-.04.72.04,1,.12.37.66.96,1.1.96h1.38c.44,0,.97-.59,1.09-.92.1-.29.05-.56.06-.92.01-.57.2-.23.39-.03.34.35.66.66,1,1,.97.97,1.66.95,2.58.03.54-.54.73-.64.73-1.45,0-.76-1.18-1.73-1.82-2.37l-2.08-2.11c.27-.18,3.71-3.69,4.26-4.23.42-.42,1.13-.95,1.13-1.74s-.68-1.28-1.11-1.71c-.56-.56-4.1-4.04-4.29-4.32.9-1.03,4.81-4.84,6.07-6.1,1.3-1.3,2.59-2.09,1.06-3.62-1.07-1.07-1.7-.97-2.73.06l-2.81,2.81c-.14.14-.5.42-.5.65Z"/>
      <path class="cls-1" d="m8.92.52c-.43-.12-1.07-.91-2.31.33-.19.19-.33.31-.48.55-.4.66-.29,1.32.22,1.86.37.4,2.28,2.09,2.28,2.48,0,.56-.09.34-.73-.3L3.14.67c-.26-.26-.62-.5-1.11-.5-.67,0-.96.36-1.31.7-1.55,1.55-.32,2.29,1,3.62,1.26,1.26,5.2,5.1,6.1,6.13-.19.28-3.71,3.74-4.26,4.29-.44.44-1.13.92-1.13,1.74s.96,1.56,1.42,2.02c.34.34,1.5,1.65,1.85,1.65.32,0,.46-.21.46-.52,0-.34-1.09-1.29-1.36-1.56-1.89-1.89-1.9-1.29.26-3.44.6-.6,1.15-1.15,1.75-1.75.6-.6,1.15-1.15,1.75-1.75.35-.35.66-.59.25-1.09L1.79,3.17c-.9-.9-1.06-.92-.37-1.61.79-.79.79-.45,2.41,1.18.59.59,1.13,1.13,1.72,1.72l2.58,2.58c.31.31.91,1.11,1.34.57.22-.28.14-1.51.14-1.99,0-.71-.6-1.08-1.31-1.79-1.44-1.44-1.83-1.47-1.03-2.27.19-.19.32-.42.67-.42.47,0,.61.75,1.21.75.66,0,.18-.98.98-.98.69,0,1.09-.11,1.22.45.12.49.16.53.62.53.22,0,.67-.75,1.03-.75.48,0,1.09.87,1.09.98,0,.41-.42.67-.65.9-.27.27-.5.5-.77.77s-.5.5-.78.77c-.75.75-.56.78-.56,2.54,0,.36.19.69.52.69s1.31-1.11,1.68-1.48c.29-.29.44-.33.44-.76,0-.19-.27-.4-.46-.4-.6,0-1.21,1.52-1.21.57,0-.34,1.19-1.39,1.48-1.68s.5-.5.78-.77c1.4-1.37-.57-3.12-1.51-3.12-.6,0-.75.27-1.03.34-.59-.4-.47-.5-.89-.52h-1.35c-.39,0-.63.37-.86.52Z"/>
      <path class="cls-1" d="m11.33,14.24v4.82c0,.41.11.75.52.75.34,0,1.39-1.19,1.68-1.48.29-.29,1.48-1.34,1.48-1.68,0-.45-1.36-1.62-1.82-2.08-.49-.49-1.1-1.33-1.58-1.04-.22.13-.27.39-.27.71Z"/>
      <path class="cls-1" d="m5.93,16.53c0,.48.32.64.67.99l.8.8.77.77c.2.2.58.7.9.7.72,0,.52-1.22.52-2.18,0-1.03-.92-.88-.98-.35-.02.21,0,.58,0,.81-.21-.06-1.44-1.28-1.49-1.49.19-.28.79-.82,1.08-1.11.23-.23.41-.57.42,0,0,.39.06.64.46.64.69,0,.52-1.06.52-1.89,0-.63-.33-1.03-.89-.6-.37.28-.64.61-.96.93-.27.27-1.82,1.71-1.82,1.97Z"/>
    </g>
  </g>
</svg>