<?xml version="1.0" encoding="UTF-8"?>
<svg id="Layer_2" data-name="Layer 2" xmlns="http://www.w3.org/2000/svg" viewBox="0 0 23.02 28.92">
  <defs>
    <style>
      .cls-1 {
        fill: #000002;
        fill-rule: evenodd;
      }
    </style>
  </defs>
  <g id="Layer_1-2" data-name="Layer 1">
    <path class="cls-1" d="m10.25,28.14c.24,0,.63-.24.79-.41.3-.3.33-.53.44-.75.1.07.06.04.12.17.21.46.7.98,1.15.99v.07c-.31,0-.37.07-.62.07h-1.27c-.24,0-.31-.07-.62-.07v-.07h0Zm-.87-3.33c-.17,0-.06,0-.15.04-.06.02-.06.02-.14.04-.37.1-.5.22-.76.47-.43.41-.53,1.32-.28,1.9.08.18.22.22.38.31l.37.18s.02,0,.02.01c0,0,.02.02.02.01,0,0,.02.02.03.02l.03-.04c-.27-.2-.44-.8-.22-1.28l.18-.25c.16-.18.47-.39.77-.39.87,0,.8.7.59.95-.07.08-.05.06-.15.11-.02,0-.05.02-.08.03-.08.03.08.03-.08.03h-.22c-.16,0,0,0-.08-.03-.41-.17-.15-.27-.39-.33-.03.13-.03.05-.07.18-.19.61.5.91.62.91.37,0,.65-.08.92-.38.41-.45.44-1.13.2-1.65-.32-.68-.83-.84-1.52-.84h0Zm6.2,1.16c.14.03.19.1.34.17.21.09.22.03.42.12-.15.22-.33.32-.5.48l-.19.14c0-.16,0-.32,0-.47,0-.2-.05-.26-.07-.43h0Zm-8.19.94c-.12-.08-.26-.21-.37-.32l-.12-.1s-.05-.05-.06-.05c-.11-.1-.12-.12-.14-.22.26,0,.54-.13.73-.29v.1c-.07.14-.04.71-.04.88h0Zm5.26-.58c0-.09.02-.06.09-.2.26-.49,1.03-.36,1.43.09.04.04.08.09.11.14l.14.33c0,1.01-.18.69-.29,1.09.16-.08.64-.29.75-.38.31-.26.36-1.49-.19-2.06-.17-.18-.26-.24-.48-.35-.11-.06-.14-.08-.29-.11-.66-.16-1.27-.04-1.68.54l-.12.21c-.04.08-.06.15-.09.24-.35,1.04.62,2.17,1.45,1.7.52-.3.48-.91.21-.99-.09.39-.61.5-.91.18-.14-.14-.14-.26-.14-.44h0Zm-1.16-2.68c.08.06.13.23.41.5.14.14.39.28.61.33l-.32.23c-.2.16-.37.35-.5.59-.15.28-.07.29-.2.38-.11-.49-.63-1.08-.94-1.16.1-.14.18-.06.57-.34.13-.1.34-.36.38-.53h0Zm4.75.54c0,.16.01.19.08.35,0,0,0,.02.01.02,0,.01.02.04.02.05.06.12.12.18.22.25.19.14.45.22.71.16-.03.12-.16.32-.24.42-.22.3-.26.24-.74.24-.44,0-.8-.67-.8-1.05,0-.52,0-.84.48-1.26l.08-.07c.07-.06.12-.08.2-.12.99-.53,1.72.42,1.27,1.08-.2.29-.54.25-.66.14-.05-.05-.07-.08-.07-.18,0-.22.18-.03.31-.05.3-.05.45-.54-.03-.67-.26-.07-.56.08-.71.3-.06.08-.16.27-.16.39h0Zm-10.62-.36c0,.15.09.25.2.31.25.14.11-.01.38-.02.02.29.01.36-.36.36-.33,0-.47-.44-.47-.47,0-.37-.02-.5.26-.75.75-.68,1.91.28,1.91,1.08,0,.29,0,.41-.12.71-.07.17-.17.36-.33.47-.28.21-.39.16-.75.16-.28,0-.5-.43-.62-.65.37.03.71-.01.94-.4.19-.31.1-.73-.16-.96-.4-.35-.89-.1-.89.16h0Zm6.56-.73c0,.45.66.62.8.04.18,0,.12-.02.23.06.21.17.19.56-.12.71-.3.15-.51.1-.81-.14-.08-.06-.22-.25-.26-.35-.02-.04-.05-.19-.06-.24-.06-.3.16-.76.46-.92.64-.35,1.53.15,2.13.43.33.15.66.27,1.07.27-.15.22-.31.28-.46.59-.29.59-.16.93-.16,1.33-.45-.3-.55-.54-1.45-.62.15-.22.48-.49.3-1.06-.12-.37-.51-.65-.91-.65-.3,0-.76.26-.76.54h0Zm-3.04.29c0,.61.19.61.36.87-.45.04-.8.14-1.16.36l-.29.22c0-.5.03-.76-.1-1.13-.15-.41-.37-.54-.51-.76,1.19,0,2.34-1.35,3.32-.6.32.24.3.54.3.89,0,.32-.57.94-1.1.67-.37-.19-.4-.78.13-.78.05.57.76.38.76.07,0-.23.03-.3-.26-.5-.34-.24-.84-.18-1.14.11-.13.13-.3.41-.3.57h0Zm7.14-1.19l.04.03c.9-.78-.24-1.78-.67-.99-.11.2.03.31.13.45.06-.03.16-.11.22-.11.23,0,.07-.01.2.05.12.06.13.06.17.19.03.1.04.18-.02.29l-.07.08h0Zm-4.92,0h.33c-.03.1-.11.24-.18.29-.02-.05-.04-.1-.07-.15-.02-.05-.05-.09-.08-.14h0Zm3.73-.91c-.19.02-.03-.01-.16.05-.07.03-.09.05-.14.07l-.89.38.75.34c.49.21.84.37,1.39.24-.09-.08-.05-.05-.18-.08-.49-.11-.77-.45-.77-1.01h0Zm-7.54,1.12c.29,0,.95-.33,1.25-.46l.38-.16-1.2-.51c0,.38-.2.75-.5.91,0,0-.06.03-.07.04-.09.04-.1.04-.19.06-.13.03-.09,0-.18.08.25.06.21.04.51.04h0Zm-.22-.76c.04-.15.06-.06.09-.24.04-.26-.23-.45-.49-.45-.52,0-.78.85-.22,1.23-.03-.11-.18-.3.07-.51.24-.21.32-.03.55-.03h0Zm-2.68-.44c0,.08.03.43.05.53l.24,1.43c.2-.13.41-.69,1.23-.69-.13-.49-.29,0-.29-1.2-.26.02-.55.29-1.23-.07h0Zm12.51.07c.24.5-.28,1.16-.29,1.2.25,0,.62.12.76.22.09.06.18.13.25.22.03.04.07.1.11.14.11.14-.04.05.11.11.07-.15.29-1.63.29-1.92-.17.04-.17.08-.32.11-.54.11-.67-.07-.91-.07h0Zm-.62-1.05c0,.17.02.15.04.29-.09-.02-.18-.04-.25-.07.04-.14.1-.14.22-.22h0Zm-10.08.29c.03-.13.04-.12.04-.29l.13.08c.07.06.08.07.12.13-.07.04-.2.05-.29.07h0Zm11.31.33c-.7,0-.86-.76-.49-1.14.15-.15.27-.15.49-.2.28.42.68.19.69-.15h.07c0,.12.19.44-.02.92-.04.1-.11.2-.16.27-.11.15-.33.29-.58.29h0Zm-7.21-1.09c0-.43.59-1.21,1.37-.83.09.04.08.03.16.1l.22.22c.2.27.19.74.02,1.03-.37.64-1.42.56-1.68-.13-.02-.05-.09-.34-.09-.38h0Zm5.29-1.02l.87.76c.18-.12.22-.25.43-.36.3-.16.76-.27,1.09-.11-.14-.51-1.96-.29-2.39-.29h0Zm-9.53.76c-.11-.07-.1-.12-.19-.21-.06-.06-.15-.12-.23-.17-.42-.24-1.32-.28-1.32.23,0,.12.05.22.12.27.29.25.55-.08.6-.13.24.06.28.03.45.2.61.62-.22,1.65-1.06.85-.03-.03,0,0-.05-.05-.25-.27-.24-.57-.24-.88,0-.28.18-.48.33-.62.52-.51,1.55-.25,2.5-.25-.06.09-.13.11-.22.18l-.68.59h0Zm6.31-1.49c.11,0,.2,0,.31.02l.62.18s.09.03.14.04c.01,0,.04.02.05.02l1.31.61c.08.04.12.06.2.12l.4.29c.07.05.12.09.19.14.12.1.3.2.34.35-.04.06-.27.25-.34.31l-.39.3c-.12.09-.27.16-.4.25-.51.33-1.07.53-1.64.71l-.56.13c-.13.02-.16.06-.3.07.37-.32.68-.44.93-1.14.27-.76.02-1.77-.66-2.25l-.2-.17h0Zm-3.15,1.63c0,.71.26,1.37.83,1.78.03.02.08.05.11.07l.11.07c-.12-.01-.17-.04-.26-.06-.14-.03-.16-.02-.28-.05-.18-.05-.36-.09-.54-.15-.73-.23-1.22-.51-1.84-.92-.15-.1-.25-.19-.39-.3-.14-.11-.26-.2-.35-.34.62-.65,1.74-1.25,2.62-1.54l.28-.08c.1-.03-.03,0,.08-.03l.6-.09c-.28.24-.36.2-.65.65-.05.07-.08.12-.12.2-.09.2-.2.57-.2.77h0Zm3.04-1.7h.01s-.01,0-.01,0h0Zm-2.03,0h.01s-.01,0-.01,0h0Zm3.62-.65c0,.22-.02.19.06.37,0,.02.03.07.03.08.06.14.03-.03.05.17-.04-.02-.07-.03-.13-.06l-.49-.16c.09-.12.22-.11.47-.4h0Zm-5.33.62c.14-.28.07-.16.14-.41.04-.13.03,0,.05-.17.1.06.12.12.21.19.17.13.16.04.26.17-.18.01-.53.19-.65.22h0Zm2.72-.98c.1.07.08.1.15.21.07.11.11.13.17.22h-.58c.04-.17.2-.21.25-.44h0Zm3.44.07c0,.25.02.37.31.57.69.48,1.37-.09,1.4-.42.12.03.05,0,.13.09.55.62.87.63,1.61.63.26,0,.38-.14.54-.18l-.11.91c-.05.2-.09.05-.23-.06-.69-.54-1.49-.34-2.16-.34-.37,0-.7.04-.97-.04-.18-.05-.33-.09-.49-.24-.41-.37-.42-1.04-.06-1.38.41-.38,1.26-.38,1.26.32,0,.2-.21.36-.4.36-.22,0,.04-.26-.23-.46-.17-.12-.35-.12-.5.02-.07.06-.1.11-.1.23h0Zm-7.61.04c0-.15,0,0,.03-.08l.11-.18c.19-.19.65-.17.65.33,0,.28-.66.97-1.43.45-.22-.15-.22-.23-.31-.41-.2.14-.6.73-1.27.73-1.04,0-.53-.07-1.01-.18,0,.32.14.68.14,1.02.13-.03.07-.03.22-.17.34-.3,1.11-.42,1.46-.39.74.07.78.06,1.54.06.16,0-.02,0,.1-.04.04-.01.03,0,.08-.03.06-.02.06-.02.11-.03l.17-.08s.02-.01.02-.01l.16-.13c.29-.29.38-.65.2-1.07-.09-.2-.29-.37-.49-.45-.64-.26-1.17.26-.91.7.09.16.25.17.41.17v-.18h0Zm6.96-1.23c0,.35.07,0,.07.54.1-.12.21-.29.36-.33v-.07c-.2,0-.32-.07-.44-.14h0Zm-5.62.47c-.12-.03-.29-.2-.33-.33.18,0,.31-.06.43-.14l-.11.47h0Zm-1.99-.58c.14.01.19.06.29.11-.06.09-.13.12-.22.18-.04-.09-.07-.16-.07-.29h0Zm9.64.29c-.09-.06-.19-.1-.25-.18.14-.03.15-.08.29-.11-.03.13-.04.12-.04.29h0Zm-6.92.15c0-.17.2-.5.3-.6.3-.3.58-.3.97-.3.35,0,.77.32.83.62.11-.08.07-.1.16-.21.35-.44.66-.41,1.08-.41.6,0,1.3.98.74,1.58l-.04.04c-.52.52-1.14-.02-1.14-.27,0-.63.68-.6.73-.11.23-.17.05-.46-.09-.57-.28-.22-.62-.22-.85.07-.47.59.22,1.33.86,1.33.75,0,1.03-.8.79-1.4-.12-.29-.86-.94-1.13-1.16l-.34-.35c-.1-.12-.18-.25-.27-.38-.13-.2-.38-.67-.43-.88-.11.03-.05,0-.1.08-.14.19-.25.77-.97,1.49-.07.07-.11.11-.19.18,0,0-.01.01-.02.02,0,0-.01.01-.02.02l-.06.05s-.04.03-.08.07c-.25.23-.88.66-.88,1.08,0,.4-.06.67.26.97.2.19.52.27.82.18.16-.05.25-.06.41-.17.08-.06.14-.11.2-.2.1-.14.1-.18.14-.33.04-.15.08-.2-.07-.52-.31-.66-1.34-.11-1.04.42.16-.06.01.03.09-.13.24-.54,1.12-.04.47.58-.29.28-.82.19-1.05-.24-.11-.21-.08-.24-.08-.53h0Zm9.97.07c.04-.43.68-.98.8-1.16-.25,0-.34-.02-.56-.05-.2-.03-.32-.04-.5-.08-.17-.04-.36-.09-.5-.11-.39-.07-.56-.15-.93-.01-.62.23-.98,1.02-.67,1.76.28.7,1.15,1.04,1.68.65.17-.12.19-.33.23-.42-.13.01-.22.16-.52.02l-.13-.08c-.2-.16-.18-.32-.18-.55,0-.31.39-.47.54-.47.44,0,.61.47.76.51h0Zm-16.49-1.16c.36,0,.81-.07,1.09-.14.67-.16,1.39-.4,1.86.19.35.44.46.92.24,1.47-.11.26-.34.52-.58.65-.29.15-.41.15-.72.15-.16,0,.01,0-.1-.04l-.05-.02c-.26-.1-.4-.22-.42-.52.22.06-.06.07.36.07.26,0,.74-.56.3-.99-.44-.43-1.02.09-1.1.37l-.04-.07c-.12-.25-.14-.33-.32-.58l-.42-.45s-.01-.01-.02-.02c0,0-.07-.07-.07-.07h0Zm10.37-.76c0,.15.04.17.04.36-.19-.13-.71-.69-.76-.91.83,0,.45-.08.83-.11,0,.11-.11.32-.11.65h0Zm-3.55-.69c.24.13.46.15.83.15-.01.14-.19.34-.31.49-.1.12-.28.35-.42.38,0-.35.03-.7-.11-1.02h0Zm-8.34.73c-.26,0-.19-.04-.37-.07-.31-.05-.42.04-.25-.85.07-.38.35-.84.66-1.05-.01.15-.07.16-.18.43-.14.35-.2.95.02,1.32.05.09.07.11.12.2h0Zm20.26-1.99l.33.29c.33.43.47.89.47,1.49,0,.16-.17.13-.32.15-.2.02-.13.07-.4.07.47-.7.33-1.24-.05-1.95,0,0-.02-.04-.02-.05h0Zm-20.19,0c0-.09.06,0,.02,0,0,0-.02.1-.02,0h0Zm17.58.44c0-.07.08-.27.1-.33.07-.17.14-.24.26-.36l.36-.25c-.76,0-1.47.43-2.06.84l-.4.25c.02.2,0,.02.05.17.14.36.21.93.06,1.25.15-.04,0-.02.13-.05.32-.09.65-.04.92-.02l1.09.22c.63,0,.74.06,1.22-.12,0,0,.02,0,.03-.01l.29-.14c.59-.37.45-1.26-.04-1.7-.18-.16-.42-.24-.67-.24-.43,0-.59.16-.8.47.16-.04.28-.26.66-.12.7.26.28,1.46-.68,1.04-.35-.15-.53-.49-.53-.89h0Zm-15.66-.94c.52,0,1,.21,1.34.4.09.05.18.09.28.16l.81.53c-.02.19-.08.26-.12.43-.15.58,0,.7,0,.99-.29-.15-.83-.11-1.16-.07l-.39.08c-.06.01-.14.04-.2.05-.68.12-.32.08-1.22.08l-.38-.12c-.17-.06-.43-.22-.54-.37-.17-.24-.13-.5-.13-.81,0-.12.02-.04.06-.16.25-.7.94-.93,1.49-.63.2.11.2.17.3.35-.16-.06-.23-.22-.55-.15-.7.15-.56,1.17.22,1.17.5,0,.91-.51.91-.87,0-.42-.31-.77-.64-.99-.07-.05-.03-.01-.08-.06h0Zm10.37-1.41c0,.19,0,.39,0,.58,0,.43-.05.4.15.61,0,0,.01.01.02.02l.13.19c.28.56.07.87.06.95.12-.06.19-.11.34-.16.43-.14.77-.13,1.18.13.07.05.07.05.14.11.37.36.48.87.27,1.35-.13.31-.76.86-1.26.36-.54-.55.19-1.43.74-1.06-.01-.13-.09-.23-.18-.29l-.2-.09s-.02,0-.03-.01c0,0-.02,0-.03-.01-.09-.03.08-.03-.08-.03h-.22c-.46,0-1.32.9-.83,1.74.56.96,2.04.9,2.72-.15.06-.09.09-.14.13-.27.14-.37.13-.79,0-1.17-.04-.1-.09-.19-.13-.27-.15-.29-.52-.61-.78-.81l-.45-.31c-.52-.34-.91-.56-1.35-1.01-.13-.13-.24-.33-.35-.41h0Zm-4.78,1.67c0-.08.1-.24.17-.34,0,0,.01-.02.01-.02.35-.49.25.07.25-1.31-.06.04-.06.04-.12.1l-.29.33c-.86.86-1.49.96-2.26,1.73-.04.04-.06.06-.09.09-.08.09-.11.16-.18.26l-.13.26c-.07.17-.06.13-.09.34-.07.49-.12.05.01.69.17.86,1.58,1.78,2.6.94.55-.45.58-1.17.14-1.69-.63-.74-1.32-.32-1.4.03.27-.14.58-.07.77.14.49.55-.12,1.5-.91.98-.07-.05-.05-.03-.1-.08-.52-.44-.48-1.16-.01-1.65.49-.51,1.38-.42,1.7-.07-.03-.33-.07.22-.07-.73h0Zm3.15,0c0,.46.36.68.65.51.4-.24,0-.61-.04-.65.4-.6,1.27.32.64,1.01-.09.1-.1.11-.23.17-.65.34-1.25-.25-1.25-.71,0-.31-.02-.38.08-.68l.06-.16c.09-.23.26-.48.4-.69l.69-1.05v1.38c-.56,0-1.01.33-1.01.87h0Zm-2.14-2.25c.12.09.19.27.27.39.05.08.04.04.09.13.03.06.04.08.08.14.26.4.6.8.74,1.26.12.39.16.49,0,.9-.22.63-.97.74-1.38.33-.4-.4-.33-1.22.38-1.22.12,0,.2.14.25.22-.49.33-.08.76.26.66.56-.17.5-1.42-.69-1.42v-1.38h0Zm6.16.8l.66-.21c.1-.05.09-.07.17-.12,0,.33.03.68-.01,1-.05.35-.06.6-.06.99-.22-.15-.32-.37-.75-.66-.38-.26-.96-.59-1.3-.88l-.55-.53c-.09-.12-.22-.31-.27-.45-.22-.68.25-1.37.78-1.71.16-.1.3-.16.53-.19,1.83-.21,1.97,1.88,1.04,2.16-.14.04-.33.02-.49.02.06-.27.15-.12.15-.54,0-.77-1.23-.85-1.3,0-.05.56.59.93,1.14,1.06.12.03.13.06.27.06h0Zm-9.06-1.09c0,.27.13.33.18.51-.41,0-.56.02-.79-.19-.51-.48-.32-1.38.22-1.76l.47-.22c.42-.1.8-.02,1.15.17.17.09.25.2.39.34.1.1.22.27.29.4l.08.18c.12.34.15.41.04.76-.06.21-.28.49-.43.66-.29.32-.73.64-1.09.87l-.56.35c-.16.1-.26.2-.41.31-.31.24-.18.29-.38.35l-.15-1.96c.17.04.22.14.41.21l.54.12c.15,0,.62-.16.83-.3.16-.11.51-.47.51-.65,0-.23.04-.43-.25-.66-.13-.1-.32-.14-.47-.12-.31.03-.59.31-.59.64h0Zm3.19-1.38c0-.09.19-.33.29-.33.16,0,.4.04.4.25,0,.31-.09.25.01.31.14.07.35-.23.35-.42,0-.21.01-.03-.04-.14l-.16-.21c-.16-.13-.28-.13-.45-.13-.34,0-.54.44-.54.8,0,.49.17.87.37,1.26l.84,1.33c.09.13.12.21.2.35.1-.07.31-.45.43-.62l.7-1.12s0-.02.01-.02,0-.02.01-.02l.14-.29c.17-.39.28-1.12,0-1.45-.58-.67-1.43.39-.77.66.19.08.14-.02.15-.03,0-.06-.04-.06-.04-.19,0-.18.21-.33.29-.33.68,0,.42,1.05-.29,1.05-.34,0-.46-.17-.58-.25-.03,0-.89.7-1.24-.21,0,0,0-.02,0-.03-.07-.19-.05.12-.05-.24h0Zm3.44.18c.13-.04.07-.02.15-.11.23-.29.66-.73,1.01-.76-.09-.13,0-.03-.16-.09-.58-.2-.81-.62-1-.74v1.7h0Zm-4.31-1.67c-.13.04-.09.08-.26.25-.45.44-.76.41-.86.55.28.06.66.41.67.41.31.27.31.42.45.46v-1.67h0Zm6.89.69v.07c.12.03.14.03.24.09l.18.11c.14.09.18.23.34.27v-.88c-.02-.48-.2.2-.76.33h0Zm-10.19.51c.13-.04.08-.03.17-.12.14-.12.37-.28.55-.32-.02-.09,0-.06-.12-.13-.42-.24-.41-.32-.6-.45v1.02h0Zm4.35-.8c0-.1,0-.05.03-.12.11-.3.39-.61.59-.86.14-.18.29-.37.5-.48.34.22.65.67.88,1.01.1.14.16.27.25.41-.36-.03-.39-.1-.82.05-.06.02-.09.04-.15.07-.26.17-.09.12-.44-.06-.22-.11-.61-.17-.84-.03h0Zm-.47-.4c.1-.07.28-.47.52-.75.06-.07.1-.1.16-.17.16-.2.38-.38.41-.5-.6-.05-.91-.49-1.09-.62v2.03h0Zm5.47-.4c.41,0,.65-.25.65-.51,0-.36-.19-.41-.33-.62.3-.16.52-.16.81.13.4.41.23,1.03-.15,1.36-.09.08-.24.17-.35.23-.26.12-.47.12-.75.12-.26,0-.82-.27-1.04-.52l-.29-.47c-.05-.11-.01,0-.05-.13-.26-.92.45-2.14,1.48-2.14.43,0,.73-.02,1.1.2l.24.16s.01.01.02.02c0,0,.01.01.02.02l.07.15c.02.12,0,.4,0,.54-.43-.29-.41-.33-.94-.33-.39,0-1.19.59-.97,1.41.06.23.3.37.46.37h0Zm-9.24-1.49c0-.18.04-.24.04-.65.38-.1.24-.4,1.38-.4.41,0,.78.19,1.07.46l.29.39c.03.06.04.07.07.15.21.44.22,1.08-.03,1.46l-.06.08c-.06.08-.1.14-.17.22-.32.33-.51.36-.85.45-.23.07-.08.04-.46.04-.11,0-.11-.03-.2-.05-.55-.16-.96-.48-.96-1.14,0-.37.41-.99,1.05-.65-.09.14-.12.08-.22.21-.16.22-.2.68.23.87.12.05-.12.04.32.04.22,0,.47-.25.47-.47v-.29c0-.48-.57-1.01-1.05-1.01-.71,0-.65.27-.91.29h0Zm7.5-.62c.12-.05.13-.16.31-.34.35-.35.57-.46,1.05-.58.43-.1.3-.06.85-.06.24,0,.66.19.8.22-.13-.57-1.16-1.29-2.16-.75-.55.3-.85.8-.85,1.51h0Zm-7.32-.76c.08,0,.62-.22.76-.22h.62c.37,0,1.06.31,1.33.63.12.15.17.28.3.32,0-.71-.31-1.23-.86-1.49-.59-.28-1.12-.23-1.65.14-.31.22-.33.31-.5.62h0Zm4.31.15s.09-.29.11-.33c.17-.37.53-.51.94-.51s.75.36.88.68c.27.71-.16,1.39-.77,1.71.05.08.1.12.18.19l.1.08c.37.35.34.38.57.66.25.31.21.32.36.55.03.04.04.06.06.08,0-1.04,0-2.08,0-3.12,0-.4.03-.4-.12-.68-.23-.43-.65-.74-1.14-.82-.5-.08-.03-.1-.6,0-.98.18-1.49,1.51-.8,2.3.06.07.25.18.35.23.33.16.76.09,1.04-.12.29-.22.28-.48.28-.8,0-.14-.31-.43-.47-.43-.08,0-.05.01-.15.04.03.13.07.12.07.25,0,.47-.3.47-.58.47-.17,0-.33-.3-.33-.43h0Zm-.72-1.27c0-.64.24-1.13.78-1.47.08-.05.15-.08.25-.11.62-.21,1.33-.06,1.71.39.04.05.13.16.16.2.02.02.05.09.06.12.19.35.13.34.22.72-.13-.03-.09-.04-.23-.17-.21-.19-.33-.25-.59-.36-.5-.21-.95-.19-1.45,0l-.15.06s-.02,0-.02.01c-.55.27-.56.47-.75.59h0Zm-.58.18c-.17-.01-.37-.26-.55-.35-.1-.05-.19-.09-.3-.13-.4-.13-.62-.1-1.06-.1-.17,0-.13.03-.29.08-.75.2-1.38.88-1.49,1.66-.26,1.81-.18,5.03-.18,6.71,0,.6.07,1.08.07,1.7-.28-.19-.58-.36-.9-.51l-.29-.11s-.02,0-.03-.01l-.22-.07c-.15-.05-.13-.03-.3-.06-.11-.02-.15-.06-.3-.06-.73,0-1.05-.02-1.7.22-.43.16-.8.41-1.12.73-.24.24-.4.61-.52.97-.07.22-.11.37-.11.62,0,.45-.31.96.36,1.05.24.03.46.07.69.11,1.47.3,2.03,1.15,2.31,2.51.05.24.08.44.13.67l.15,1.04c.02.13,0,.24.02.38.02.11.06.18.06.33.02.36.07.53.07.72,0,.44.28,2.06.38,2.45.15.6.33,1.22.63,1.76l.59,1c.27.41.58.73.92,1.08l.32.3c.32.29.7.51,1.06.75.24.16.52.28.8.4,1.28.55,2.78.76,4.17.52l.79-.19c.25-.09.49-.15.73-.25.79-.34,1.52-.78,2.17-1.35l.15-.14c.29-.26.52-.54.76-.84.09-.12.13-.16.22-.29l.35-.56c.27-.46.46-.92.64-1.43.16-.45.26-.89.36-1.34.17-.76.19-1.65.33-2.39.03-.16,0-.33.02-.49l.3-1.91c.02-.09.03-.08.06-.2.07-.37.18-.82.34-1.14.06-.13.1-.18.18-.29l.15-.21s.03-.04.07-.08c.08-.09.16-.13.26-.21l.3-.21c.12-.07.2-.12.33-.18.51-.22,1.5-.31,1.65-.41,0,0,.07-.07.07-.07.03-.05.05-.13.06-.2l-.08-.9c-.04-.13-.04-.27-.09-.42-.11-.37-.27-.69-.53-.95-.26-.25-.5-.46-.83-.62-.95-.47-2.13-.45-3.09-.02-.22.1-.81.49-.93.52,0-.43.08-.85.07-1.27,0-.44.04-.83.04-1.31,0-1.09.05-2.27-.03-3.34-.01-.14,0-.29,0-.43l-.07-1.23c0-.43-.07-.92-.24-1.32-.15-.35-.39-.61-.68-.84-.2-.16-.67-.41-.93-.41h-.69c-.18,0-.04,0-.17.05-.29.08-.59.18-.83.37-.12.09-.13.17-.27.2,0-.43.03-.66-.08-1.01-.08-.26-.22-.5-.38-.7-.16-.19-.37-.37-.59-.5l-.37-.18c-.55-.21-1.25-.16-1.76.14-.36.21-.64.46-.85.82-.25.45-.28.8-.28,1.38Z"/>
  </g>
</svg>