<?xml version="1.0" encoding="UTF-8"?>
<svg id="Layer_2" data-name="Layer 2" xmlns="http://www.w3.org/2000/svg" viewBox="0 0 28.92 28.88">
  <defs>
    <style>
      .cls-1 {
        fill: #000002;
        fill-rule: evenodd;
      }
    </style>
  </defs>
  <g id="Layer_1-2" data-name="Layer 1">
    <path class="cls-1" d="m5.22,6.67c.16.19.42.43.54.6.27.41.05.3.43.74.36.41.61.91.98,1.34.53.62.81.54,1.26,1.01l3.2,3.7c.41.47,1.92,2.06,2.09,2.54-.7,1.1-9.75,10.81-10.08,11.5.14.3.22.36.51.6.71-.36,8.88-10.13,10.23-11.33.51.22,8.99,10.31,10.13,11.51.28-.13.38-.32.57-.55-.15-.45-1.99-2.43-2.41-2.92-.86-1.01-1.65-1.93-2.51-2.93-.76-.89-4.74-5.37-5.04-5.87.22-.48,4.46-5.07,5.29-6.03.5-.57,1.19-.97,1.69-1.74.25-.38.14-.42.55-.61.66-.31.45-.72,1.07-1.26,1.11.19,1.22,0,1.78-.94.61-1.02,3.29-5.39,3.4-5.85-.74.4-3.93,2.94-5.09,3.8-1.01.76-.91.67-.68,2.01-.87,1.09-1.43,1.21-2.34,2.23-.84.95-.5.92-.89,1.43-.59.77-5.31,6.04-5.54,6.12-1.47-1.58-2.79-3.25-4.19-4.87-.34-.4-.62-.67-1.03-1.16-.39-.46-.87-1.37-1.52-1.94-1.32-1.16.03-.59-1.05-1.25-.29-.18-.36-.3-.57-.55.04-.68.44-1.09-.84-2.07C4.31,3.26.32.07,0,0l3.35,5.78c.86,1.52.99.9,1.86.88Z"/>
  </g>
</svg>