<?xml version="1.0" encoding="UTF-8"?>
<svg id="Layer_2" data-name="Layer 2" xmlns="http://www.w3.org/2000/svg" viewBox="0 0 28.78 28.86">
  <defs>
    <style>
      .cls-1 {
        fill: #000002;
        fill-rule: evenodd;
      }
    </style>
  </defs>
  <g id="Layer_1-2" data-name="Layer 1">
    <path class="cls-1" d="m22.01,2.43c.17.52.69,1.04,1.22,1.39-.35,1.04-2.6,2.78-3.47,3.82-1.04-.17-3.47-3.13-8.86-2.6C1,5.9-3.69,17.88,3.43,25.35c7.12,7.12,19.45,2.78,20.49-7.29.35-3.65-1.04-6.6-2.78-8.68.35-.52,1.22-1.56,1.74-2.08,1.04-.69,1.39-1.39,2.08-1.91.52.17.35.17.87.52.17.35.35.52.69.87l2.26-6.77-6.77,2.43h0Zm-11.11,4.86c5.56-.69,10.07,3.65,10.77,8.33.69,5.73-3.65,10.24-8.51,10.94-5.73.69-10.24-3.65-10.77-8.51-.69-5.9,3.47-10.24,8.51-10.77Z"/>
  </g>
</svg>