<?xml version="1.0" encoding="UTF-8"?>
<svg id="Layer_2" data-name="Layer 2" xmlns="http://www.w3.org/2000/svg" viewBox="0 0 28.81 28.85">
  <defs>
    <style>
      .cls-1 {
        fill: #000002;
        fill-rule: evenodd;
      }
    </style>
  </defs>
  <g id="Layer_1-2" data-name="Layer 1">
    <path class="cls-1" d="m13.2.09c-2.2.33-3.51.51-5.56,1.63-1.54.84-2.92,1.93-4.03,3.2C1.37,7.5-.36,11.18.06,15.76c.69,7.46,7.33,13.79,15.65,13.03,4.24-.39,7.55-2.55,9.54-4.87,2.3-2.68,3.8-6.07,3.51-10.74-.12-1.98-.86-4.08-1.64-5.52-1.69-3.15-4.3-5.43-7.68-6.73C17.75.28,15.24-.21,13.2.09h0ZM4.44,19.03l20.02-.06c-.07.54-1.15,2.05-1.55,2.53-.61.74-1.27,1.37-2.15,1.98-1.64,1.15-3.73,1.98-6.25,2-2.57.01-4.67-.79-6.36-1.95-.82-.56-1.55-1.24-2.17-1.97-.39-.46-1.51-1.88-1.54-2.54h0Zm-.57-1.34c-.29-.51-.44-1.95-.5-2.67-.2-2.6.74-5.15,2.15-7.14,1.64-2.3,5.22-4.56,8.04-4.42l-7.25,10.77c-.2.29-2.1,3.33-2.45,3.46h0Zm21.13-.22c-.26-.15-1.05-1.45-1.24-1.72-.87-1.29-8.09-11.82-8.3-12.27,1.14-.11,3.29.72,4.1,1.17,3.42,1.9,5.9,5.34,5.9,9.71,0,.8-.08,2.57-.46,3.11h0Zm-20.3.72c.06-.37.65-1.05.87-1.39l1.82-2.69c.31-.45.67-.93.87-1.33.41.06,1.05.65,1.53.91,2.6,1.42,3.67,1.68,6.67,1.54-.39.82-2.99,1.84-4.11,1.99-2.09.28-3.05-1.2-2.35-1.66.75-.49.69.59.7.62.94.48,1.38-.64.54-1.27-1.63-1.23-3.25.76-2.19,2.19.66.88,1.4.78,1.81,1.05-.24.12-5.29.1-6.17.06h0Zm6.08-8.96c.11-.42,1.56-2.41,1.83-2.82.18-.26,1.64-2.53,1.9-2.72.15.1.02-.02.17.15l1.73,2.55c.29.42.58.86.93,1.36.24.36.76,1.03.89,1.39-1.37-.19-1.4-.58-3.8-.54-2.18.04-2.32.42-3.66.62h0Zm7.96,5.36c.36-.22.87-.44,1.21-.63.4-.24.7-.51,1.07-.7l2.52,3.61c.21.3.71.93.76,1.27h-5.59s.63-.36.63-.36c.59-.4.88-1.13.87-1.88-.21.17-.75.99-1.22.43-.31-.37-.29-1.17-.25-1.73h0Zm-9.01-2c.53-.54,3.31-1.39,4.44-1.36-.21.68-.58,1-.12,1.9.23.46.75.81,1.28.88.73.1,1.29-.25,1.61-.68.52-.7.27-1.1.17-1.83.42.04,1.19.4,1.55.58.22.11.51.28.71.4.43.26.48.24.55.49-1.16.94-3.45,1.59-5.33,1.46-.9-.06-1.98-.36-2.72-.66-.58-.24-1.85-.81-2.14-1.17h0Zm-.86-.57c.08-.24.63-1.07.82-1.3.26-.33.95-.51,1.36-.64,1.04-.35,2.2-.59,3.47-.61,1.16-.02,4.21.31,4.84,1.24.18.27.71.99.77,1.2-.26-.08-.82-.47-1.18-.64-2.39-1.19-5-1.23-7.54-.37-1.16.39-2.12.99-2.53,1.13h0Zm4.31,6.11c.33-.22.96-.29,1.39-.47.43-.18.81-.38,1.21-.63.91-.57,1.83-1.55,2.08-1.64v2.75s-4.68,0-4.68,0h0Zm-.48-17.18c.65-.09,2.22-.24,2.77-.02.11.28.07,1.28.03,1.64-.59.09-.74-.1-1.38,0-.28.04-1.19.11-1.46.11l.04-1.71h0Zm12.07,19.39c.07-.35.4-.87.56-1.22l.49-1.29c.34,0,1.26.39,1.58.59-.1.58-.8,2.23-1.13,2.57-.31-.1-1.29-.47-1.49-.65h0ZM1.37,10.74c.05-.55.73-2.19,1.03-2.58.34.04,1.18.44,1.54.59-.04.26-.43,1-.55,1.29-.13.32-.33,1.07-.48,1.3-.42-.05-1.18-.42-1.54-.6h0Zm2.41,12.04c.27-.34.81-.84,1.14-1.16l1.72,1.78c.23.23.09.01.2.3l-1.13,1.1c-.33-.11-.83-.68-1.08-.93-.29-.3-.77-.76-.86-1.07h0Zm3.96,3.47c.02-.29.47-1.35.64-1.56.34.09.83.42,1.26.6.44.19.86.33,1.27.49-.06.33-.43,1.24-.61,1.55-.49-.01-2.22-.83-2.56-1.08h0ZM24.77,8.52c.2-.17,1.19-.59,1.5-.65.25.26,1.15,2.08,1.08,2.61-.31.14-1.24.54-1.54.57-.25-1.03-.95-2.16-1.03-2.53h0Zm-7.41-5.59c.05-.34.44-1.34.63-1.57.5.03,2.13.68,2.56.95,0,.37-.4,1.11-.53,1.53-.51-.05-1.56-.68-2.66-.92h0Zm0,23.03c.35-.17.92-.29,1.34-.46.38-.15.96-.46,1.3-.53.16.55.54,1.04.58,1.59-.82.27-1.71.92-2.62.91l-.6-1.51h0Zm4.25-2.07c.34-.34.71-.59,1.03-.89l.96-.98c.32.18.92.81,1.16,1.12-.12.35-1.6,1.75-1.98,1.94-.29-.14-.43-.36-.64-.57-.2-.2-.45-.35-.54-.64h0ZM7.69,2.69l.18-.15c.05-.04.07-.05.14-.08.5-.29,1.73-.86,2.24-.89l.59,1.5c-.3.24-.89.37-1.31.55-.39.17-.87.51-1.21.57-.19-.26-.56-1.15-.62-1.49h0Zm-3.92,3.4c.17-.44,1.54-1.78,1.88-1.99.24.09,1.05.89,1.16,1.18l-.15.19s-.12.11-.12.11l-1.63,1.68-1.14-1.16h0Zm17.89-1.11c.09-.22.92-1.04,1.14-1.18.38.14,1.86,1.6,1.99,1.92-.09.16-.92,1.03-1.18,1.13-.29-.19-.71-.75-.96-.98l-.99-.89h0ZM1.41,18.23c.29-.16,1.14-.54,1.51-.63l1.05,2.61-1.54.6c-.31-.6-.9-1.79-1.02-2.58h0Zm11.46,9.67l-.19-.02v-1.66s.72,0,.72,0c.2.19.76.15,1.05.15.32,0,.68-.08.99-.02.04.42.11,1.2-.03,1.51-.57.34-1.84-.06-2.53.03h0Zm13.42-12.08c-.02-.39.06-.95.06-1.39,0-.47-.05-.89-.06-1.36h1.62c.1.75.14,2.04-.02,2.75h-1.59Zm-25.35-.03c.03-.86-.16-1.82.04-2.64.36-.15,1.1-.07,1.55-.05.01.44-.06.94-.06,1.41,0,.35.09,1.02.04,1.3l-1.6-.04.02.03Zm0,0c-.07-.11,0,.1-.08-.18-.15-.56-.03-2.1.02-2.63l1.76.04c.03.42-.06,1.01-.06,1.48,0,.42.12,1.02.05,1.41h-1.48c-.42-.03-.11.03-.23-.15l1.6.04c.05-.27-.04-.95-.04-1.3,0-.47.07-.97.06-1.41-.46-.02-1.2-.1-1.55.05-.19.83-.01,1.78-.04,2.64Z"/>
  </g>
</svg>