<?xml version="1.0" encoding="UTF-8"?>
<svg id="Layer_2" data-name="Layer 2" xmlns="http://www.w3.org/2000/svg" viewBox="0 0 25.26 29.2">
  <defs>
    <style>
      .cls-1 {
        fill: #000002;
        fill-rule: evenodd;
      }
    </style>
  </defs>
  <g id="Layer_1-2" data-name="Layer 1">
    <path class="cls-1" d="m8.01,7.29H0c0,.19.81,1.53.96,1.76.19.31.34.55.52.84l1.52,2.69c1.41,2.37,1.31,1.65.15,3.66l-1.55,2.64c-.19.34-.3.61-.5.93-.18.28-.97,1.57-.97,1.92h7.9c.43,0,.5.42.7.75.58.91,1.6,2.78,2.21,3.83l1.4,2.45c.4.67.22.65.86-.47.16-.27.35-.66.54-.94l2.46-4.28c.25-.41.29-.38.58-.95.14-.28.09-.32.48-.32h8.01c0-.24-.84-1.61-.97-1.81-.52-.8-3.12-5.39-3.12-5.44l3.09-5.42c.15-.24,1.01-1.64,1-1.82h-8.31c-.3-.39-3.82-6.72-4.17-7.16l-.15-.14c-.22.12,0-.03-.12.1l-3.76,6.42c-.11.2-.2.27-.29.41-.17.27-.03.35-.45.35h0Zm-2.98,10.13c.19-.13.25-.3.35-.47.1.09.05-.04.22.29.07.13.08.13.18.29.13.21.25.42.37.64.26.48.52.86.73,1.29l-2.94.02.44-.79c.09-.16.09-.11.12-.35.08-.09.5-.81.52-.91h0Zm-.69-6.96c-.03-.33-.16-.32-.39-.83h2.94c-.33.68-.96,1.61-1.26,2.19-.1.2-.05.17-.24.33-.09-.16-.18-.35-.35-.47-.06-.32-.57-.85-.69-1.21h0Zm9.17,12.86c-.24.11-.24.26-.47.64-.09.15-.11.18-.19.34l-.23.29c-.12-.07-.09-.05-.17-.17l-.69-1.21c-.1-.19-.71-1.13-.74-1.37l3.17.02c-.01.24-.13.25-.22.56-.08.3-.35.61-.47.9h0Zm4.78-3.78c0-.21.05-.23.14-.37.32-.48,1.22-2.21,1.41-2.3.21.22.77,1.29,1.07,1.75.11.17.21.39.32.57.19.3.17.36-.26.36l-2.69-.02h0Zm1.56-7.31c-.22-.1-.65-1.06-.85-1.33-.12-.16-.72-1.13-.71-1.34.51-.06,1.31-.01,1.85-.01,1.19,0,1.39-.12,1.07.39-.26.42-1.2,2.14-1.37,2.29h0Zm-5.86-5.55c.09.31.21.33.22.58l-3.16-.02c0-.1,1.36-2.61,1.58-2.73.37.23.48,1.08.89,1.27.12.29.39.61.47.9h0Zm-4.38,12.86l-2.17-3.71c-.71-1.35-.92-1.05-.35-1.96.15-.24.2-.39.35-.66l1.98-3.42c.05-.09.1-.13.18-.24h6.04c.54.74,1.44,2.52,2.07,3.52,0,.01.04.06.05.07,1.04,1.64.75,1.4.03,2.73l-2.14,3.67h-6.04Z"/>
  </g>
</svg>