<?xml version="1.0" encoding="UTF-8"?>
<svg id="Layer_2" data-name="Layer 2" xmlns="http://www.w3.org/2000/svg" viewBox="0 0 180.34 66.28">
  <defs>
    <style>
      .cls-1 {
        fill: #281352;
        fill-rule: evenodd;
      }
    </style>
  </defs>
  <g id="Layer_1-2" data-name="Layer 1">
    <g>
      <g>
        <path class="cls-1" d="m35.64,63.42c0,.91,0,1.66-.05,2.06-.04.28-.09.49-.28.52-.09.02-.2.04-.29.04-.06,0-.08.03-.08.06,0,.06.05.08.15.08.14,0,.36-.02.55-.02.2,0,.36,0,.38,0,.14,0,.37,0,.74.03.37,0,.89.03,1.61.03.37,0,.45,0,.51-.25.05-.2.12-.85.12-.92,0-.07,0-.14-.06-.14-.05,0-.07.04-.09.14-.07.39-.18.58-.43.69-.25.1-.67.1-.91.1-.93,0-1.07-.12-1.1-.78,0-.2,0-1.3,0-1.63v-.84s.02-.07.07-.07c.16,0,1.1.02,1.36.05.37.04.46.2.49.33.04.12.04.22.04.31,0,.05.02.09.07.09.07,0,.07-.1.07-.18,0-.07.02-.42.04-.61.03-.31.08-.48.08-.53s-.02-.08-.05-.08c-.04,0-.08.05-.14.12-.09.1-.22.11-.45.13-.22.02-1.39.02-1.51.02-.05,0-.06-.03-.06-.1v-2.63c0-.07.02-.1.06-.1.1,0,1.14,0,1.3.03.51.06.61.17.68.32.05.11.06.28.06.34,0,.08.02.12.08.12.04,0,.06-.06.07-.1.02-.11.04-.53.05-.63.03-.27.08-.38.08-.45,0-.05,0-.09-.04-.09-.05,0-.09.04-.13.05-.08.02-.23.04-.41.05-.22,0-2.11,0-2.18,0l-.39-.02c-.21,0-.47,0-.69,0-.1,0-.15.02-.15.08,0,.04.04.06.08.06.09,0,.25,0,.32.03.31.07.39.22.41.54.02.3.02.57.02,2.05v1.67h0Zm6.64-2.16c.26.29,1.2,1.27,2.17,2.29.88.92,2.09,2.11,2.18,2.19.47.43.55.49.64.49.06,0,.07-.05.07-.58l.02-4.74c0-.49.02-.65.29-.7.1-.02.16-.02.2-.02.06,0,.09-.05.09-.08,0-.05-.07-.06-.15-.06-.34,0-.62.02-.72.02s-.49-.02-.88-.02c-.1,0-.16,0-.16.06,0,.03,0,.08.07.08.07,0,.26,0,.41.04.26.05.3.23.31.75l.09,4.05c-.26-.27-1.15-1.23-1.98-2.08-1.29-1.33-2.51-2.63-2.64-2.76-.09-.09-.23-.25-.32-.25-.07,0-.11.09-.11.41v4.63c0,.73-.03.95-.24,1.01-.12.04-.28.05-.34.05-.04,0-.07.03-.07.07,0,.06.05.07.13.07.38,0,.73-.03.81-.03s.41.03.88.03c.1,0,.15-.02.15-.07,0-.04-.03-.07-.07-.07-.08,0-.27,0-.42-.05-.23-.06-.3-.26-.32-.92l-.1-3.81h0Zm8.28,2.57c0,.78,0,1.42-.05,1.75-.04.24-.06.4-.22.43-.08,0-.18.04-.26.04-.05,0-.07.04-.07.07,0,.05.05.07.13.07.13,0,.32,0,.49-.02.18,0,.34,0,.36,0,.12,0,.34,0,.69.02.34,0,.83.03,1.46.03.32,0,.41,0,.47-.21.05-.17.11-.72.11-.78s-.01-.12-.06-.12-.07.03-.09.12c-.05.32-.16.47-.38.56-.22.09-.62.09-.84.09-.83,0-.98-.1-1-.65,0-.16,0-1.1,0-1.38v-.68s0-.06.06-.06c.14,0,1.04,0,1.27.04.32.04.4.13.43.25.04.1.04.19.04.27,0,.05.02.08.06.08.06,0,.08-.09.08-.15,0-.06.02-.36.04-.52.02-.27.07-.4.07-.45s-.02-.07-.05-.07-.07.05-.12.1c-.09.09-.21.09-.41.11-.19.02-1.29.02-1.4.02-.05,0-.05-.03-.05-.09v-2.2c0-.06,0-.09.05-.09.1,0,1.07,0,1.21.03.46.06.54.11.6.25.04.1.05.23.05.29,0,.07.02.1.07.1.04,0,.07-.05.08-.09.02-.09.04-.46.05-.53.02-.23.07-.32.07-.38,0-.04,0-.08-.04-.08-.04,0-.08.03-.11.04-.07,0-.22.04-.38.05-.19,0-1.94,0-2,0-.05,0-.59-.02-.97-.02-.1,0-.13.02-.13.07,0,.03.04.07.07.07.08,0,.22,0,.29.02.28.04.32.17.34.45.02.26.02.49.02,1.74v1.43h0Zm6.04,0c0,.78,0,1.42-.05,1.75-.04.24-.06.39-.22.43-.08.02-.18.04-.26.04-.05,0-.07.04-.07.07,0,.05.05.07.13.07.26,0,.82-.03.83-.03.04,0,.57.03,1.03.03.1,0,.13-.03.13-.07,0-.03,0-.07-.07-.07-.08,0-.26-.02-.37-.04-.26-.04-.3-.19-.33-.43-.04-.33-.04-.96-.04-1.74v-.19s.02-.07.06-.07l1.07.02c.06,0,.08,0,.11.05.18.22.55.74.9,1.18.48.61.78,1,1.14,1.19.21.11.42.16.89.16h.52c.15,0,.2-.02.2-.07,0-.03-.03-.07-.08-.07s-.13,0-.29-.03c-.21-.03-.49-.1-.93-.56-.48-.5-1.07-1.24-1.75-2.09.78-.67,1.03-1.25,1.03-1.85,0-.56-.37-.95-.58-1.1-.44-.3-1.03-.35-1.56-.35-.26,0-.96.02-1.05.02-.05,0-.61-.02-.99-.02-.1,0-.13.02-.13.07,0,.03.04.07.07.07.08,0,.22,0,.29.02.28.04.32.17.34.45.02.26.02.49.02,1.74v1.43h0Zm.72-3.34s.03-.08.07-.1c.09-.02.35-.05.6-.05.89,0,1.45.58,1.45,1.59,0,.62-.22,1.05-.5,1.24-.2.13-.43.14-.63.14-.37,0-.8-.06-.92-.12-.04-.03-.06-.06-.06-.1v-2.6h0Zm10.54,5.02c0,.15-.07.19-.17.25-.22.12-.61.15-.9.15-.77,0-1.47-.23-2.14-.85-.29-.28-.88-1.09-.88-2.24,0-.94.34-1.66.83-2.04.64-.49,1.25-.52,1.75-.52,1.08,0,1.72.32,1.93.63.13.19.18.43.19.53,0,.08,0,.12.06.12.06,0,.1-.04.1-.17,0-.81.05-1.03.05-1.14,0-.04-.02-.08-.1-.08-.21,0-.5-.05-.68-.09-.16-.04-.75-.13-1.28-.13-.64,0-1.47.06-2.23.51-.74.45-1.4,1.36-1.4,2.65,0,1.01.48,1.87,1,2.3.93.79,2.12.87,2.76.87.48,0,1.25-.09,1.78-.36.1-.06.11-.07.11-.44v-.9c0-.34,0-.58,0-.84.02-.29.09-.41.31-.45.09-.02.15-.02.21-.02.03,0,.07-.04.07-.07,0-.06-.04-.07-.13-.07-.26,0-.78.02-.82.02-.05,0-.61-.02-.99-.02-.1,0-.13,0-.13.07,0,.03.04.07.07.07.08,0,.22,0,.29.02.34.07.36.16.36.82v1.4h0Zm4.85-3.11c0-1.26,0-1.48,0-1.74.02-.29.07-.4.3-.45.09-.02.15-.02.21-.02.03,0,.07-.04.07-.07,0-.05-.04-.07-.13-.07-.26,0-.8.02-.84.02-.05,0-.57-.02-.85-.02-.1,0-.13.02-.13.07,0,.03.03.07.07.07.06,0,.16,0,.26.03.18.04.25.16.27.44.02.26.02.49.02,1.74v1.43c0,.78,0,1.42-.05,1.75-.03.24-.06.39-.22.43-.08.02-.18.04-.26.04-.05,0-.07.04-.07.07,0,.05.05.07.13.07.26,0,.78-.03.83-.03.04,0,.58.03,1.05.03.09,0,.13-.03.13-.07,0-.03-.02-.07-.07-.07-.08,0-.26-.02-.38-.04-.25-.04-.28-.19-.3-.43-.04-.33-.04-.97-.04-1.75v-1.43h0Zm3.9,3.4c1.27-1.84,2.48-3.64,3.7-5.51.04-.05.05-.1.05-.14,0-.05-.05-.07-.17-.07h-2.34c-.27,0-.67,0-1.46-.02-.22,0-.28-.06-.35-.06-.05,0-.07.04-.08.15-.05.25-.17.98-.17,1.08,0,.07,0,.1.05.1.05,0,.09-.02.11-.14.03-.19.18-.48.48-.64.27-.14.76-.13,1.19-.13h1.77c-1.15,1.8-2.39,3.6-3.64,5.41-.1.15-.11.21-.11.25,0,.06.06.07.15.07,1.47,0,2.88.04,4.28.04.19,0,.2,0,.25-.21.06-.2.17-.68.17-.93,0-.15-.02-.18-.07-.18s-.08.05-.1.12c-.03.11-.09.33-.17.44-.19.23-.42.37-1.3.37h-2.23Zm6.43-1.97c0,.78,0,1.42-.05,1.75-.04.24-.06.4-.22.43-.08,0-.18.04-.26.04-.05,0-.07.04-.07.07,0,.05.05.07.13.07.13,0,.32,0,.49-.02.18,0,.34,0,.36,0,.12,0,.34,0,.69.02.34,0,.83.03,1.46.03.32,0,.41,0,.47-.21.05-.17.11-.72.11-.78s0-.12-.06-.12-.07.03-.09.12c-.05.32-.16.47-.38.56-.22.09-.62.09-.84.09-.83,0-.98-.1-1-.65,0-.16,0-1.1,0-1.38v-.68s0-.06.06-.06c.14,0,1.04,0,1.27.04.32.04.4.13.43.25.04.1.04.19.04.27,0,.05.02.08.06.08.06,0,.08-.09.08-.15,0-.06.02-.36.04-.52.02-.27.07-.4.07-.45s-.02-.07-.05-.07-.07.05-.12.1c-.09.09-.21.09-.41.11-.19.02-1.29.02-1.4.02-.05,0-.05-.03-.05-.09v-2.2c0-.06,0-.09.05-.09.1,0,1.07,0,1.21.03.46.06.54.11.6.25.04.1.05.23.05.29,0,.07.02.1.07.1.04,0,.07-.05.08-.09.02-.09.04-.46.05-.53.02-.23.07-.32.07-.38,0-.04,0-.08-.04-.08-.04,0-.08.03-.11.04-.07,0-.22.04-.38.05-.19,0-1.94,0-2,0-.05,0-.59-.02-.97-.02-.1,0-.13.02-.13.07,0,.03.04.07.07.07.08,0,.22,0,.29.02.28.04.32.17.34.45.02.26.02.49.02,1.74v1.43h0Zm10.41.7c0,.15,0,.55-.03.95-.02.28-.1.49-.3.52-.09.02-.2.04-.29.04-.06,0-.08.03-.08.06,0,.06.05.08.15.08.29,0,.88-.03.93-.03s.65.03,1.17.03c.1,0,.15-.03.15-.08,0-.03-.02-.06-.08-.06-.09,0-.3-.02-.43-.04-.29-.04-.37-.25-.39-.52-.03-.4-.03-.8-.03-.95v-.82c0-.31,0-.61.14-.95.17-.41,1.5-2.64,1.82-3.02.21-.26.31-.37.5-.49.15-.09.33-.13.44-.13.08,0,.12-.03.12-.08,0-.04-.06-.06-.12-.06-.18,0-.87.03-.92.03-.08,0-.38-.03-.63-.03-.1,0-.15.02-.15.06,0,.05.06.07.14.1.11.03.15.13.15.27,0,.12-.04.29-.16.48-.19.31-1.4,2.4-1.58,2.8-.17-.28-1.6-2.73-1.75-3.01-.08-.14-.12-.26-.12-.37,0-.08.05-.13.12-.17.09-.04.14-.05.14-.09s-.02-.07-.12-.07c-.37,0-.73.03-.8.03-.05,0-.76-.03-.94-.03-.09,0-.12.03-.12.07,0,.05.05.07.1.07.09,0,.27.06.41.15.17.11.41.35.65.7.33.49,1.61,2.59,1.67,2.74.12.28.22.49.22,1v.82h0Zm4.42-1.43c0,1.46.98,3.18,3.27,3.18,2.02,0,3.36-1.49,3.36-3.3s-1.43-3.03-3.31-3.03c-2.31,0-3.32,1.85-3.32,3.16h0Zm.87-.22c0-1.76,1.01-2.64,2.41-2.64,1.32,0,2.5,1.02,2.5,2.96,0,2.34-1.51,2.74-2.26,2.74-1.51,0-2.64-1.18-2.64-3.06h0Zm8.15.7c0,1.18.32,1.74.73,2.12.59.55,1.47.57,1.74.57.49,0,1.14-.07,1.75-.59.67-.57.78-1.55.78-2.43v-.87c0-1.26,0-1.48,0-1.74.02-.27.07-.4.29-.45.1-.02.15-.02.21-.02.04,0,.07-.04.07-.07,0-.05-.04-.07-.13-.07-.25,0-.65.02-.7.02-.05,0-.53-.02-.9-.02-.09,0-.13.02-.13.07,0,.03.03.07.07.07.08,0,.22,0,.29.02.28.04.32.19.33.45,0,.26.02.49.02,1.74v1.02c0,.83-.09,1.49-.48,1.96-.29.34-.78.57-1.29.57-.48,0-.84-.07-1.25-.44-.36-.32-.62-.81-.62-1.98v-1.13c0-1.26,0-1.48.02-1.74.02-.27.07-.41.29-.45.1-.02.15-.02.21-.02.04,0,.08-.04.08-.07,0-.05-.05-.07-.14-.07-.25,0-.77.02-.85.02s-.58-.02-.96-.02c-.1,0-.13.02-.13.07,0,.03.04.07.07.07.08,0,.22,0,.29.02.28.04.32.19.34.45.02.26.02.49.02,1.74v1.19h0Zm8.19.24c0,.78,0,1.42-.05,1.75-.04.24-.06.39-.22.43-.08.02-.18.04-.26.04-.05,0-.07.04-.07.07,0,.05.05.07.13.07.26,0,.82-.03.83-.03.04,0,.57.03,1.03.03.1,0,.13-.03.13-.07,0-.03,0-.07-.07-.07-.08,0-.26-.02-.37-.04-.26-.04-.3-.19-.33-.43-.04-.33-.04-.96-.04-1.74v-.19s.02-.07.06-.07l1.07.02c.06,0,.08,0,.11.05.18.22.55.74.9,1.18.48.61.78,1,1.14,1.19.21.11.42.16.89.16h.52c.15,0,.2-.02.2-.07,0-.03-.03-.07-.08-.07s-.13,0-.29-.03c-.21-.03-.49-.1-.93-.56-.48-.5-1.07-1.24-1.75-2.09.78-.67,1.03-1.25,1.03-1.85,0-.56-.37-.95-.58-1.1-.44-.3-1.03-.35-1.56-.35-.26,0-.96.02-1.05.02-.05,0-.61-.02-.99-.02-.1,0-.13.02-.13.07,0,.03.04.07.07.07.08,0,.22,0,.29.02.28.04.32.17.34.45.02.26.02.49.02,1.74v1.43h0Zm.72-3.34s.03-.08.07-.1c.09-.02.35-.05.6-.05.89,0,1.45.58,1.45,1.59,0,.62-.22,1.05-.5,1.24-.2.13-.43.14-.63.14-.37,0-.8-.06-.92-.12-.04-.03-.06-.06-.06-.1v-2.6h0Zm6.9,5.79c.46,0,.98-.06,1.33-.29.6-.39.78-.9.78-1.38,0-.69-.35-1.26-1.37-1.95l-.24-.16c-.83-.56-1.08-.86-1.08-1.37,0-.57.5-.88,1.11-.88.75,0,1.03.3,1.08.4.05.09.11.3.12.4,0,.07.02.1.08.1s.07-.06.07-.18c0-.55.04-.82.04-.86,0-.05-.02-.06-.09-.06s-.13,0-.29-.04c-.2-.05-.53-.09-.87-.09-1.1,0-1.85.57-1.85,1.52,0,.56.29,1.06,1.2,1.73l.38.29c.74.55,1.06.83,1.06,1.41,0,.61-.43,1.07-1.26,1.07-.56,0-1.19-.21-1.32-.8-.03-.11-.03-.23-.03-.3s-.03-.09-.08-.09-.07.05-.07.13c0,.13-.05.46-.05.86,0,.22,0,.25.12.3.34.16.83.22,1.22.22h0Zm5.08-2.45c0,.78,0,1.42-.05,1.75-.04.24-.06.4-.22.43-.08,0-.18.04-.26.04-.05,0-.07.04-.07.07,0,.05.05.07.13.07.13,0,.32,0,.49-.02.18,0,.34,0,.36,0,.12,0,.34,0,.69.02.34,0,.83.03,1.46.03.32,0,.41,0,.47-.21.05-.17.11-.72.11-.78s0-.12-.06-.12-.07.03-.09.12c-.05.32-.16.47-.38.56-.22.09-.62.09-.84.09-.83,0-.98-.1-1-.65,0-.16,0-1.1,0-1.38v-.68s0-.06.06-.06c.14,0,1.04,0,1.27.04.32.04.4.13.43.25.04.1.04.19.04.27,0,.05.02.08.06.08.06,0,.08-.09.08-.15,0-.06.02-.36.04-.52.02-.27.07-.4.07-.45s-.02-.07-.05-.07-.07.05-.12.1c-.09.09-.21.09-.41.11-.19.02-1.29.02-1.4.02-.05,0-.05-.03-.05-.09v-2.2c0-.06,0-.09.05-.09.1,0,1.07,0,1.21.03.46.06.54.11.6.25.04.1.05.23.05.29,0,.07.02.1.07.1.04,0,.07-.05.08-.09.02-.09.04-.46.05-.53.02-.23.07-.32.07-.38,0-.04,0-.08-.04-.08-.04,0-.08.03-.11.04-.07,0-.22.04-.38.05-.19,0-1.94,0-2,0-.05,0-.59-.02-.97-.02-.1,0-.13.02-.13.07,0,.03.04.07.07.07.08,0,.22,0,.29.02.28.04.32.17.34.45.02.26.02.49.02,1.74v1.43Z"/>
        <path class="cls-1" d="m134.61,62.4c0-1.26,0-1.48,0-1.74.02-.29.07-.41.31-.46.1,0,.22-.02.28-.02.03,0,.07-.03.07-.06,0-.05-.05-.07-.13-.07-.26,0-.88.02-.92.02-.05,0-.57-.02-.95-.02-.1,0-.13.02-.13.07,0,.03.04.07.07.07.08,0,.22,0,.29.02.28.04.32.17.34.45.02.26.02.49.02,1.74v1.43c0,.78,0,1.42-.05,1.75-.04.24-.06.39-.22.43-.08.02-.18.04-.26.04-.05,0-.07.04-.07.07,0,.05.05.07.13.07.13,0,.31,0,.49-.02.16,0,.3,0,.34,0,.25,0,.53,0,.91.02.39.02.86.03,1.46.03.45,0,.48-.03.53-.22.07-.24.12-.72.12-.81s-.02-.12-.06-.12c-.05,0-.08.05-.09.1-.03.16-.1.33-.2.46-.2.24-.57.25-1.01.25-.66,0-.98-.06-1.11-.19-.15-.14-.17-.63-.17-1.82v-1.45h0Zm5.13,1.43c0,.78,0,1.42-.05,1.75-.04.24-.06.4-.22.43-.08,0-.18.04-.26.04-.05,0-.07.04-.07.07,0,.05.05.07.13.07.26,0,.78-.03.83-.03.04,0,.58.03,1.05.03.09,0,.13-.03.13-.07,0-.03-.02-.07-.07-.07-.08,0-.26-.02-.38-.04-.23-.04-.28-.19-.3-.43-.04-.31-.04-.95-.04-1.75v-.65c0-.06,0-.08.06-.08.14,0,1.13,0,1.34.02.26.04.39.14.43.26.04.1.05.21.06.3,0,.04,0,.08.06.08.06,0,.08-.09.08-.16,0-.06,0-.38.03-.54.02-.27.08-.4.08-.45,0-.04,0-.07-.05-.07-.03,0-.07.04-.1.09-.08.1-.19.12-.39.14-.11,0-.24,0-.38,0h-1.14c-.06,0-.06-.02-.06-.07v-2.21c0-.07.02-.09.07-.09l1.37.02c.32,0,.52.13.57.24.05.1.08.24.08.3,0,.06.03.1.07.1s.07-.05.08-.09c.02-.09.03-.46.04-.53.03-.23.07-.32.07-.38,0-.04-.02-.08-.06-.08-.03,0-.07.04-.11.05-.08.03-.22.03-.38.04-.19,0-2.01,0-2.17,0-.05,0-.57-.02-.95-.02-.1,0-.13.02-.13.07,0,.03.04.07.07.07.08,0,.22,0,.29.02.28.04.32.17.34.45.02.26.02.49.02,1.74v1.43Z"/>
      </g>
      <path class="cls-1" d="m74.69,5.69v14.59c0,1.86.22,9.24-.72,10.66-.68,1.03-2.37.26-2.97.98.17.56.25.48,1.27.47l4.68-.12c5.04,0,10.54,1.29,15.26-.34,3.63-1.26,7.1-5.4,5.22-10.57-2.05-5.62-10.82-7.41-12.87-12.02-1.18-2.65,0-4.33.92-6.28-3.03,1.81-4.44,5.45-2.59,8.62,1.24,2.13,3,3.37,4.82,4.81.66.52,1.23.92,1.92,1.42,8.11,5.87,5.46,13.04-3.17,13.04-2.12,0-5.59-.66-6.03-2.49-.58-2.43-.33-20.77-.33-22.62,0-3.35-.76-3.83,3.81-3.8,2.52.02,4.67.07,6.97.7,9.04,2.47,11.97,10.6,10.2,19.08-.77,3.69-2.99,7.04-5.39,9.85,1.68-.27,4.39-1.8,5.49-2.66,5.08-3.98,7.32-11.14,5.54-17.77-1.14-4.25-3.98-7.39-7.28-9.04-6.15-3.07-15.17-1.99-22.1-2.05l-6.31-.12c-1.03.11-1.01.72.14.77,3.68.16,3.5,1.28,3.5,4.91Z"/>
      <polygon class="cls-1" points="90.83 12.31 91.71 12.21 90.83 12.11 90.73 11.23 90.63 12.11 89.76 12.21 90.63 12.31 90.73 13.19 90.83 12.31"/>
      <polygon class="cls-1" points="94.12 6.59 95.01 6.49 94.12 6.39 94.02 5.51 93.92 6.39 93.04 6.49 93.92 6.59 94.02 7.48 94.12 6.59"/>
      <polygon class="cls-1" points="90.65 6.02 91.56 5.91 90.65 5.81 90.55 4.9 90.45 5.81 89.54 5.91 90.45 6.02 90.55 6.93 90.65 6.02"/>
      <polygon class="cls-1" points="94.39 10.76 96.07 10.57 94.39 10.38 94.2 8.7 94.01 10.38 92.33 10.57 94.01 10.76 94.2 12.45 94.39 10.76"/>
      <polygon class="cls-1" points="89.4 10.43 90.85 10.27 89.4 10.1 89.23 8.65 89.07 10.1 87.61 10.27 89.07 10.43 89.23 11.89 89.4 10.43"/>
      <polygon class="cls-1" points="92.53 8.8 96.53 8.34 92.53 7.89 92.07 3.88 91.62 7.89 87.61 8.34 91.62 8.8 92.07 12.8 92.53 8.8"/>
      <path class="cls-1" d="m10.81,41.16v3.12h-.21c-.1-.84-.35-1.42-.73-1.77-.38-.35-.94-.52-1.67-.52h-1.84v10.2c0,.45.03.81.09,1.07.06.26.15.45.27.58.12.13.26.21.43.25.18.04.38.05.61.05h.45v.36H2.65v-.36h.46c.23,0,.43-.02.6-.06.17-.04.31-.13.43-.26.11-.13.2-.33.27-.58.06-.26.09-.6.09-1.04v-10.2h-1.57c-.39,0-.74.03-1.04.1-.3.06-.56.18-.79.35-.22.16-.39.4-.53.7-.13.3-.21.68-.24,1.14h-.35v-3.12h10.81Zm5.78,6.19h6.07v-3.82c0-.32,0-.57-.01-.77,0-.2-.03-.37-.07-.49-.04-.13-.09-.23-.17-.31-.07-.07-.16-.14-.28-.21-.27-.16-.55-.24-.87-.24h-.46v-.36h5.57v.36h-.46c-.12,0-.26.02-.39.05-.14.03-.27.07-.39.13-.12.06-.23.14-.32.22-.09.09-.16.19-.2.31-.06.21-.1.64-.1,1.31v8.61c0,.32,0,.57.02.77.01.2.04.36.07.48.03.13.08.23.15.31.07.07.16.14.27.21.27.16.56.24.88.24h.46v.36h-5.57v-.36h.46c.22,0,.41-.02.58-.05.17-.03.32-.12.44-.25.13-.13.22-.34.28-.6.06-.27.09-.64.09-1.1v-4.07h-6.07v4.07c0,.32,0,.57.02.77,0,.2.03.36.07.48.03.13.09.23.16.3.07.08.17.15.28.22.27.16.56.24.88.24h.48v.36h-5.6v-.36h.47c.53,0,.91-.16,1.16-.49.15-.2.23-.7.23-1.51v-8.61c0-.33,0-.59-.01-.79,0-.2-.03-.36-.07-.49-.04-.12-.09-.22-.16-.3-.07-.07-.16-.14-.27-.21-.26-.16-.56-.24-.87-.24h-.47v-.36h5.6v.36h-.48c-.11,0-.24.02-.38.05-.14.03-.27.07-.39.13-.12.06-.23.14-.32.22-.1.09-.17.19-.21.31-.07.24-.11.67-.11,1.31v3.82h0Zm15.4-5.47v5.29h2.86c.42,0,.76-.04,1.02-.12.26-.08.46-.19.61-.35.15-.16.25-.36.31-.6.05-.25.09-.53.11-.86h.35v4.63h-.35c-.05-.38-.1-.7-.17-.96-.06-.25-.16-.46-.3-.61-.14-.16-.33-.26-.58-.33-.25-.06-.58-.09-1.01-.09h-2.86v4.41c0,.33,0,.6.01.79,0,.2.05.35.11.45.07.1.18.17.32.2.14.03.35.05.63.05h2.21c.37,0,.69-.01.95-.03.26-.02.48-.06.67-.12.19-.06.35-.14.5-.25.15-.1.3-.24.46-.39.38-.39.79-1,1.22-1.85h.39l-1.15,3.35h-10.04v-.36h.46c.12,0,.25-.02.39-.05.13-.03.26-.07.38-.13.12-.06.23-.12.32-.21.09-.09.16-.19.2-.31.07-.22.11-.65.11-1.29v-8.67c0-.85-.08-1.38-.24-1.57-.23-.27-.61-.4-1.16-.4h-.46v-.36h10.04v2.91h-.24c-.09-.48-.2-.87-.31-1.16-.11-.29-.26-.51-.44-.67-.18-.16-.41-.26-.7-.3-.28-.05-.64-.07-1.08-.07h-3.57Zm14.27,12.62v-.36h.51c.22,0,.42-.02.59-.06.17-.04.31-.13.43-.27.11-.14.2-.34.27-.6.06-.27.09-.62.09-1.07v-8.62c0-.82-.09-1.34-.27-1.56-.25-.3-.62-.44-1.1-.44h-.51v-.36h5.33c1.94,0,3.43.23,4.46.69,1.03.46,1.85,1.21,2.46,2.26.62,1.07.94,2.28.94,3.66,0,.99-.16,1.89-.47,2.71-.31.82-.78,1.53-1.4,2.13-.62.6-1.38,1.06-2.3,1.39-.91.34-1.97.5-3.19.5h-5.85Zm3.74-.97c.8.19,1.48.28,2.05.28.74,0,1.42-.14,2.06-.42.63-.28,1.18-.68,1.65-1.19.47-.51.83-1.14,1.09-1.87.27-.74.4-1.56.4-2.47s-.13-1.75-.39-2.48c-.26-.74-.62-1.37-1.09-1.88-.47-.52-1.03-.91-1.67-1.18-.64-.28-1.35-.41-2.12-.41-.56,0-1.22.1-1.97.3v11.32h0Zm17.34.61v.36h-5.57v-.36h.46c.23,0,.43-.02.61-.05.17-.03.32-.12.43-.25.12-.13.21-.34.27-.6.06-.27.09-.64.09-1.1v-8.62c0-.31,0-.56-.02-.76-.01-.2-.04-.37-.07-.49-.03-.13-.08-.23-.15-.31-.07-.07-.16-.14-.28-.21-.28-.16-.58-.24-.88-.24h-.46v-.36h5.57v.36h-.46c-.23,0-.43.02-.61.06-.17.04-.32.13-.43.26-.12.13-.21.34-.27.6-.06.27-.09.63-.09,1.08v8.62c0,.32,0,.57.01.77,0,.2.03.36.07.48.04.13.09.23.17.31.07.07.16.14.28.21.26.16.55.24.87.24h.46Zm15.61-12.98v.36c-.27.05-.51.13-.7.23-.19.11-.36.24-.51.39-.15.16-.27.35-.39.57-.11.22-.23.47-.34.76l-4.56,11.34h-.36l-4.91-11.49c-.14-.36-.27-.65-.39-.87-.12-.22-.25-.4-.39-.52-.15-.13-.32-.22-.52-.27-.2-.06-.46-.1-.76-.13v-.36h5.33v.36c-.31.03-.56.07-.75.13-.19.06-.34.12-.44.2-.1.08-.17.17-.2.26-.03.09-.05.2-.05.32,0,.33.15.85.45,1.54l3.34,7.81,3.08-7.72c.31-.76.46-1.29.46-1.57,0-.21-.1-.4-.31-.58-.21-.18-.56-.31-1.07-.38v-.36h4.01Zm7.39,12.98v.36h-5.57v-.36h.46c.23,0,.43-.02.61-.05.17-.03.32-.12.43-.25.12-.13.21-.34.26-.6.06-.27.09-.64.09-1.1v-8.62c0-.31,0-.56-.02-.76-.01-.2-.04-.37-.07-.49-.03-.13-.08-.23-.15-.31-.07-.07-.16-.14-.28-.21-.28-.16-.58-.24-.88-.24h-.46v-.36h5.57v.36h-.46c-.23,0-.43.02-.61.06-.17.04-.32.13-.43.26-.12.13-.21.34-.27.6-.06.27-.09.63-.09,1.08v8.62c0,.32,0,.57.01.77,0,.2.03.36.07.48.04.13.09.23.17.31.07.07.16.14.28.21.27.16.55.24.87.24h.46Zm1.36-12.98h3.53l7.98,10v-7.69c0-.45-.03-.81-.09-1.07-.06-.27-.15-.46-.27-.59-.12-.13-.27-.21-.44-.25-.17-.04-.37-.05-.59-.05h-.46v-.36h4.57v.36h-.48c-.23,0-.43.02-.6.06-.17.04-.31.13-.43.26-.11.14-.2.34-.26.59-.06.25-.09.6-.09,1.04v11.24h-.35l-8.61-10.74v8.23c0,.46.03.82.09,1.08.06.26.15.46.27.58.12.13.26.21.43.24.18.03.37.05.6.05h.46v.36h-4.57v-.36h.46c.23,0,.43-.02.6-.06.17-.04.32-.13.44-.26.12-.13.21-.33.26-.58.06-.26.09-.6.09-1.04v-9.28c-.19-.24-.35-.42-.48-.56-.13-.14-.25-.25-.36-.34-.11-.09-.24-.17-.37-.22-.13-.06-.3-.13-.5-.19-.19-.06-.47-.09-.84-.09v-.36h0Zm19.7.72v5.29h2.86c.42,0,.76-.04,1.02-.12.26-.08.46-.19.61-.35.15-.16.25-.36.31-.6.05-.25.09-.53.11-.86h.35v4.63h-.35c-.05-.38-.1-.7-.17-.96-.06-.25-.16-.46-.3-.61-.14-.16-.33-.26-.58-.33-.25-.06-.58-.09-1.01-.09h-2.86v4.41c0,.33,0,.6.01.79,0,.2.05.35.11.45.07.1.18.17.32.2.14.03.35.05.63.05h2.21c.37,0,.69-.01.95-.03.26-.02.48-.06.67-.12.19-.06.35-.14.5-.25.15-.1.3-.24.46-.39.38-.39.79-1,1.22-1.85h.39l-1.15,3.35h-10.04v-.36h.46c.12,0,.25-.02.39-.05.13-.03.26-.07.38-.13.12-.06.23-.12.32-.21.09-.09.16-.19.2-.31.07-.22.11-.65.11-1.29v-8.67c0-.85-.08-1.38-.24-1.57-.23-.27-.61-.4-1.16-.4h-.46v-.36h10.04v2.91h-.24c-.09-.48-.2-.87-.31-1.16-.11-.29-.26-.51-.44-.67-.18-.16-.41-.26-.7-.3-.28-.05-.64-.07-1.08-.07h-3.57Zm23.02-1.02v4.6h-.35c-.16-1.24-.56-2.18-1.2-2.83-.64-.66-1.44-.98-2.42-.98-.34,0-.65.06-.93.18-.27.12-.53.27-.74.47-.21.19-.37.41-.49.65-.11.25-.17.5-.17.77,0,.24.05.48.14.7.1.22.4.57.89,1.04.83.54,1.58.98,2.23,1.33.61.35,1.44.86,2.49,1.56.45.35.8.77,1.04,1.25.24.49.36.99.36,1.52s-.1.97-.3,1.42c-.2.45-.48.85-.84,1.18-.36.34-.8.61-1.31.81-.51.2-1.07.3-1.67.3-.38,0-.74-.03-1.07-.09-.06,0-.21-.05-.46-.13-.25-.07-.51-.15-.79-.23-.28-.08-.54-.15-.78-.22-.24-.07-.38-.1-.42-.1-.16,0-.29.05-.38.15-.09.09-.16.3-.21.61h-.35v-4.57h.35c.17.94.4,1.66.68,2.16.14.24.31.45.54.65.23.2.48.38.77.53.28.15.59.27.92.35.33.09.66.13,1,.13.4,0,.77-.06,1.09-.18.32-.12.59-.28.82-.48.23-.2.4-.43.52-.7.12-.27.18-.54.18-.84,0-.34-.09-.67-.27-1-.18-.33-.48-.66-.9-.98-.41-.26-.9-.56-1.47-.9-1.09-.64-2.05-1.25-2.9-1.84-.47-.38-.83-.8-1.07-1.25-.25-.46-.37-.97-.37-1.52,0-.47.1-.92.29-1.34.19-.43.46-.8.8-1.13.34-.32.75-.58,1.22-.76.47-.19.98-.28,1.53-.28.69,0,1.43.17,2.21.51.18.08.33.14.46.19.12.05.23.07.3.06.17,0,.31-.05.42-.15.11-.09.19-.3.24-.61h.35Zm14.42.3v3.12h-.21c-.1-.84-.35-1.42-.73-1.77-.38-.35-.94-.52-1.67-.52h-1.84v10.2c0,.45.03.81.09,1.07.06.26.15.45.27.58.12.13.26.21.43.25.18.04.38.05.61.05h.45v.36h-5.57v-.36h.46c.23,0,.43-.02.6-.06.17-.04.31-.13.43-.26.11-.13.2-.33.27-.58.06-.26.09-.6.09-1.04v-10.2h-1.57c-.39,0-.74.03-1.04.1-.3.06-.56.18-.79.35-.22.16-.39.4-.53.7-.13.3-.21.68-.24,1.14h-.35v-3.12h10.81Zm9.17,8.86h-5.07l-.89,2.11c-.21.52-.32.91-.32,1.17,0,.11.02.2.05.3.03.09.11.17.22.25.11.07.26.14.46.19.2.06.46.09.78.11v.36h-4.12v-.36c.33-.05.59-.12.8-.22.21-.1.38-.23.53-.41.14-.17.27-.39.4-.67.12-.28.27-.61.44-1.02l4.6-10.97h.33l4.55,11.09c.18.46.35.83.51,1.11.16.28.32.5.49.66.17.16.35.27.55.32.2.06.43.1.71.11v.36h-5.15v-.36c.52-.02.86-.11,1.05-.26.19-.15.28-.34.28-.55,0-.29-.14-.75-.39-1.39l-.79-1.92h0Zm-.27-.72l-2.21-5.41-2.27,5.41h4.49Zm19.91,5.2h-3.47l-4.42-6.25c-.16,0-.31.02-.45.02-.13,0-.25.01-.36.01-.09,0-.18,0-.27-.01-.1,0-.2-.01-.31-.02v3.89c0,.47.03.84.09,1.11.06.27.15.47.27.61.12.13.26.21.43.24.17.03.36.05.56.05h.52v.36h-5.63v-.36h.51c.53,0,.93-.18,1.18-.55.13-.22.2-.7.2-1.45v-8.62c0-.82-.09-1.34-.27-1.56-.25-.3-.62-.44-1.1-.44h-.51v-.36h4.77c.7,0,1.31.03,1.82.08.51.06.93.14,1.26.24.32.11.63.26.92.45.29.19.54.42.76.69.22.27.38.57.51.9.12.33.19.69.19,1.07,0,.83-.26,1.54-.78,2.14-.52.6-1.33,1.02-2.43,1.27l2.69,3.83c.31.44.59.8.84,1.09.25.29.49.51.73.68.25.17.5.29.78.37.27.08.59.14.97.18v.36h0Zm-9.28-6.87c.13,0,.24,0,.32.01.09,0,.17,0,.23,0,.62,0,1.17-.08,1.64-.22.47-.15.86-.35,1.18-.62.32-.26.55-.57.71-.93.16-.36.24-.75.24-1.17s-.07-.79-.2-1.13c-.14-.35-.33-.65-.58-.9-.25-.25-.54-.44-.89-.58-.35-.13-.73-.21-1.14-.21s-.9.07-1.52.19v5.53Z"/>
      <path class="cls-1" d="m175.76,38h-.67v-.42h1.77v.42h-.67v2.53h-.42v-2.53h0Zm1.64,2.53v-2.95h.57l.9,2.19.91-2.19h.57v2.95h-.41v-2.17l-.88,2.17h-.37s-.87-2.17-.87-2.17v2.17h-.42Z"/>
      <path class="cls-1" d="m145.3,57.69h-.67v-.42h1.77v.42h-.67v2.53h-.42v-2.53h0Zm1.64,2.53v-2.95h.57l.9,2.19.91-2.19h.57v2.95h-.41v-2.17l-.88,2.17h-.37s-.87-2.17-.87-2.17v2.17h-.42Z"/>
      <path class="cls-1" d="m104.97.76h-.67v-.42h1.77v.42h-.67v2.53h-.42V.76h0Zm1.64,2.53V.34h.57l.9,2.19.91-2.19h.57v2.95h-.41V1.12l-.88,2.17h-.37s-.87-2.17-.87-2.17v2.17h-.42Z"/>
    </g>
  </g>
</svg>