<?xml version="1.0" encoding="UTF-8"?>
<svg id="Layer_2" data-name="Layer 2" xmlns="http://www.w3.org/2000/svg" viewBox="0 0 29.14 29.14">
  <defs>
    <style>
      .cls-1 {
        fill: #000002;
        fill-rule: evenodd;
      }
    </style>
  </defs>
  <g id="Layer_1-2" data-name="Layer 1">
    <path class="cls-1" d="m14.57,0c8.05,0,14.57,6.52,14.57,14.57s-6.52,14.57-14.57,14.57S0,22.62,0,14.57,6.52,0,14.57,0h0Zm0,4.04c-5.82,0-10.53,4.72-10.53,10.53s4.72,10.53,10.53,10.53,10.53-4.72,10.53-10.53-4.72-10.53-10.53-10.53h0Zm0,7.03c-1.93,0-3.5,1.57-3.5,3.5s1.57,3.5,3.5,3.5,3.5-1.57,3.5-3.5-1.57-3.5-3.5-3.5h0Zm0-2.54c-3.34,0-6.04,2.71-6.04,6.04s2.71,6.04,6.04,6.04,6.04-2.71,6.04-6.04-2.71-6.04-6.04-6.04h0Zm0,4.79c-.69,0-1.26.56-1.26,1.26s.56,1.26,1.26,1.26,1.26-.56,1.26-1.26-.56-1.26-1.26-1.26Z"/>
  </g>
</svg>