<?xml version="1.0" encoding="UTF-8"?>
<svg id="Layer_2" data-name="Layer 2" xmlns="http://www.w3.org/2000/svg" viewBox="0 0 29.03 29.03">
  <defs>
    <style>
      .cls-1 {
        fill: #000002;
        fill-rule: evenodd;
      }
    </style>
  </defs>
  <g id="Layer_1-2" data-name="Layer 1">
    <path class="cls-1" d="m12.7,2.98c-.08-.03-.02-.03-.1,0h-.03c-.08.03-.02.03-.1,0l-.1.05c-.08.02.03-.03-.09.02h-.03c-.12.05-.12-.04-.2.07-.08-.03-.02-.03-.1,0h-.03l-.2.07h-.07l-.23.07h-.03c-.06.03-.11.04-.16.07h-.03c-.12.05-.01,0-.09.02,0,0-.03,0-.04.01-.05.02-.04.01-.06.03h-.07l-.1.07h-.03c-.12.05-.01,0-.09.02,0,0-.03,0-.04.01-.05.02-.04.01-.06.03-.06.03-.11.04-.16.07h-.03c-.06.03-.11.04-.16.07h-.03c-.12.08-.07.02-.22.11,0,0-.02.01-.02.01,0,0-.01,0-.02.01h-.03s.01,0-.06.04c0,0-.06.02-.07.03h-.03l-.07.07h-.07l-.1.07h-.03s-.06.02-.07.03c-.06.03-.03.01-.06.04h-.03l-.1.07-.07.07c-.08-.03-.02-.03-.1,0l-.1.07-.1.07s.01,0-.06.04c0,0-.06.02-.07.03h-.03l-.07.07-.23.13h-.03l-.07.07-.1.07s.01,0-.06.04c0,0-.06.02-.07.03l-.1.07-.13.13h-.03s-.02,0-.02.01l-.18.12-.1.07-.07.07-.16.13s-.02,0-.02.01l-.18.12-.07.07-.05.04s-.01,0-.01.01l-.1.08-.07.07-.07.07-.07.07-.13.13-.13.13-.13.13-.26.26-.13.13-.07.07-.07.07-.07.07-.05.06s0,.01,0,.01c-.08.1-.03.07-.11.13l-.13.13-.16.26-.07.07c-.19.14.09,0-.1.13l-.07.07c-.03.06-.03.04-.03.13h-.03l-.1.13c-.19.14.09,0-.1.13l-.16.26c-.19.14.09,0-.1.13-.06.14.02,0-.03.13l-.07.07c-.06.04-.08.1-.1.17l-.03.09c-.08.06-.02,0-.1.17l-.06.13c-.04.08.02.03-.06.09-.04.09,0,.02-.03.09l-.14.3c-.1.07-.01.03-.1.16v.03l-.03.07v.03l-.03.03c-.06.14.02,0-.03.13-.13.09.02-.01-.1.24-.04.08.01-.03-.02.05-.08.18-.03.14-.08.27,0,0,0,.02,0,.02,0,0,0,.01,0,.02l-.07.16.03.03h-.03c-.04.09,0,.05-.05.18-.04.11-.01,0-.03.09,0,.02,0,.06-.01.12-.11.08-.02.08-.07.2-.11.08,0,.07-.07.27,0,0,0,.01,0,.02,0,0,0,.03-.01.03-.05.15,0,.1-.04.2v.03l-.03.03-.03.26v.03c-.06.12-.07.18-.03.26h-.89c-.06.02-.02,0-.06.03-.06-.03-.03-.02-.11-.02-.03,0-.08.01-.11.02h-.03c-.07-.03-.16-.03-.23,0h-.03c-.08-.03-.02-.03-.1,0h-.03c-.08-.03-.02-.03-.1,0h-.03c-.08-.03-.02-.03-.1,0h-.03c-.08-.03-.02-.03-.1,0h-.03c-.08-.03-.02-.03-.1,0h-.03c-.08-.03-.02-.03-.1,0h-.03c-.08-.03-.02-.03-.1,0h-.03c-.08-.03-.02-.03-.1,0h-.03c-.08-.03-.02-.03-.1,0h-.03c-.08-.03-.02-.03-.1,0h-.03c-.08-.03-.02-.03-.1,0h-.03l-.06-.04c.03.43,0,2.42,0,3.12v.51l.07-.03h.03c.08.03.02.03.1,0h.03c.08.03.02.03.1,0h.03c.08.03.02.03.1,0h.03c.08.03.02.03.1,0h.03c.08.03.02.03.1,0h.03c.08.03.02.03.1,0h.03c.08.03.02.03.1,0h.03c.08.03.02.03.1,0h.03c.08.03.02.03.1,0h.03c.08.03.02.03.1,0h.03c.08.03.02.03.1,0h.03c.08.03.02.03.1,0h.03c.08.03.02.03.1,0h.03c.08.03.02.03.1,0h.03c.08.03.02.03.1,0h.03c.08.03.02.03.1,0h.03c.08.03.02.03.1,0h.03c.08.03.02.03.1,0h.03c.08.03.02.03.1,0h.03c.08.03.02.03.1,0h.03c.08.03.02.03.1,0h.03c.1.04.12-.02.12.1,0,.11-.03.07.05.19v.03c.04.1,0,.08.03.22.02.11.06-.02,0,.11.12.09,0,.1.08.25.11.21-.03.16.08.31.07.09-.02-.02.08.26,0,0,0,.01,0,.02.04.13-.04.03.05.17v.03l.25.72c.06.12-.01,0,.04.13h.03c.05.11-.03.03.07.16v.03l.08.19s0,.05.02.07l.05.07s0,.01,0,.02l.17.34v.03l.03.07c.08.06.09.17.13.26.07.05.07.11.11.19.04.07-.05,0,.05.07l.03.07h.03c.04.1.05.2.13.26l.03.07c.08.06.14.26.23.33l.03.07c.11.08.01,0,.06.09l.18.23s.01.04.02.07h.03s.03.04.05.07c0,0,.02.03.02.03.05.08-.03-.04.03.04,0,0,0,0,0,.01l.09.13c.05.06.1.09.15.15.14.15-.04.05.1.16l.07.07.07.07.07.07.03.07h.03l.03.07.07.07h.03l.03.07.07.07c.09.07.01.04.09.11l.04.02h.03l.03.07.07.07h.03l.03.07.07.07h.03l.03.07.07.07h.03l.03.07h.03l.07.07.07.07.07.07h.03l.07.07.23.18c.08.06-.04-.04.03.03l.06.07s.01,0,.02.01c0,0,.08.04.08.04l.03.07h.03l.1.07.15.1s.01,0,.01.01l.1.08.1.07h.03l.03.03.13.1.1.07.1.07h.03l.18.12s.01,0,.02.01h.03l.07.07h.03l.1.07.1.07h.03l.21.12s.01,0,.02.01c.12.08.13.04.26.13l.26.13h.07l.1.07h.03l.07.07h.07s.06.02.07.03c.06.03.03.01.06.04h.07s.06.02.07.03c.06.03.03.01.06.04.06.03.11.04.16.07h.07s.02,0,.02.01.02.01.02.01c.17.09.15.04.29.1h.07s.02,0,.02.01c0,0,.02.01.02.01,0,0,.03.02.04.02.07.03.04.02.07.03.06.02.1.02.17.05h.1s.06.02.07.03c.06.03.03.01.06.04h.07c.09.05.13.02.23.07h.1c.06.03.11.04.16.07h.1c.07.03.22.04.29.07h.1c.06.03.04.02.13.03-.04.1-.01,2.36-.02,2.76v.15s0,.02.02.04h3.57l.02-.7c0-.26.02-2.03-.02-2.12l-.03-.03h.03l.1-.13h.07c.08-.03.08,0,.16-.02,0,0,.09-.02.1-.02.08-.02.01.01.1-.02h.1s.06-.02.07-.03c.06-.03.03-.01.06-.04.13.05-.02.02.12-.01l.21-.06h.07c.06-.03.11-.04.16-.07h.03l.19-.06s.01,0,.02,0c.09-.02-.04-.05.09,0,.03-.02-.01,0,.06-.04,0,0,.06-.02.07-.03h.03c.06-.03.11-.04.16-.07h.07s.02-.02.02-.01l.18-.08s.01,0,.02,0l.14-.06s.02,0,.02-.01c0,0,.02-.01.02-.01,0,0,.01,0,.02-.01h.07s.06-.02.07-.03c.06-.03.03-.01.06-.04h.07l.1-.07h.03c.1-.07.05-.03.12-.06l.14-.07s.09-.03.14-.06l.12-.07h.07l.2-.13s.09-.03.14-.06l.12-.07.1-.07h.03s.05-.05.09-.07c.05-.03.08-.04.13-.06l.03-.07h.07s.05-.04.09-.07l.08-.05s.01,0,.02-.01l.1-.07.03-.03.03-.03h.03l.29-.2.03-.07h.03l.1-.07.16-.13.15-.12s.01,0,.02-.01h.03l.03-.07h.03l.07-.07.07-.07h.03l.07-.07.43-.39c.08-.12.06-.04.14-.13l.15-.16c.06-.08.02-.05.11-.11l.43-.46c.19-.14-.09,0,.1-.13l.07-.07.03-.07c.12-.09-.02.02.07-.08l.29-.38.03-.07.07-.07c.09-.07.02-.03.07-.11l.16-.22.03-.07h.03c.04-.09,0-.02.02-.09.02-.05.04-.06.07-.11.13-.09.01,0,.07-.13l.16-.23v-.03l.03-.07h.03l.05-.14c.06-.11.01-.07.08-.12l.05-.14c.06-.11.01-.07.08-.12.01-.03.02-.07.02-.07l.19-.44c.01-.07.04-.07.08-.14v-.03c.06-.09.03-.07.06-.12.1-.21.02-.1.08-.23,0,0,0-.01,0-.02l.05-.12c.1-.14,0-.13.08-.22l.12-.37c.11-.15,0-.11.08-.25.05-.09.02,0,.04-.08,0,0,0-.06,0-.07l.06-.31c.02-.11.05-.04.07-.16l.08-.43v-.1c.11-.16,0-.12.08-.19,0,0,.01,0,.02-.01l.04-.02c.08.03.02.03.1,0h.03s.01.03.07.02c.07,0,.02,0,.06-.02.08.03.02.03.1,0h.03c.08.03.02.03.1,0h.03c.08.03.02.03.1,0h.03c.08.03.02.03.1,0h.03c.08.03.02.03.1,0h.03c.08.03.02.03.1,0h.03c.08.03.02.03.1,0h.03c.08.03.02.03.1,0h.03c.08.03.02.03.1,0h.03c.08.03.02.03.1,0h.03c.08.03.02.03.1,0h.03c.08.03.02.03.1,0h.03c.08.03.02.03.1,0h.03c.08.03.02.03.1,0h.03c.08.03.02.03.1,0h.03c.08.03.02.03.1,0h.03c.08.03.02.03.1,0h.03c.08.03.02.03.1,0h.03c.08.03.02.03.1,0h.03c.08.03.02.03.1,0,.02-.04.03-.39.03-.86v-1.87c0-.34,0-.6,0-.7,0-.12.03-.03-.02-.14-.08-.03-.02-.03-.1,0h-.03c-.08-.03-.02-.03-.1,0h-.03c-.08-.03-.02-.03-.1,0h-.03c-.08-.03-.02-.03-.1,0h-.03c-.08-.03-.02-.03-.1,0h-.03c-.08-.03-.02-.03-.1,0h-.03c-.08-.03-.02-.03-.1,0h-.03c-.08-.03-.02-.03-.1,0h-.03c-.08-.03-.02-.03-.1,0h-.03c-.08-.03-.02-.03-.1,0h-.03c-.08-.03-.02-.03-.1,0h-.03c-.08-.03-.02-.03-.1,0h-.03c-.08-.03-.02-.03-.1,0h-.03c-.08-.03-.02-.03-.1,0h-.03c-.08-.03-.02-.03-.1,0h-.03c-.08-.03-.02-.03-.1,0h-.03c-.08-.03-.02-.03-.1,0h-.03c-.08-.03-.02-.03-.1,0h-.03c-.08-.03-.02-.03-.1,0h-.03c-.08-.03-.02-.03-.1,0h-.03c-.08-.03-.02-.03-.1,0h-.03c-.08-.03-.02-.03-.1,0h-.03c-.09-.07-.03,0-.05-.07,0,0,0-.08-.01-.12l-.03-.03v-.03c0-1.47-1.55-4.24-2.42-5.3-.04-.06-.03-.04-.08-.09l-.07-.1s0-.01,0-.01l-.04-.05c-.05-.07.03,0-.07-.08l-.03-.07-.13-.13-.13-.13-.07-.07-.07-.07-.07-.07-.07-.07-.07-.07-.07-.07-.07-.07-.07-.07-.13-.13-.13-.13h-.03l-.07-.07-.11-.09s-.05-.04-.07-.05c-.04-.03-.04-.03-.08-.06l-.07-.07-.1-.07-.07-.07-.07-.07-.1-.07s.01,0-.06-.04c0,0-.06-.02-.07-.03l-.07-.07-.1-.07-.13-.13h-.03l-.23-.13-.07-.07-.1-.07h-.07l-.07-.07h-.03l-.07-.07s-.06-.03-.06-.03c0,0-.01,0-.02,0l-.16-.09h-.03s-.05-.05-.09-.07c-.05-.03-.08-.04-.13-.06h-.03s-.05-.05-.09-.07c-.05-.03-.08-.04-.13-.06l-.1-.07c-.11-.05-.03.03-.16-.07h-.03l-.1-.07h-.03s-.06-.02-.07-.03c-.06-.03-.03-.01-.06-.04-.14-.09-.05-.02-.16-.07h-.03l-.07-.07h-.1l-.1-.07c-.12-.05-.01,0-.09-.02,0,0-.03,0-.04-.01-.05-.02-.04-.01-.06-.03-.06-.03-.11-.04-.16-.07h-.03c-.12-.05-.01,0-.09-.02,0,0-.03,0-.04-.01-.05-.02-.04-.01-.06-.03-.06-.03-.11-.04-.16-.07h-.03c-.12-.05-.01,0-.09-.02,0,0-.03,0-.04-.01-.05-.02-.04-.01-.06-.03h-.13c-.14-.09-.05-.02-.16-.07h-.03l-.2-.07h-.13c-.06-.03-.11-.04-.16-.07h-.16c-.06-.03-.11-.04-.16-.07h-.16c-.08-.06-.05-.13-.05-.35,0-.33.02-2.5-.02-2.59-.03-.01-.13-.02-.27-.03h-3.29l-.02.07c-.03.4.04,2.77-.02,2.9h0Zm.74-2.25h2.15c.09.31-.04,2.31.03,2.89,3.28.3,6.12,2.21,7.76,4.48,1.04,1.45,1.89,3.41,2.03,5.3.61.08,2.56-.07,2.89.03v2.15c-.31.09-2.31-.04-2.89.03-.1,1.31-.59,2.77-1.11,3.8-1.57,3.11-4.83,5.67-8.68,5.98-.08.61.07,2.56-.03,2.89h-2.15c-.09-.31.04-2.31-.03-2.89-3.86-.31-7.11-2.88-8.69-6.01-.52-1.02-1-2.48-1.1-3.78-.61-.08-2.56.07-2.89-.03v-2.15c.31-.09,2.31.04,2.89-.03.46-5.07,4.7-9.33,9.79-9.79.08-.61-.07-2.57.03-2.89h0Zm-.02,12.68h-7.58c-.22-4.19,3.62-7.77,7.58-7.58v7.58h0Zm-.7-6.77v5.96h-6.2c.47-3.15,3.01-5.61,6.2-5.96h0Zm2.89,6.77v-7.58c3.97-.18,7.81,3.39,7.58,7.58h-7.58Zm.7-6.77c3.18.35,5.73,2.81,6.2,5.96h-6.2v-5.96h0Zm-2.89,8.96v7.58c-3.97.18-7.81-3.39-7.58-7.58h7.58Zm-.7,6.77c-3.18-.35-5.73-2.81-6.2-5.96h6.2v5.96h0Zm2.89-6.77h7.58c.22,4.19-3.62,7.77-7.58,7.58v-7.58h0Zm.7,6.77v-5.96h6.2c-.47,3.15-3.01,5.61-6.2,5.96Z"/>
  </g>
</svg>