<?xml version="1.0" encoding="UTF-8"?>
<svg id="Layer_2" data-name="Layer 2" xmlns="http://www.w3.org/2000/svg" viewBox="0 0 28.9 28.93">
  <defs>
    <style>
      .cls-1 {
        fill: #000002;
        fill-rule: evenodd;
      }
    </style>
  </defs>
  <g id="Layer_1-2" data-name="Layer 1">
    <path class="cls-1" d="m8.27,25.33c.17-.23,6.11-4.47,6.11-4.47.32,0,.52.24.85.49.88.66,5.24,3.75,5.41,3.98-.34.46-3.33,1.45-4.33,1.56-1.59.17-2.08.13-3.64,0l-.81-.16c-.74-.1-3.32-1.03-3.59-1.4h0Zm10.65-7.67c-.34.03-1.19.74-1.49.97l-1.05.74c-.18.13-.19.09-.22.38.28.08.84.56,1.12.74l1.59,1.16c.23.15.31.21.51.38.22.18.86.67,1.09.69-.03-.37-.63-2.05-.8-2.55-.14-.42-.27-.83-.39-1.25-.1-.32-.37-.97-.37-1.27h0Zm-10.5,5.07c.35-.03.11.03.37-.16l.77-.57c.36-.27.67-.5,1.04-.75.39-.27.68-.52,1.07-.79.23-.16.86-.66,1.07-.71-.03-.3-.04-.26-.26-.41-.48-.32-2.11-1.65-2.49-1.68,0,.31-.01.18-.07.38l-1.12,3.42c-.1.3-.35.95-.37,1.27h0Zm3.65-11.47h4.77l1.04,3.35c.12.41.3.65.3,1.19l-3.72,2.61c-.63-.33-2.11-1.54-2.72-1.97l-1-.64c0-.72,1.33-3.97,1.34-4.54h0ZM1.94,14.38c0,2.85.78,5.34,2.47,7.59.29.39,1.29,1.63,1.63,1.72l1.81-5.49c.17-.56.44-1.2.58-1.81-.53-.36-1.05-.73-1.55-1.13-.51-.41-1.04-.7-1.56-1.12l-2.33-1.7c-.24-.17-.59-.46-.82-.52,0,.35-.05.26-.12.55l-.11,1.91h0Zm20.93,9.31c.39-.1.73-.69,1.06-1.02.43-.43,1.37-1.81,1.65-2.38.44-.9.89-2.02,1.11-2.99l.18-.87c.1-.46.12-2.27.11-2.73-.02-.85-.2-1.45-.22-1.79-.28.08-.57.36-.81.53l-3.11,2.25c-.29.19-.51.37-.77.57-1.8,1.35-1.64.83-1.27,2.09l1.48,4.55c.1.31.18.58.29.9.1.31.19.62.32.87h0Zm-2.98-9.24c-.16-.3-1.03-2.84-1.04-3.2h5.44c-.14.19-.81.64-1.06.8-.79.52-2.68,2.05-3.34,2.4h0Zm-15.27-3.2h5.44c0,.27-.23.85-.31,1.11-.12.38-.23.73-.37,1.12-.56,1.54.27,1.27-3.93-1.57-.19-.13-.72-.51-.83-.66h0Zm9.76-7.08h.15c.02.29.1.38.19.63l1.3,4c.26.73.31.51-3.05.51-.37,0-.09-.45.14-1.13l1.28-4.01h0Zm1.49-2.16c0,.56.68,2.16.86,2.79l1.45,4.51h7.67c-.02-.24-.02-.13-.06-.24-.14-.38-.45-.85-.66-1.2-1.61-2.7-5.05-5.23-8.08-5.7-.25-.04-.25-.03-.44-.08l-.74-.08h0Zm-5.14,7.3l1.34-4.1c.2-.61.97-2.8.97-3.2-.52,0-.75.08-1.25.17l-1.62.47c-.3.12-.44.19-.73.31-.9.36-1.98,1.02-2.67,1.58-.86.69-1.43,1.26-2.13,2.11-.34.41-.61.8-.89,1.27-.14.24-.27.44-.39.65-.12.21-.28.49-.3.74h7.67ZM0,13.86C0,15.38-.02,15.08.16,16.6c.05.46.18.99.28,1.43.41,1.7,1.23,3.28,2.16,4.69l1.58,1.92c1.86,1.86,3.99,3.05,6.5,3.78.98.28,1.39.26,2.2.4,1.2.21,2.64.07,3.84-.08l1.41-.3c3.2-.93,6.22-2.83,8.09-5.62.44-.66.95-1.39,1.26-2.17.5-1.25,1.04-2.41,1.24-3.9.34-2.63.19-4.78-.72-7.29-.79-2.17-2.45-4.62-4.29-6.07-.36-.28-.57-.49-.97-.75-.71-.47-1.34-.91-2.17-1.25-1.03-.42-1.27-.62-2.5-.92-.46-.11-.98-.23-1.42-.29-2.38-.31-4.09-.22-6.44.45-1.89.54-3.55,1.58-5.06,2.76-.84.65-1.93,1.85-2.51,2.71-1.12,1.67-1.7,2.85-2.19,4.73-.12.45-.24.99-.3,1.41C.09,12.8,0,13.29,0,13.86Z"/>
  </g>
</svg>