<?xml version="1.0" encoding="UTF-8"?>
<svg id="Layer_2" data-name="Layer 2" xmlns="http://www.w3.org/2000/svg" viewBox="0 0 148.89 148.89">
  <defs>
    <style>
      .cls-1, .cls-2 {
        fill-rule: evenodd;
      }

      .cls-1, .cls-2, .cls-3, .cls-4 {
        stroke-width: 0px;
      }

      .cls-1, .cls-3 {
        fill: #1a1351;
      }

      .cls-2 {
        fill: #d5ae62;
      }

      .cls-4 {
        fill: #fff;
      }
    </style>
  </defs>
  <g id="Layer_1-2" data-name="Layer 1">
    <g>
      <path class="cls-1" d="m145.07,51.11c-1.85-5.52-6.74-15.71-10.06-20.1-1.97-2.61-3.82-4.94-5.94-7.33-.34-.38-.65-.57-1.01-.93-3.47-3.42-3.99-4.09-7.97-7.23-5.49-4.32-11.74-7.81-19.4-10.86-1.41-.56-3.13-1.13-5.02-1.68-6.66-1.85-13.55-2.87-20.69-2.92l.03,29.98-.04,4.4c-.1,1.39-.03,3.59.02,5.02.43.44,1.32,1.02,1.82,1.38l32.69,23.75c1.9,1.36,1.14,1.2,4.84.35l21.69-4.85c3.58-.79,7.44-1.52,10.97-2.46l-1.93-6.54Z"/>
      <path class="cls-1" d="m2.62,54.46l-.7,3.1c2.66.4,18.58,4.16,21.64,4.86l13.46,3.04c1.33.31,1.34-.08,2.23-.71,1.29-.92,2.56-1.89,3.85-2.78,1.3-.9,2.52-1.86,3.85-2.79,3.75-2.62,7.85-5.85,11.52-8.38.82-.56,14.64-10.81,15.44-11.09v-5.96s.03-5.91.03-5.91c-.01-8.18.09-19.66.03-27.83-8.41.02-17.58,1.55-25.47,4.6-3.79,1.47-6.91,2.9-10.28,4.75-3.93,2.16-5.66,3.51-9.07,5.98-.8.58-1.3,1-2.07,1.65-.71.6-1.31,1.07-1.99,1.73-.71.7-1.21.93-1.95,1.78-.96,1.1-2.74,2.59-3.69,3.75-1.57,1.91-2.59,2.83-4.26,5.13-.28.38-.56.7-.84,1.1-5.87,8.31-8.34,14.48-11.72,24"/>
      <path class="cls-2" d="m33.39,136.49c.54-.51,4.3-6.47,5.01-7.58l12.44-19.11c.87-1.31.22-1.9-.68-4.76-2.02-6.46-4.21-12.75-6.23-19.17-2.02-6.41-4.29-12.72-6.23-19.19L1.7,58.57c-1.94,7.47-2.13,18.02-1.03,25.93,2.08,14.96,8.33,28.12,17.62,38.82,4.25,4.89,6.24,6.39,10.93,10.25.79.65,3.31,2.56,4.17,2.92"/>
      <path class="cls-2" d="m115.39,136.5c1.52-.23,8.28-6.1,9.93-7.67,4.79-4.55,9.97-10.53,13.26-16.52l2.1-3.7c.55-1.1,1.52-2.89,1.93-4.03l1.74-4.27c1.55-3.4,2.97-10.38,3.67-14.13,1.27-6.87,1.22-19.51-.54-26.54-.04-.17-.05-.23-.11-.37-.18-.43-.11-.25-.27-.46l-33.46,7.37c-.46.11-1.39.26-1.89.4-.71.21-.62.58-.88,1.39-.74,2.32-1.57,4.52-2.24,6.81-.62,2.14-1.41,4.69-2.22,6.83-.81,2.12-1.48,4.67-2.23,6.81-.78,2.23-1.55,4.67-2.24,6.8-.5,1.53-4.36,13.35-4.29,13.77.14.75,7.52,11.66,8.81,13.84,1.4,2.37,3.76,5.61,5.34,8.26.56.94,1.24,1.81,1.8,2.71.56.9,1.2,2.01,1.8,2.71"/>
      <path class="cls-1" d="m34.4,137.16c1.19,1.03,6.55,3.84,8.16,4.57,10.13,4.61,19.99,7.11,31.74,7.15,11.08.04,22.34-2.49,31.84-7.04,1.6-.77,7.33-3.62,8.3-4.68l-17.84-27.61c-3.58-.17-7.52-.02-11.15-.02h-30.89c-.81,0-2.08-.24-2.55.34-.27.33-.81,1.26-1.07,1.68l-7.77,11.96c-1.09,1.7-8.58,12.93-8.78,13.66"/>
      <path class="cls-4" d="m25.49,51.32l-5.96-3.84.56-.86c.66-.12,1.38-.25,2.14-.39.42-.08,1.15-.22,2.19-.4,1.04-.18,1.76-.31,2.17-.36l-4.08-2.63.25-.33.2-.36,5.98,3.85-.49.74c-.86.14-1.73.28-2.6.42-.9.15-1.74.29-2.53.45l-1.61.31,4.23,2.72-.27.32-.2.37Z"/>
      <path class="cls-4" d="m30.75,39.98l-1.96,2.23c.45.4.86.62,1.23.68.44.07.83-.09,1.17-.49.14-.16.25-.35.32-.56.07-.21.11-.43.12-.66l.16-.03.29.56c-.06.54-.27,1.01-.63,1.42-.56.64-1.17.97-1.82.98-.65.02-1.3-.26-1.95-.83-.56-.49-.87-1.05-.94-1.67-.07-.62.14-1.21.63-1.76.51-.58,1.06-.83,1.66-.76.53.06,1.1.36,1.71.89m-2.33,1.9l1.01-1.15c-.33-.28-.6-.49-.84-.6-.39-.19-.67-.18-.85.02-.22.25-.22.56,0,.93.15.26.38.53.69.8Z"/>
      <path class="cls-4" d="m31.66,37.77c.29.28.56.44.79.49.21.05.38,0,.51-.14.19-.2.2-.46.03-.76-.1-.18-.29-.41-.57-.67-.22-.21-.42-.36-.61-.44-.28-.13-.51-.1-.67.07-.2.2-.21.46-.04.78.1.19.29.42.56.68m.93-3.47l.34.33-.67.65c.48-.05.88.08,1.22.4.4.39.57.83.5,1.33-.07.47-.33.94-.78,1.42l-.12.13c-.1.1-.14.19-.14.26,0,.07.02.13.04.17.02.04.04.08.07.11.14.14.3.18.47.13.17-.05.34-.17.52-.35l.63-.62c.37-.39.74-.59,1.09-.6.31,0,.62.13.93.43.52.49.72,1.08.62,1.77-.09.61-.39,1.19-.91,1.73-.37.39-.75.65-1.14.78-.5.18-.93.1-1.29-.24-.2-.19-.32-.41-.36-.66-.04-.25,0-.5.11-.76l.04-.18h-.11c-.32.16-.62.1-.91-.17-.16-.15-.26-.37-.29-.64-.03-.27,0-.5.09-.66l.08-.14c-.76.49-1.46.43-2.11-.19-.4-.38-.55-.81-.45-1.28.1-.47.41-.97.91-1.49l.75-.74.87-.91Zm1.64,6.7s.05.1.1.15c.05.05.09.1.14.15.27.26.58.36.93.3.31-.06.6-.23.87-.5.26-.27.39-.57.39-.9,0-.33-.11-.6-.33-.81-.31-.3-.63-.39-.96-.26-.2.08-.48.31-.83.67-.21.22-.34.4-.4.55-.08.21-.05.43.09.65Z"/>
      <path class="cls-4" d="m37.54,32.01l1.83,2.15c.13.15.24.22.33.23.1,0,.22-.06.38-.2l.15.18c-.06.13-.14.28-.24.45-.1.17-.2.29-.29.37-.18.15-.38.24-.61.25-.23.02-.45-.04-.66-.16.05.27.03.53-.06.79-.09.25-.25.47-.46.65-.34.29-.68.43-1.03.42-.38,0-.71-.17-.99-.51-.3-.36-.41-.72-.33-1.09.07-.3.32-.75.75-1.35.09-.13.17-.24.22-.33.09-.14.14-.26.18-.37,0-.08,0-.15-.02-.21-.02-.06-.06-.13-.12-.2-.16-.18-.37-.28-.65-.29-.27,0-.51.07-.7.23-.23.19-.39.44-.49.75-.08.25-.1.44-.05.56l-.06.05-.52-.4c.04-.31.16-.63.35-.95.19-.31.42-.58.68-.81.4-.34.79-.54,1.19-.62.5-.1.9.04,1.21.4m.22,2.48l-.65-.77c-.11.19-.2.35-.27.46-.12.21-.2.4-.23.55-.03.16-.02.31.03.44.05.14.14.28.27.43.15.18.31.3.48.36.17.06.33.03.49-.1.22-.19.31-.42.25-.69-.05-.21-.17-.44-.38-.69Z"/>
      <path class="cls-4" d="m39.91,29.51l1.71,2.41c.2.28.36.46.49.54.13.08.28.06.46-.07.11-.07.22-.18.33-.31l.23.33c-.25.37-.5.64-.74.82-.4.29-.78.36-1.14.22-.29-.11-.6-.39-.91-.83l-1.61-2.27-.58.41c-.02-.06-.05-.12-.09-.17-.04-.05-.06-.09-.08-.12l-.07-.09s-.04-.06-.06-.08c-.03-.04-.05-.07-.07-.09l.56-.4-.68-.96c.1-.16.23-.37.38-.63.15-.26.29-.5.41-.73l1.05,1.48.71-.51c.03.05.07.11.1.16.04.06.06.09.08.12.03.05.06.09.09.13.05.07.08.12.1.14l-.7.5Z"/>
      <path class="cls-4" d="m40.13,26.37c-.12-.18-.15-.38-.11-.61.04-.23.16-.4.34-.52.18-.12.39-.16.61-.11.22.04.4.16.52.35.12.19.16.39.11.61-.05.22-.17.4-.36.52-.19.12-.39.16-.61.11-.22-.05-.39-.17-.5-.36m3.84,5.77l-2.73-4.22c.1-.05.22-.11.35-.19.13-.07.22-.12.27-.16.13-.08.24-.16.34-.24.1-.08.18-.14.24-.19l2.73,4.23c-.11.05-.18.09-.23.12-.22.11-.35.19-.4.22-.13.08-.24.16-.34.24-.1.08-.18.14-.24.19Z"/>
      <path class="cls-4" d="m45.13,25.66l2.66,2.68c-.07-.63-.14-1.26-.22-1.88-.09-.71-.18-1.35-.27-1.89l.38-.16.35-.21s.04.08.04.14c0,.06,0,.1,0,.12,0,.21.02.48.04.82.01.17.02.34.03.51.05.62.1,1.25.16,1.87.06.7.14,1.34.24,1.92-.11.04-.21.08-.29.11-.08.03-.15.06-.21.09-.1.05-.19.1-.26.15-.08.05-.14.09-.19.12-.28-.27-.7-.68-1.27-1.23-.65-.63-1.08-1.04-1.28-1.22-.3-.28-.75-.68-1.34-1.21.1-.05.25-.12.42-.18.18-.07.28-.11.31-.13.1-.05.19-.1.25-.14.26-.16.4-.25.43-.27"/>
      <path class="cls-4" d="m48.2,22.06c-.09-.2-.09-.4-.02-.62.08-.22.22-.37.42-.46.2-.09.41-.1.63-.02.22.08.37.22.46.43.09.2.1.41.02.62-.08.21-.23.37-.44.46-.21.09-.42.1-.62.02-.21-.08-.36-.23-.45-.43m2.94,6.29l-2.07-4.59c.11-.04.24-.08.38-.14.14-.05.24-.09.29-.12.14-.06.26-.13.37-.19.11-.06.2-.11.26-.15l2.06,4.59c-.11.04-.19.06-.25.09-.23.08-.37.13-.43.16-.14.06-.26.13-.37.19-.11.06-.19.12-.26.15Z"/>
      <path class="cls-4" d="m53.81,22.5l.96,2.79c.11.32.22.54.32.65.1.12.26.14.47.07.13-.04.26-.12.41-.22l.13.39c-.35.29-.66.48-.95.58-.47.16-.86.13-1.16-.11-.25-.19-.46-.54-.64-1.05l-.9-2.63-.66.23c-.01-.06-.03-.12-.05-.18-.02-.06-.04-.11-.05-.14l-.04-.11s-.02-.07-.03-.1c-.02-.05-.03-.08-.04-.11l.65-.22-.38-1.11c.14-.12.32-.28.54-.49.22-.21.42-.4.6-.58l.59,1.72.84-.29c.01.06.03.12.05.19.02.06.03.11.04.13.02.05.03.1.05.15.03.08.05.13.06.17l-.82.28Z"/>
      <path class="cls-4" d="m57.92,28.49l.57-2.93-3.34-4.26c.11-.03.25-.06.44-.09.19-.04.3-.06.33-.07.11-.03.25-.08.43-.14.18-.07.28-.1.32-.11.34.49.68.96,1.01,1.41.26.35.61.81,1.04,1.37l.1-1.12c.03-.37.07-.75.11-1.14.04-.38.07-.77.08-1.16l.42-.08.4-.14-.39,2.57c-.06.4-.15,1.02-.26,1.85-.11.83-.19,1.46-.24,1.91-.07.57-.13,1.21-.19,1.91l-.43.09-.41.14Z"/>
      <path class="cls-4" d="m89.07,133.66l-1.83.48,1.5,2.1.33-2.58Zm-2.22-.08l2.34-.61c.06-.66.1-1.15.12-1.47.02-.31.03-.58.04-.82l.48-.07.47-.18-1.05,7.73-.39.07-.37.13-4.62-6.25c.12-.03.29-.07.5-.1.21-.04.34-.06.38-.07.12-.03.28-.08.49-.16.2-.07.32-.11.36-.12.27.44.48.76.62.98.23.36.44.66.64.93Z"/>
      <path class="cls-4" d="m83.19,132.16l.79,4.97c-.11,0-.24.01-.38.02-.14.01-.25.02-.31.04-.15.02-.28.05-.39.08-.11.03-.2.06-.28.07l-.12-.76c-.18.3-.38.54-.6.72-.25.21-.53.34-.84.39-.61.1-1.07-.02-1.38-.36-.27-.29-.46-.77-.57-1.45l-.48-3c.12,0,.2-.01.26-.02.24-.02.39-.03.46-.04.15-.02.29-.05.41-.09.12-.03.22-.06.29-.08l.41,2.55c.09.55.2.94.33,1.16.18.29.44.41.77.36.39-.06.61-.33.67-.8.03-.27,0-.67-.07-1.19l-.38-2.36c.12,0,.2-.01.26-.02.24-.02.39-.03.46-.04.15-.02.29-.05.41-.09.12-.03.22-.06.29-.08"/>
      <path class="cls-4" d="m74.76,133.1l1.11,1.74c.08-.14.25-.45.52-.92.23-.41.41-.73.53-.96l.42.03.41-.08-1.51,2.4c.31.49.67,1.03,1.08,1.62.02.03.25.37.7,1.01-.12,0-.28,0-.48,0-.2,0-.32,0-.37,0-.12,0-.29.03-.48.06-.2.03-.32.05-.36.05-.16-.26-.33-.53-.5-.81-.17-.28-.34-.53-.49-.77-.16.26-.32.54-.5.83-.14.24-.3.53-.48.86h-.47s-.46.06-.46.06c.28-.39.55-.77.81-1.14.23-.33.48-.7.74-1.1l-.63-.94c-.42-.62-.84-1.23-1.27-1.85.12,0,.28,0,.48,0,.2,0,.33,0,.38,0,.12,0,.28-.03.48-.06.2-.03.32-.04.36-.05"/>
      <path class="cls-4" d="m71.94,140.01c0,.21-.1.4-.26.56-.17.16-.36.24-.58.23-.22,0-.41-.09-.57-.26-.16-.16-.23-.36-.23-.59,0-.22.09-.41.26-.57.17-.16.37-.23.6-.22.23,0,.42.1.57.27.15.17.22.36.21.58m.15-6.93l-.19,5.03c-.12-.02-.25-.04-.4-.06-.15-.02-.25-.03-.32-.03-.15,0-.29,0-.42,0-.12.01-.23.02-.3.02l.19-5.03c.12.02.2.03.26.03.24.03.39.04.46.05.15,0,.29,0,.42,0,.12-.01.22-.02.3-.02Z"/>
      <path class="cls-4" d="m64.89,135l2.96.31c.06-.6,0-1.06-.16-1.39-.2-.4-.56-.62-1.08-.67-.21-.02-.43,0-.64.06-.21.06-.42.15-.61.28l-.11-.1.29-.56c.47-.26.98-.37,1.52-.31.85.09,1.47.39,1.86.91.39.52.54,1.21.45,2.07-.08.74-.35,1.31-.82,1.73-.47.41-1.07.58-1.8.51-.76-.08-1.29-.38-1.59-.92-.26-.47-.35-1.1-.26-1.91m2.9.81l-1.54-.16c-.04.43-.05.77,0,1.03.07.42.24.65.52.68.33.04.59-.14.77-.53.12-.27.21-.61.25-1.02Z"/>
      <path class="cls-4" d="m61.69,136.32l.58-2.9c.07-.33.08-.57.06-.72-.03-.15-.15-.25-.37-.29-.13-.03-.28-.03-.46-.02l.08-.4c.44-.07.81-.08,1.1-.02.49.1.8.32.94.68.12.29.12.7.02,1.23l-.55,2.73.7.14c-.03.06-.05.12-.06.18-.01.06-.02.11-.03.14l-.02.11s-.01.07-.02.1c0,.05-.02.08-.02.11l-.67-.14-.23,1.14c-.18.03-.42.08-.72.15-.29.07-.56.13-.81.19l.36-1.77-.86-.17c.02-.06.04-.12.06-.18.02-.06.03-.11.04-.14.01-.06.02-.11.03-.15.02-.08.03-.14.04-.17l.84.17Z"/>
      <path class="cls-4" d="m61.11,128.97l-1.93,2.28.82,5.36c-.11-.03-.25-.07-.43-.14-.18-.07-.29-.1-.32-.11-.11-.03-.25-.05-.44-.08-.19-.03-.3-.05-.33-.05-.06-.59-.12-1.17-.19-1.73-.06-.44-.13-1.01-.23-1.71l-.64.93c-.21.31-.43.62-.65.94-.22.32-.43.64-.64.98l-.4-.14-.42-.07,1.6-2.06c.25-.32.63-.82,1.13-1.49.5-.67.89-1.18,1.15-1.54.34-.47.7-.99,1.1-1.57l.42.14.43.08Z"/>
      <path class="cls-3" d="m28.6,120.28l4.31-4-.6-.65c-.54-.58-1.1-.87-1.7-.87-.71,0-1.49.39-2.32,1.17-.69.64-1.06,1.27-1.1,1.89-.04.58.2,1.15.72,1.71l.69.74Zm.62,1.55l-2.42-2.6c-.71-.76-1-1.58-.88-2.46.11-.77.5-1.47,1.19-2.11.84-.78,1.76-1.14,2.76-1.07.95.06,1.8.49,2.55,1.3l1.98,2.13-5.18,4.81Z"/>
      <path class="cls-3" d="m24.89,109.05l1.7,2.44c.49-.34.81-.69.95-1.03.17-.4.11-.82-.2-1.26-.12-.18-.28-.32-.46-.45-.19-.12-.39-.22-.61-.28v-.16s.61-.15.61-.15c.51.18.92.5,1.23.95.49.7.66,1.36.52,2-.14.64-.56,1.2-1.27,1.7-.61.42-1.22.59-1.84.51-.62-.09-1.14-.43-1.56-1.03-.44-.63-.55-1.23-.34-1.8.18-.5.61-.98,1.27-1.44m1.29,2.72l-.88-1.26c-.35.25-.61.47-.78.67-.28.33-.34.61-.18.83.19.27.49.35.91.23.29-.08.6-.24.93-.47Z"/>
      <path class="cls-3" d="m28.77,105.59l-6.74,3.65c-.04-.11-.09-.22-.15-.35-.06-.13-.1-.23-.14-.29-.07-.13-.14-.25-.21-.34-.07-.09-.12-.17-.16-.24l.8-.43c-.34.04-.64,0-.91-.12-.27-.12-.48-.34-.65-.64-.33-.61-.35-1.19-.07-1.75.24-.48.68-.9,1.32-1.25.77-.42,1.47-.56,2.1-.42.57.13.99.45,1.26.96.15.29.22.55.2.8-.02.25-.09.49-.22.73l2.89-1.57c.04.11.08.19.11.24.1.22.16.36.19.42.07.14.14.25.21.36.07.1.13.19.17.25m-3.94-.52c-.18-.26-.46-.39-.84-.37-.38.02-.81.16-1.3.43-.57.31-.95.59-1.16.84-.25.3-.29.6-.13.89.19.35.54.47,1.07.38.35-.06.75-.21,1.18-.45.42-.23.74-.45.95-.68.33-.35.41-.7.23-1.04Z"/>
      <path class="cls-3" d="m23.72,101.64l-4.64,1.96c-.03-.11-.07-.24-.12-.38-.05-.14-.08-.24-.11-.3-.06-.14-.12-.26-.18-.38-.06-.11-.11-.2-.15-.26l1.19-.5c-.45.05-.82.02-1.11-.11-.36-.16-.64-.46-.82-.9.17-.05.39-.12.63-.22.25-.1.48-.19.69-.28l.11.05c-.02.08-.02.16,0,.26.02.1.05.19.08.28.09.22.22.38.4.49.18.11.38.15.6.12.08,0,.18-.03.3-.07.12-.04.26-.1.42-.17l.41-.17,1.73-.73c.03.11.06.2.08.25.08.23.12.38.15.43.06.14.12.26.18.37.06.11.11.2.15.26"/>
      <path class="cls-3" d="m18.39,94.82l1.02,2.79c.57-.21.96-.46,1.19-.75.27-.35.32-.77.13-1.27-.07-.2-.19-.38-.34-.55-.15-.17-.33-.31-.53-.43l.04-.15h.63c.45.32.76.73.95,1.25.29.8.29,1.49,0,2.07-.3.58-.85,1.02-1.66,1.32-.69.25-1.33.26-1.91.02-.58-.24-.99-.71-1.24-1.4-.26-.72-.22-1.33.13-1.83.3-.44.83-.79,1.59-1.07m.55,2.96l-.53-1.44c-.4.15-.71.3-.93.45-.35.25-.48.5-.38.76.11.31.39.46.82.45.3,0,.64-.08,1.02-.22Z"/>
      <path class="cls-3" d="m19.26,93.53l-.07-.25c.24-.16.41-.36.52-.61.1-.24.12-.5.05-.77-.05-.19-.15-.35-.31-.48-.16-.13-.33-.18-.5-.13-.25.06-.41.32-.48.76-.12.74-.2,1.16-.24,1.25-.18.48-.52.79-1.02.92-.5.13-.93.06-1.3-.2-.37-.26-.62-.63-.75-1.11-.07-.26-.09-.52-.08-.81.02-.28.07-.54.17-.77h.95s.07.29.07.29c-.22.1-.39.26-.51.49-.12.23-.15.46-.09.68.05.2.15.36.28.48.14.12.3.16.5.11.25-.07.4-.32.47-.78.09-.72.16-1.14.21-1.27.18-.48.53-.79,1.07-.93.48-.12.91-.05,1.3.22.39.27.66.7.81,1.31.14.52.12,1.02-.05,1.49l-1,.1Z"/>
      <path class="cls-3" d="m18.32,89.52l-.05-.25c.25-.15.42-.34.54-.58.11-.24.14-.49.09-.76-.04-.19-.14-.36-.29-.5-.15-.14-.32-.19-.5-.16-.25.05-.42.3-.52.73-.16.73-.26,1.15-.3,1.24-.21.47-.56.76-1.06.87-.5.1-.93.02-1.29-.26-.36-.28-.59-.66-.69-1.15-.05-.26-.06-.53-.03-.81.03-.28.1-.54.21-.76l.95.06.06.29c-.22.09-.4.24-.53.47-.13.22-.17.45-.13.68.04.2.13.37.26.5.13.13.29.17.49.13.25-.05.42-.3.5-.75.13-.71.22-1.13.27-1.26.2-.47.57-.77,1.11-.88.48-.1.91,0,1.29.28.37.29.62.74.75,1.35.11.53.07,1.03-.13,1.49l-1.01.05Z"/>
      <path class="cls-3" d="m12.02,85.8c-.21.02-.41-.04-.59-.19-.18-.14-.28-.33-.3-.55-.02-.22.04-.42.18-.6.14-.18.33-.28.56-.3.22-.02.42.04.6.19.18.15.27.33.3.56.02.23-.04.43-.19.59-.15.17-.33.27-.55.29m6.89-.74l-5.01.46c0-.12,0-.25,0-.4,0-.15,0-.25-.01-.32-.01-.15-.03-.29-.06-.41-.02-.12-.04-.22-.06-.3l5.01-.46c0,.12,0,.2,0,.26,0,.24,0,.39.01.46.01.15.03.29.06.41.03.12.05.22.06.3Z"/>
      <path class="cls-3" d="m13.97,80.14c.02.38.24.66.68.81.37.13.9.18,1.58.15.54-.02.96-.09,1.27-.2.52-.18.77-.47.75-.87-.02-.36-.29-.62-.81-.77-.43-.13-.99-.17-1.66-.14-.56.02-.99.11-1.3.26-.36.18-.53.44-.52.77m4.75-.13c.03.77-.16,1.39-.59,1.86-.43.48-1.03.73-1.79.76-.83.04-1.5-.16-2.01-.58-.51-.42-.78-1.03-.82-1.83-.04-.79.16-1.42.58-1.89.42-.47,1.02-.73,1.79-.76.81-.04,1.47.16,1.98.58.54.45.82,1.07.86,1.86Z"/>
      <path class="cls-3" d="m18.45,76.51l-5.01-.48c.02-.11.05-.23.07-.37.02-.14.04-.24.05-.31.01-.15.02-.28.02-.4,0-.12,0-.21,0-.29l.76.07c-.24-.25-.42-.51-.54-.76-.14-.3-.19-.6-.16-.91.06-.61.29-1.03.69-1.25.34-.19.86-.25,1.54-.18l3.03.29c-.03.12-.04.2-.05.26-.04.24-.07.39-.08.45-.01.15-.02.29-.02.41,0,.13,0,.23,0,.3l-2.57-.25c-.56-.05-.96-.04-1.2.03-.33.1-.51.32-.54.66-.04.39.16.68.6.85.26.1.64.18,1.16.23l2.37.23c-.03.12-.04.2-.05.26-.04.24-.07.39-.07.45-.01.15-.02.29-.02.41,0,.13,0,.23,0,.3"/>
      <path class="cls-4" d="m104.78,29.35l-1.86,2.88c-.1-.06-.18-.12-.24-.17-.24-.18-.37-.28-.39-.3-.1-.06-.23-.14-.4-.23-.17-.09-.26-.14-.28-.15l3.86-5.99,3.32,2.14c-.05.06-.11.12-.16.18-.05.06-.1.12-.13.17-.03.04-.06.11-.1.2-.04.09-.07.16-.1.21-.36-.3-.66-.54-.9-.72-.24-.18-.59-.42-1.03-.7l-1.21,1.88.92.59c.2.13.36.22.47.28.11.06.32.16.64.32-.05.06-.11.12-.16.18-.05.06-.1.12-.13.17-.03.04-.06.11-.1.19-.04.09-.07.16-.1.21-.17-.13-.34-.27-.51-.41-.17-.14-.34-.26-.5-.36l-.91-.59Z"/>
      <path class="cls-4" d="m110.7,34.86l-2.33-1.84c-.37.47-.58.89-.61,1.26-.05.44.14.82.55,1.15.17.13.36.23.58.3.21.06.44.1.67.1l.04.15-.54.31c-.54-.03-1.02-.22-1.45-.56-.67-.53-1.03-1.12-1.08-1.76-.05-.65.19-1.31.73-1.99.46-.58,1-.92,1.62-1.02.62-.1,1.22.08,1.79.54.6.48.88,1.02.85,1.62-.03.53-.3,1.11-.8,1.75m-2.02-2.24l1.21.96c.27-.34.45-.63.56-.87.17-.39.15-.68-.07-.85-.26-.21-.58-.19-.94.04-.25.16-.5.4-.76.72Z"/>
      <path class="cls-4" d="m115.2,37.37l-1.95,2.05c-.13.14-.2.26-.19.36,0,.1.09.22.24.36l-.17.17c-.14-.04-.29-.11-.47-.19-.18-.08-.31-.17-.4-.25-.17-.16-.28-.36-.32-.58-.04-.22,0-.45.09-.68-.27.08-.53.09-.79.02-.26-.06-.49-.19-.69-.38-.32-.31-.5-.63-.53-.98-.03-.38.1-.72.4-1.04.33-.34.68-.49,1.05-.45.31.04.78.24,1.41.6.14.08.26.14.35.19.14.07.27.11.38.14.08,0,.15-.02.21-.04.06-.03.12-.08.18-.14.17-.18.24-.4.22-.67-.02-.27-.12-.49-.3-.67-.22-.2-.48-.34-.79-.41-.26-.06-.45-.05-.57,0l-.05-.05.35-.56c.32,0,.65.09.98.24.33.16.63.35.88.59.38.36.62.73.74,1.12.15.49.06.9-.27,1.25m-2.44.47l.69-.73c-.2-.09-.37-.16-.48-.22-.22-.1-.42-.15-.58-.17-.16-.01-.31.01-.44.08-.13.07-.26.17-.4.31-.16.17-.27.34-.31.52-.05.18,0,.33.16.48.21.2.45.26.71.18.21-.07.42-.22.64-.45Z"/>
      <path class="cls-4" d="m113.56,41.1l3.85-3.25c.06.1.14.21.23.33.09.12.15.21.19.25.1.12.19.22.28.3.09.09.16.16.22.21l-.98.83c.41-.18.77-.26,1.09-.22.39.05.74.25,1.05.61-.15.1-.33.23-.54.4-.21.17-.4.32-.57.47l-.12-.02c0-.08-.03-.16-.07-.25-.05-.09-.1-.17-.16-.24-.15-.18-.33-.29-.53-.34-.2-.05-.4-.03-.61.06-.08.03-.16.08-.27.16-.1.08-.22.17-.35.28l-.34.29-1.44,1.22c-.07-.1-.11-.17-.15-.21-.14-.2-.23-.32-.27-.37-.1-.12-.19-.22-.29-.3-.09-.09-.17-.16-.22-.21"/>
      <path class="cls-3" d="m134.78,72.21l-6.31.29c.02.44.05.82.08,1.13.03.31.09.73.17,1.23-.08-.01-.16-.02-.24-.03-.08,0-.15,0-.21,0-.05,0-.12.01-.22.03-.1.02-.17.03-.23.04l-.18-3.93,7.06-.33c0,.12,0,.27,0,.46,0,.19-.01.3,0,.32,0,.12.01.21.02.29.04.3.06.46.06.49"/>
      <path class="cls-3" d="m132.17,78.52c.02-.38-.18-.67-.6-.87-.36-.16-.88-.26-1.57-.29-.54-.03-.97,0-1.28.08-.53.13-.81.4-.83.8-.02.36.23.65.74.84.42.16.97.26,1.64.29.56.03,1-.02,1.31-.14.38-.15.57-.39.58-.72m-4.74-.3c.04-.77.29-1.37.76-1.8.47-.44,1.09-.63,1.86-.6.83.04,1.48.29,1.95.76.47.47.69,1.1.65,1.89-.04.79-.29,1.4-.75,1.84-.46.43-1.08.63-1.86.6-.81-.04-1.45-.29-1.92-.76-.5-.49-.73-1.14-.69-1.93Z"/>
      <path class="cls-3" d="m127.27,81.65l4.93,1.04c-.04.11-.07.23-.12.36-.04.14-.07.24-.08.31-.03.15-.05.28-.06.39,0,.11-.02.21-.03.29l-.75-.16c.21.28.36.55.45.82.1.31.12.62.06.93-.13.6-.4.99-.83,1.16-.36.15-.88.15-1.55.01l-2.98-.63c.04-.11.06-.2.07-.25.07-.23.11-.38.12-.44.03-.15.05-.28.07-.41.01-.12.02-.22.03-.3l2.53.53c.55.12.95.15,1.2.1.34-.06.54-.26.61-.59.08-.39-.09-.69-.51-.91-.24-.13-.62-.25-1.13-.36l-2.34-.49c.04-.11.06-.2.07-.25.07-.23.11-.38.12-.44.03-.15.05-.29.06-.41.01-.12.02-.22.03-.3"/>
      <path class="cls-3" d="m127.31,92.25l.89-2.83c-.57-.18-1.04-.22-1.39-.12-.43.11-.72.42-.88.92-.06.21-.09.42-.08.64.02.22.06.44.14.65l-.13.09-.48-.39c-.16-.52-.16-1.03,0-1.56.26-.81.68-1.36,1.27-1.64.59-.28,1.3-.29,2.12-.03.71.22,1.21.61,1.53,1.15.31.54.36,1.17.13,1.86-.23.73-.64,1.19-1.22,1.37-.51.16-1.15.12-1.92-.13m1.37-2.68l-.46,1.46c.41.13.75.2,1.01.21.43.02.69-.1.77-.37.1-.32-.03-.6-.37-.86-.24-.18-.56-.33-.95-.45Z"/>
      <path class="cls-3" d="m131.49,96.51l-7.4-2.74c.05-.11.09-.18.11-.24.11-.22.17-.36.19-.41.05-.14.09-.27.12-.39.03-.12.06-.22.07-.29l7.4,2.74c-.05.1-.11.22-.17.36-.06.14-.1.23-.12.29-.05.14-.1.27-.13.39-.03.12-.06.22-.08.29"/>
      <path class="cls-3" d="m129.92,97.79c.2.08.34.23.43.44.09.21.09.42,0,.62-.09.2-.24.35-.45.44-.21.09-.42.09-.63,0-.2-.09-.35-.24-.43-.45-.09-.21-.08-.42,0-.63.09-.21.24-.35.45-.43.21-.08.42-.07.62.01m-6.42-2.63l4.63,1.98c-.06.1-.12.22-.19.35-.07.13-.11.23-.14.29-.06.14-.11.27-.15.39-.04.12-.07.21-.09.29l-4.63-1.98c.06-.1.1-.18.12-.23.11-.21.18-.35.21-.41.06-.14.11-.27.14-.39.03-.12.06-.22.09-.29Z"/>
      <path class="cls-3" d="m122.57,97.7l4.41,2.41c-.07.09-.14.2-.21.32-.08.12-.13.21-.17.27-.07.13-.13.25-.17.36-.04.11-.08.2-.11.27l-.67-.37c.12.32.19.63.2.91,0,.33-.06.63-.21.9-.29.54-.67.83-1.13.87-.39.04-.89-.11-1.49-.43l-2.67-1.45c.07-.1.12-.17.14-.22.13-.2.22-.33.25-.39.07-.13.13-.26.18-.37.05-.11.09-.21.12-.28l2.26,1.23c.49.27.86.41,1.11.44.34.04.59-.1.75-.39.19-.35.12-.69-.22-1.02-.19-.19-.52-.41-.98-.66l-2.09-1.14c.07-.1.12-.17.14-.22.13-.2.22-.33.25-.39.07-.13.13-.26.18-.37.05-.11.09-.21.12-.28"/>
      <path class="cls-3" d="m119.43,107.79l1.66-2.45c-.5-.34-.94-.51-1.31-.52-.44-.02-.81.19-1.11.63-.12.18-.2.38-.25.59-.04.22-.06.45-.03.68l-.15.05-.36-.52c-.01-.54.14-1.04.44-1.49.48-.7,1.04-1.11,1.68-1.2.64-.1,1.32.09,2.04.58.61.42.99.93,1.13,1.54.14.61,0,1.22-.4,1.83-.43.64-.95.96-1.55.96-.53,0-1.13-.22-1.8-.67m2.07-2.18l-.86,1.26c.36.24.66.4.91.49.41.14.69.1.84-.13.19-.27.15-.58-.11-.92-.18-.24-.44-.47-.78-.7Z"/>
      <path class="cls-3" d="m117.89,107.8l-.16.2c-.27-.09-.54-.1-.79-.03-.25.07-.46.21-.64.43-.12.15-.18.33-.19.54,0,.21.06.37.2.48.2.16.5.13.89-.08.66-.36,1.04-.55,1.14-.58.49-.15.94-.07,1.35.24.4.31.62.7.64,1.15.02.45-.12.88-.43,1.27-.16.21-.36.39-.59.55-.23.16-.47.27-.72.33l-.56-.75.18-.23c.21.11.44.14.69.09.25-.05.45-.16.59-.35.13-.16.2-.34.21-.52.01-.18-.06-.33-.22-.46-.2-.16-.5-.12-.9.11-.62.37-1,.57-1.13.61-.49.16-.95.07-1.39-.27-.39-.3-.59-.69-.62-1.15-.03-.47.15-.95.54-1.44.33-.43.73-.72,1.21-.88l.69.73Z"/>
      <path class="cls-3" d="m115.32,110.97l-.18.19c-.26-.11-.52-.15-.78-.11-.26.04-.48.17-.67.37-.13.14-.21.32-.24.52-.03.21.03.37.16.49.19.17.48.17.89,0,.69-.29,1.08-.45,1.18-.48.51-.11.94.01,1.32.36.38.35.55.75.53,1.2-.02.45-.2.86-.54,1.23-.18.19-.39.36-.64.5-.25.14-.49.23-.74.27l-.5-.8.2-.21c.2.13.43.18.68.16.26-.02.46-.12.62-.29.14-.15.23-.32.26-.5.03-.18-.03-.34-.17-.47-.19-.17-.49-.17-.9.02-.66.31-1.05.48-1.18.51-.5.11-.95-.02-1.36-.4-.36-.34-.53-.74-.51-1.21.02-.47.24-.93.66-1.39.37-.39.8-.65,1.29-.76l.61.78Z"/>
      <path class="cls-3" d="m54.55,76.13v-6.64c.11,0,.25,0,.43.02.17.02.27.02.3.02.11,0,.2,0,.27,0,.28-.03.43-.04.46-.04v6.64c-.11,0-.2,0-.27,0-.28-.03-.43-.04-.46-.04-.11,0-.25,0-.43.02-.17.02-.27.02-.3.02"/>
      <path class="cls-3" d="m60.34,70.18v5.95c-.11,0-.2,0-.27,0-.28-.03-.43-.04-.45-.04-.11,0-.25,0-.43.02-.17.02-.27.02-.3.02v-5.95c-.34,0-.64.01-.9.03-.25.02-.56.06-.91.1.01-.09.02-.17.03-.24,0-.07.01-.13.01-.18,0-.09,0-.17-.02-.24-.01-.07-.02-.12-.03-.17h4.99c-.01.09-.02.17-.03.24,0,.07-.01.12-.01.17,0,.1,0,.18.02.25.01.07.02.12.03.17-.47-.06-.76-.09-.85-.1-.29-.03-.58-.04-.88-.04"/>
      <path class="cls-3" d="m65.8,76.13v-6.64c.11,0,.25,0,.43.02.17.02.27.02.3.02.11,0,.2,0,.27,0,.28-.03.43-.04.45-.04v2.62c.23,0,.51,0,.87.02.35.02.56.02.61.02.23,0,.41,0,.55,0,.57-.03.88-.04.93-.04v-2.62c.11,0,.25,0,.43.02.17.02.27.02.3.02.11,0,.2,0,.27,0,.28-.03.43-.04.45-.04v6.64c-.11,0-.2,0-.27,0-.28-.03-.43-.04-.45-.04-.11,0-.25,0-.43.02-.17.02-.27.02-.3.02v-3.24c-.23,0-.41,0-.55,0-.56-.03-.87-.04-.93-.04-.23,0-.52,0-.87.02-.35.02-.56.02-.61.02v3.24c-.11,0-.2,0-.27,0-.28-.03-.43-.04-.46-.04-.11,0-.25,0-.43.02-.17.02-.27.02-.3.02"/>
      <path class="cls-3" d="m73.25,69.49h3.69c-.01.07-.02.15-.03.22,0,.08-.01.14-.01.19,0,.05,0,.11.02.2.01.09.02.16.03.21-.33-.05-.67-.08-1.02-.1-.35-.02-.76-.03-1.21-.03v2.08h1.01c.25,0,.45,0,.59-.01.14,0,.34-.03.6-.07-.01.07-.02.15-.03.22,0,.08-.01.14-.01.19,0,.05,0,.11.02.2.01.09.02.16.03.21-.15-.02-.35-.04-.58-.06-.23-.02-.43-.03-.61-.03h-1.01v2.46c.46,0,.86-.01,1.21-.03.35-.02.69-.06,1.02-.1-.01.07-.02.15-.03.22,0,.08-.01.14-.01.19,0,.05,0,.11.02.2.01.09.02.16.03.21h-3.69v-6.59Z"/>
      <path class="cls-3" d="m79.56,69.49v5.9c.41,0,.77,0,1.06-.03.29-.02.68-.05,1.16-.11-.01.07-.02.15-.03.22,0,.08-.01.14-.01.19,0,.05,0,.11.02.2.01.09.02.16.03.21h-3.67v-6.59c.11,0,.25,0,.43.02.17.02.27.02.3.02.11,0,.2,0,.27,0,.28-.03.43-.04.45-.04"/>
      <path class="cls-3" d="m84.33,70.02v2.66c.14,0,.25,0,.33,0,.08,0,.18-.03.31-.06.3-.08.52-.25.67-.5.13-.22.19-.49.19-.81,0-.37-.09-.68-.26-.92-.17-.24-.39-.36-.64-.36h-.6Zm0,3.19v2.91c-.11,0-.2,0-.27,0-.28-.03-.43-.04-.46-.04-.11,0-.25,0-.43.02-.17.02-.27.02-.3.02v-6.64h2.38c1.38,0,2.07.55,2.07,1.64,0,.81-.28,1.37-.84,1.69-.46.26-1.18.4-2.16.4Z"/>
      <path class="cls-3" d="m91.47,70.74h-.15c-.1-.26-.24-.47-.43-.62-.19-.15-.42-.22-.69-.22-.36,0-.63.09-.8.26-.17.17-.26.4-.26.69,0,.35.25.66.76.94.92.5,1.39.77,1.42.79.51.4.76.92.76,1.55s-.24,1.13-.72,1.53c-.48.4-1.09.6-1.85.6-.28,0-.56-.03-.83-.1-.27-.07-.51-.17-.73-.31.08-.27.14-.49.17-.65.04-.17.07-.35.11-.57h.18c.07.33.23.59.46.78.24.19.53.28.87.28.32,0,.59-.09.81-.26.22-.17.32-.42.32-.74,0-.41-.25-.75-.75-1.02-.46-.25-.93-.49-1.38-.73-.5-.38-.76-.9-.76-1.56,0-.59.19-1.06.56-1.43.41-.4.96-.6,1.67-.6.32,0,.63.05.92.15.29.1.49.2.61.32-.07.19-.13.34-.16.46-.06.22-.11.38-.15.49"/>
      <path class="cls-3" d="m49.67,81.3v5.95c-.11,0-.2,0-.27,0-.28-.03-.43-.04-.46-.04-.11,0-.25,0-.43.02-.17.02-.27.02-.3.02v-5.95c-.34,0-.64.01-.9.03-.25.02-.56.06-.91.1.01-.09.02-.17.03-.24,0-.07.01-.13.01-.18,0-.09,0-.17-.02-.24-.01-.07-.02-.12-.03-.17h4.99c-.01.09-.02.17-.03.24,0,.07-.01.12-.01.17,0,.1,0,.18.02.25.01.07.02.12.03.17-.47-.06-.76-.09-.85-.1-.29-.03-.58-.04-.88-.04"/>
      <path class="cls-3" d="m54.99,81.02c-.69,0-1.22.26-1.58.77-.38.54-.57,1.34-.57,2.41,0,.71.15,1.3.46,1.77.36.55.88.82,1.56.82s1.25-.31,1.64-.94c.35-.57.52-1.29.52-2.16,0-.71-.15-1.32-.46-1.81-.37-.58-.89-.87-1.57-.87m3.64,2.86c0,.98-.34,1.8-1.02,2.46-.71.69-1.64,1.03-2.8,1.03-1.09,0-1.96-.3-2.61-.91-.65-.61-.97-1.45-.97-2.54,0-1,.33-1.82,1-2.47.7-.68,1.64-1.01,2.82-1.01,1.25,0,2.19.39,2.83,1.16.5.62.75,1.38.75,2.28Z"/>
      <path class="cls-3" d="m63.83,81.14v2.58s.09,0,.13,0h.13c.85,0,1.27-.46,1.27-1.39,0-.15-.02-.31-.05-.48-.06-.3-.21-.51-.45-.62-.16-.07-.41-.11-.75-.11h-.28Zm-1.45,6.11v-6.64h2.06c.45,0,.77,0,.98.02.21.02.4.07.59.17.56.3.84.76.84,1.38,0,.46-.14.84-.41,1.14-.27.3-.64.5-1.1.6.25.44.6,1.01,1.06,1.7.3.46.52.8.66,1.02l.38.6c-.12,0-.29,0-.5-.02-.21-.02-.34-.02-.38-.02-.12,0-.29,0-.5.02-.21.02-.33.02-.37.02l-1.15-2.03-.63-1.07h-.07v3.11c-.11,0-.2,0-.27,0-.28-.03-.43-.04-.46-.04-.11,0-.25,0-.43.02-.17.02-.27.02-.3.02Z"/>
      <path class="cls-3" d="m68.32,80.61h3.69c-.01.07-.02.15-.03.22,0,.08-.01.14-.01.19,0,.05,0,.11.02.2.01.09.02.16.03.21-.33-.05-.67-.08-1.02-.1-.35-.02-.76-.03-1.21-.03v2.08h1.01c.25,0,.45,0,.59-.01.14,0,.34-.03.6-.07-.01.07-.02.15-.03.22,0,.08-.01.14-.01.19,0,.05,0,.11.02.2.01.09.02.16.03.21-.15-.02-.35-.04-.58-.06-.23-.02-.43-.03-.61-.03h-1.01v2.46c.46,0,.86-.01,1.21-.03.35-.02.69-.06,1.02-.1-.01.07-.02.15-.03.22,0,.08-.01.14-.01.19,0,.05,0,.11.02.2.01.09.02.16.03.21h-3.69v-6.59Z"/>
      <path class="cls-3" d="m76.75,85.16c.27-.54.51-1.01.73-1.42.26-.52.52-1.02.76-1.52.35-.71.6-1.25.76-1.61.09.01.17.03.24.04.07,0,.12.01.17.01s.11,0,.2-.02c.09-.01.16-.02.21-.03.09.82.18,1.64.28,2.45.15,1.28.24,2.01.26,2.19.08.6.19,1.27.31,2.01-.1,0-.24,0-.44-.02-.19-.01-.32-.02-.37-.02-.11,0-.26,0-.44.02-.18.02-.3.02-.34.02,0-.61-.05-1.33-.15-2.15-.1-.82-.19-1.61-.27-2.36-.25.5-.49.99-.73,1.49-.24.49-.48.99-.72,1.48-.16.34-.39.84-.7,1.5-.1-.01-.18-.02-.23-.02-.03,0-.07,0-.14.02-.22-.46-.44-.93-.66-1.38-.28-.57-.52-1.05-.72-1.46-.25-.5-.5-1.01-.75-1.51-.1.73-.16,1.26-.2,1.6-.06.54-.11,1.04-.15,1.5-.04.46-.05.9-.05,1.31-.1-.01-.19-.02-.27-.03-.07,0-.14-.01-.19-.01-.1,0-.18,0-.24.01-.06,0-.13.02-.2.03.12-.63.23-1.31.34-2.04.06-.41.17-1.14.31-2.19.15-1.05.26-1.86.33-2.41.09.01.17.03.23.04.06,0,.12.01.16.01.09,0,.17,0,.24-.02.07-.01.12-.02.17-.03.16.35.4.86.72,1.51.25.5.49,1.01.75,1.52.25.51.51,1.02.76,1.52"/>
      <path class="cls-3" d="m85.11,81.02c-.69,0-1.22.26-1.58.77-.38.54-.57,1.34-.57,2.41,0,.71.15,1.3.46,1.77.36.55.88.82,1.56.82s1.25-.31,1.64-.94c.35-.57.52-1.29.52-2.16,0-.71-.15-1.32-.46-1.81-.37-.58-.89-.87-1.57-.87m3.64,2.86c0,.98-.34,1.8-1.02,2.46-.71.69-1.64,1.03-2.8,1.03-1.09,0-1.96-.3-2.61-.91-.65-.61-.97-1.45-.97-2.54,0-1,.33-1.82,1-2.47.7-.68,1.64-1.01,2.82-1.01,1.25,0,2.19.39,2.83,1.16.5.62.75,1.38.75,2.28Z"/>
      <path class="cls-3" d="m92.67,87.25c-.09-.01-.17-.02-.24-.03-.07,0-.12-.01-.17-.01-.1,0-.18,0-.25.02-.07.01-.12.02-.17.03-.25-.69-.52-1.43-.83-2.24-.31-.81-.6-1.54-.86-2.2-.19-.46-.49-1.2-.9-2.2.12,0,.29,0,.49.03.2.02.32.03.36.03.12,0,.29,0,.49-.03.2-.02.32-.03.36-.03.2.67.47,1.47.81,2.39.3.8.6,1.6.9,2.4.29-.7.51-1.23.65-1.59.21-.53.42-1.06.61-1.6.17-.46.35-1,.55-1.61l.45.03.45-.03c-.32.73-.63,1.47-.95,2.21-.32.75-.62,1.47-.9,2.18-.3.76-.59,1.51-.85,2.25"/>
      <path class="cls-3" d="m95.76,80.61h3.69c-.01.07-.02.15-.03.22,0,.08-.01.14-.01.19,0,.05,0,.11.02.2.01.09.02.16.03.21-.33-.05-.67-.08-1.02-.1s-.76-.03-1.21-.03v2.08h1.01c.25,0,.45,0,.59-.01.14,0,.34-.03.6-.07-.01.07-.02.15-.03.22,0,.08-.01.14-.01.19,0,.05,0,.11.02.2.01.09.02.16.03.21-.15-.02-.35-.04-.58-.06-.23-.02-.43-.03-.61-.03h-1.01v2.46c.46,0,.86-.01,1.21-.03.35-.02.69-.06,1.02-.1-.01.07-.02.15-.03.22,0,.08-.01.14-.01.19,0,.05,0,.11.02.2.01.09.02.16.03.21h-3.69v-6.59Z"/>
    </g>
  </g>
</svg>